pitch,velocity,start,end
67,56,241,361
72,60,361,481
76,63,481,589
67,50,601,721
72,47,721,841
76,47,841,961
67,56,1201,1321
72,60,1321,1441
76,62,1441,1549
67,50,1561,1681
72,48,1681,1801
76,48,1801,1921
69,56,2161,2281
74,60,2281,2401
77,65,2401,2509
69,51,2521,2641
74,50,2641,2761
77,50,2761,2881
69,58,3121,3241
74,60,3241,3361
77,65,3361,3469
69,52,3481,3601
74,50,3601,3721
77,50,3721,3841
67,56,4081,4201
74,60,4201,4321
77,65,4321,4429
67,51,4441,4561
74,50,4561,4681
77,50,4681,4801
67,56,5041,5161
74,60,5161,5281
77,65,5281,5389
67,52,5401,5521
74,50,5521,5641
77,50,5641,5761
67,53,6001,6121
72,55,6121,6241
76,60,6241,6349
67,50,6361,6481
72,47,6481,6601
76,47,6601,6721
67,55,6961,7081
72,57,7081,7201
76,61,7201,7309
67,50,7321,7441
72,48,7441,7561
76,48,7561,7681
69,61,7921,8041
76,66,8041,8161
81,70,8161,8269
69,55,8281,8401
76,51,8401,8521
81,51,8521,8641
69,61,8881,9001
76,65,9001,9121
81,68,9121,9229
69,55,9241,9361
76,52,9361,9481
81,52,9481,9601
66,56,9841,9961
69,60,9961,10081
74,63,10081,10189
66,50,10201,10321
69,47,10321,10441
74,47,10441,10561
66,56,10801,10921
69,60,10921,11041
74,62,11041,11149
66,50,11161,11281
69,48,11281,11401
74,48,11401,11521
67,58,11761,11881
74,63,11881,12001
79,66,12001,12109
67,51,12121,12241
74,50,12241,12361
79,50,12361,12481
67,58,12721,12841
74,62,12841,12961
79,65,12961,13069
67,52,13081,13201
74,50,13201,13321
79,50,13321,13441
64,56,13681,13801
67,60,13801,13921
72,63,13921,14029
64,50,14041,14161
67,47,14161,14281
72,47,14281,14401
64,56,14641,14761
67,60,14761,14881
72,62,14881,14989
64,50,15001,15121
67,48,15121,15241
72,48,15241,15361
64,56,15601,15721
67,60,15721,15841
72,63,15841,15949
64,50,15961,16081
67,47,16081,16201
72,47,16201,16321
64,56,16561,16681
67,60,16681,16801
72,62,16801,16909
64,50,16921,17041
67,48,17041,17161
72,48,17161,17281
62,56,17521,17641
66,60,17641,17761
72,63,17761,17869
62,50,17881,18001
66,47,18001,18121
72,47,18121,18241
62,56,18481,18601
66,60,18601,18721
72,62,18721,18829
62,50,18841,18961
66,48,18961,19081
72,48,19081,19201
62,53,19441,19561
67,56,19561,19681
71,60,19681,19789
62,46,19801,19921
67,45,19921,20041
71,45,20041,20161
62,53,20401,20521
67,56,20521,20641
71,58,20641,20749
62,47,20761,20881
67,45,20881,21001
71,45,21001,21121
64,53,21361,21481
67,56,21481,21601
73,60,21601,21709
64,46,21721,21841
67,45,21841,21961
73,45,21961,22081
64,53,22321,22441
67,56,22441,22561
73,58,22561,22669
64,47,22681,22801
67,45,22801,22921
73,45,22921,23041
62,56,23281,23401
69,60,23401,23521
74,63,23521,23629
62,50,23641,23761
69,47,23761,23881
74,47,23881,24001
62,56,24241,24361
69,60,24361,24481
74,62,24481,24589
62,50,24601,24721
69,48,24721,24841
74,48,24841,24961
62,53,25201,25321
65,56,25321,25441
71,60,25441,25549
62,46,25561,25681
65,45,25681,25801
71,45,25801,25921
62,53,26161,26281
65,56,26281,26401
71,58,26401,26509
62,47,26521,26641
65,45,26641,26761
71,45,26761,26881
60,53,27121,27241
67,56,27241,27361
72,60,27361,27469
60,46,27481,27601
67,45,27601,27721
72,45,27721,27841
60,53,28081,28201
67,56,28201,28321
72,58,28321,28429
60,47,28441,28561
67,45,28561,28681
72,45,28681,28801
57,50,29041,29161
60,53,29161,29281
65,56,29281,29389
57,45,29401,29521
60,42,29521,29641
65,42,29641,29761
57,50,30001,30121
60,53,30121,30241
65,55,30241,30349
57,45,30361,30481
60,43,30481,30601
65,43,30601,30721
57,50,30961,31081
60,53,31081,31201
65,56,31201,31309
57,45,31321,31441
60,42,31441,31561
65,42,31561,31681
57,50,31921,32041
60,53,32041,32161
65,55,32161,32269
57,45,32281,32401
60,43,32401,32521
65,43,32521,32641
55,50,32881,33001
59,53,33001,33121
65,56,33121,33229
55,45,33241,33361
59,42,33361,33481
65,42,33481,33601
55,50,33841,33961
59,53,33961,34081
65,55,34081,34189
55,45,34201,34321
59,43,34321,34441
65,43,34441,34561
55,50,34801,34921
60,53,34921,35041
64,56,35041,35149
55,45,35161,35281
60,42,35281,35401
64,42,35401,35521
55,50,35761,35881
60,53,35881,36001
64,55,36001,36109
55,45,36121,36241
60,43,36241,36361
64,43,36361,36481
58,47,36721,36841
60,50,36841,36961
64,53,36961,37069
58,41,37081,37201
60,40,37201,37321
64,40,37321,37441
58,47,37681,37801
60,50,37801,37921
64,52,37921,38029
58,42,38041,38161
60,40,38161,38281
64,40,38281,38401
57,47,38641,38761
60,50,38761,38881
64,53,38881,38989
57,41,39001,39121
60,40,39121,39241
64,40,39241,39361
57,47,39601,39721
60,50,39721,39841
64,52,39841,39949
57,42,39961,40081
60,40,40081,40201
64,40,40201,40321
57,50,40561,40681
60,53,40681,40801
63,56,40801,40909
57,45,40921,41041
60,42,41041,41161
63,42,41161,41281
57,50,41521,41641
60,53,41641,41761
63,55,41761,41869
57,45,41881,42001
60,43,42001,42121
63,43,42121,42241
59,47,42481,42601
60,50,42601,42721
62,53,42721,42829
59,41,42841,42961
60,40,42961,43081
62,40,43081,43201
59,47,43441,43561
60,50,43561,43681
62,52,43681,43789
59,42,43801,43921
60,40,43921,44041
62,40,44041,44161
55,50,44401,44521
59,53,44521,44641
62,56,44641,44749
55,45,44761,44881
59,42,44881,45001
62,42,45001,45121
55,50,45361,45481
59,53,45481,45601
62,55,45601,45709
55,45,45721,45841
59,43,45841,45961
62,43,45961,46081
55,50,46321,46441
60,53,46441,46561
64,56,46561,46669
55,45,46681,46801
60,42,46801,46921
64,42,46921,47041
55,50,47281,47401
60,53,47401,47521
64,55,47521,47629
55,45,47641,47761
60,43,47761,47881
64,43,47881,48001
55,53,48241,48361
60,56,48361,48481
65,60,48481,48589
55,46,48601,48721
60,45,48721,48841
65,45,48841,48961
55,53,49201,49321
60,56,49321,49441
65,58,49441,49549
55,47,49561,49681
60,45,49681,49801
65,45,49801,49921
55,53,50161,50281
59,56,50281,50401
65,60,50401,50509
55,46,50521,50641
59,45,50641,50761
65,45,50761,50881
55,53,51121,51241
59,56,51241,51361
65,58,51361,51469
55,47,51481,51601
59,45,51601,51721
65,45,51721,51841
57,56,52081,52201
60,60,52201,52321
66,63,52321,52429
57,50,52441,52561
60,47,52561,52681
66,47,52681,52801
57,56,53041,53161
60,60,53161,53281
66,62,53281,53389
57,50,53401,53521
60,48,53521,53641
66,48,53641,53761
55,58,54001,54121
60,63,54121,54241
67,66,54241,54349
55,51,54361,54481
60,50,54481,54601
67,50,54601,54721
55,58,54961,55081
60,62,55081,55201
67,65,55201,55309
55,52,55321,55441
60,50,55441,55561
67,50,55561,55681
55,50,55921,56041
60,53,56041,56161
65,56,56161,56269
55,45,56281,56401
60,42,56401,56521
65,42,56521,56641
55,50,56881,57001
60,53,57001,57121
65,55,57121,57229
55,45,57241,57361
60,43,57361,57481
65,43,57481,57601
55,50,57841,57961
59,53,57961,58081
65,56,58081,58189
55,45,58201,58321
59,42,58321,58441
65,42,58441,58561
55,50,58801,58921
59,53,58921,59041
65,55,59041,59149
55,45,59161,59281
59,43,59281,59401
65,43,59401,59521
55,53,59761,59881
58,56,59881,60001
64,60,60001,60109
55,46,60121,60241
58,45,60241,60361
64,45,60361,60481
55,53,60721,60841
58,56,60841,60961
64,58,60961,61069
55,47,61081,61201
58,45,61201,61321
64,45,61321,61441
53,50,61680,61800
57,53,61800,61920
60,55,61920,62040
65,53,62040,62160
60,53,62160,62280
57,53,62280,62400
60,55,62400,62520
57,50,62520,62640
53,47,62640,62760
57,46,62760,62880
53,46,62880,63000
50,42,63000,63120
53,43,63120,63240
50,38,63240,63360
67,50,63600,63720
71,53,63720,63840
74,55,63840,63960
77,60,63960,64080
74,55,64080,64200
71,53,64200,64320
74,56,64320,64440
71,53,64440,64560
67,56,64560,64680
71,53,64680,64800
62,55,64800,64920
65,50,64920,65040
64,50,65040,65160
62,50,65160,65280
64,50,65281,66721
67,50,65281,66721
72,50,65281,66721
64,57,121,961
60,61,1,961
64,57,1081,1921
60,62,961,1921
62,60,2041,2881
60,65,1921,2881
62,60,3001,3841
60,65,2881,3841
62,60,3961,4801
59,65,3841,4801
62,60,4921,5761
59,65,4801,5761
64,57,5881,6721
60,61,5761,6721
64,57,6841,7681
60,62,6721,7681
64,62,7801,8641
60,67,7681,8641
64,62,8761,9601
60,68,8641,9601
62,57,9721,10561
60,61,9601,10561
62,57,10681,11521
60,62,10561,11521
62,60,11641,12481
59,65,11521,12481
62,60,12601,13441
59,65,12481,13441
60,57,13561,14401
59,61,13441,14401
60,57,14521,15361
59,62,14401,15361
60,57,15481,16321
57,61,15361,16321
60,57,16441,17281
57,62,16321,17281
57,57,17401,18241
50,61,17281,18241
57,57,18361,19201
50,62,18241,19201
59,55,19321,20161
55,57,19201,20161
59,55,20281,21121
55,58,20161,21121
58,55,21241,22081
55,57,21121,22081
58,55,22201,23041
55,58,22081,23041
57,57,23161,24001
53,61,23041,24001
57,57,24121,24961
53,62,24001,24961
56,55,25081,25921
53,57,24961,25921
56,55,26041,26881
53,58,25921,26881
55,55,27001,27841
52,57,26881,27841
55,55,27961,28801
52,58,27841,28801
53,51,28921,29761
52,55,28801,29761
53,51,29881,30721
52,55,29761,30721
53,51,30841,31681
50,55,30721,31681
53,51,31801,32641
50,55,31681,32641
50,51,32761,33601
43,55,32641,33601
50,51,33721,34561
43,55,33601,34561
52,51,34681,35521
48,55,34561,35521
52,51,35641,36481
48,55,35521,36481
55,48,36601,37441
48,51,36481,37441
55,48,37561,38401
48,52,37441,38401
53,48,38521,39361
41,51,38401,39361
53,48,39481,40321
41,52,39361,40321
48,51,40441,41281
42,55,40321,41281
48,51,41401,42241
42,55,41281,42241
53,48,42361,43201
44,51,42241,43201
53,48,43321,44161
44,52,43201,44161
53,51,44281,45121
43,55,44161,45121
53,51,45241,46081
43,55,45121,46081
52,51,46201,47041
43,55,46081,47041
52,51,47161,48001
43,55,47041,48001
50,55,48121,48961
43,57,48001,48961
50,55,49081,49921
43,58,48961,49921
50,55,50041,50881
43,57,49921,50881
50,55,51001,51841
43,58,50881,51841
51,57,51961,52801
43,61,51841,52801
51,57,52921,53761
43,62,52801,53761
52,60,53881,54721
43,65,53761,54721
52,60,54841,55681
43,65,54721,55681
50,51,55801,56641
43,55,55681,56641
50,51,56761,57601
43,55,56641,57601
50,51,57721,58561
43,55,57601,58561
50,51,58681,59521
43,55,58561,59521
48,55,59641,60481
36,57,59521,60481
48,55,60601,61441
36,58,60481,61441
48,51,61560,63360
36,55,61441,63361
50,51,63480,65280
36,55,63361,65281
48,53,65281,66721
36,53,65281,66721
67,53,70320,70560
69,54,70560,70800
71,55,70800,71040
72,60,71040,71400
74,57,71400,71460
72,57,71460,71520
71,57,71520,71740
76,60,71760,72000
69,56,72000,72220
74,60,72240,72600
76,57,72600,72720
74,57,72720,72840
72,56,72840,72960
71,55,72960,73050
67,55,73080,73200
69,56,73200,73320
71,57,73320,73440
72,57,73440,73560
71,53,73560,73680
72,54,73680,73800
74,55,73800,73920
76,56,73920,74040
74,57,74040,74160
76,58,74160,74280
78,59,74280,74400
79,60,74400,74640
71,56,74640,74880
72,60,74880,75100
69,55,75120,75360
74,58,75360,75480
72,57,75480,75600
71,56,75600,75720
69,55,75720,75840
67,54,75840,76200
67,56,76200,76320
65,55,76320,76440
64,55,76440,76560
65,55,76560,76680
67,55,76680,76800
69,55,76800,76920
67,56,76920,77040
69,55,77040,77160
71,57,77160,77280
72,59,77280,78240
71,57,78240,78720
72,60,78960,79200
74,63,79200,79440
76,64,79440,79680
77,69,79680,80040
79,66,80040,80100
77,66,80100,80160
76,66,80160,80380
81,69,80400,80640
74,64,80640,80860
79,69,80880,81240
81,67,81240,81360
79,66,81360,81480
77,64,81480,81600
76,63,81600,81820
81,70,81840,82200
83,68,82200,82320
81,67,82320,82440
79,66,82440,82560
77,65,82560,83520
76,60,83520,83880
78,57,83880,84000
79,63,84000,84960
78,63,84960,85440
79,60,85440,85560
77,59,85560,85680
76,58,85680,85800
74,57,85800,85920
72,56,85920,86040
74,57,86040,86160
72,57,86160,86280
71,57,86280,86400
69,57,86400,86520
72,58,86520,86640
71,58,86640,86760
69,57,86760,86880
72,58,87480,87600
69,55,87720,87840
68,54,87840,88020
76,60,88080,88320
74,58,88320,88560
72,56,88560,88680
71,56,88680,88800
69,54,88800,88920
68,54,88920,89040
69,54,89040,89160
71,53,89160,89280
72,56,89280,89370
66,54,89400,89520
69,54,89520,89640
68,55,89640,89760
71,58,89760,90000
69,56,90000,90120
71,56,90120,90240
72,58,90240,90460
77,64,90480,90720
76,62,90720,90960
74,60,90960,91440
72,58,91440,91560
71,58,91560,91680
71,60,91680,91725
72,55,91725,91770
71,60,91770,92040
69,57,92040,92160
69,60,92160,92640
67,53,95280,95520
69,54,95520,95760
71,55,95760,96000
72,60,96000,96360
74,57,96360,96420
72,57,96420,96480
71,57,96480,96700
72,53,96720,96960
74,56,96960,97200
76,59,97200,97440
77,64,97440,97800
79,60,97800,97860
77,60,97860,97920
76,60,97920,98140
81,68,98160,98400
74,60,98400,98620
79,66,98640,99000
81,66,99000,99120
79,64,99120,99240
77,63,99240,99360
76,61,99360,99580
81,67,99600,99840
74,60,99840,100060
82,67,100080,100320
81,67,100320,100560
79,64,100560,100680
77,61,100680,100800
79,64,100800,100920
77,61,100920,101040
79,64,101040,101160
76,60,101160,101280
77,64,101280,101400
79,60,101400,101520
79,64,101520,101550
81,55,101550,101580
79,55,101580,101610
77,60,101640,101700
79,60,101700,101760
81,67,101760,101850
73,60,101880,102000
74,60,102000,102120
79,60,102120,102240
76,64,102240,102285
77,55,102285,102330
76,60,102330,102600
74,60,102600,102720
74,61,102720,102960
67,51,105360,105600
69,53,105600,105840
71,55,105840,106080
72,60,106080,106440
74,58,106440,106500
72,58,106500,106560
71,58,106560,106780
76,60,106800,107040
69,57,107040,107260
74,60,107280,107640
76,60,107640,107760
74,57,107760,107880
72,56,107880,108000
71,55,108000,108120
72,55,108120,108240
74,57,108240,108360
76,59,108360,108480
77,61,108480,108600
79,61,108600,108720
81,61,108720,108840
79,60,108840,108960
77,60,108960,109080
76,59,109080,109200
74,59,109200,109320
72,58,109320,109440
71,58,109440,109920
72,57,109920,110160
74,57,110160,110400
67,58,110400,110620
72,60,110640,111120
71,57,111120,111360
72,60,111360,111840
71,67,111840,112080
70,67,112080,112320
69,66,112320,112560
74,72,112560,113040
72,67,113040,113280
74,67,113280,113520
76,70,113520,113760
77,74,113760,114360
81,69,114360,114480
79,69,114480,114600
77,68,114600,114720
76,67,114720,114840
77,69,114840,114960
76,68,114960,115080
74,67,115080,115200
72,70,115200,116160
67,56,116280,116340
69,57,116340,116400
71,57,116400,116520
72,59,116520,116640
74,60,116640,116760
76,62,116760,116880
77,63,116880,117180
72,55,117180,117240
74,57,117240,117300
76,58,117300,117360
77,59,117360,117480
79,62,117480,117600
81,65,117600,117960
83,64,117960,118080
84,56,118080,119040
79,52,118080,119040
60,53,67440,67680
62,54,67680,67920
64,56,67920,68160
65,60,68160,68520
67,58,68520,68580
65,58,68580,68640
64,60,68640,68860
69,60,68880,69120
62,56,69120,69340
67,60,69360,69720
69,59,69720,69840
67,59,69840,69960
65,59,69960,70080
64,58,70080,70200
65,58,70200,70320
64,58,70320,70440
62,57,70440,70560
60,57,70560,70680
62,56,70680,70800
60,56,70800,70920
59,56,70920,71040
57,56,71040,71280
66,56,71280,71520
67,60,71520,72240
66,57,72240,72360
64,57,72360,72480
66,57,72480,72700
62,57,72720,72960
67,59,72960,73200
65,58,73200,73440
64,57,73440,73680
62,56,73680,73920
60,55,73920,74160
67,60,74640,75120
65,58,75120,75240
64,58,75240,75360
65,58,75360,75960
65,57,75960,76080
64,57,76080,76320
62,57,76320,76800
60,56,76800,77040
65,60,77040,77280
67,57,77400,77520
65,57,77520,77640
64,57,77640,77760
65,57,77760,77980
62,56,78000,78240
67,62,78240,79200
67,51,82800,83040
69,53,83040,83280
71,56,83280,83520
72,60,83520,83880
74,57,83880,83940
72,57,83940,84000
71,57,84000,84220
76,60,84240,84480
69,56,84480,84700
74,60,84720,85080
76,57,85080,85200
74,56,85200,85320
72,55,85320,85440
71,54,85440,85680
62,51,86160,86400
64,52,86400,86640
66,54,86640,86880
67,60,86880,87240
69,58,87240,87300
67,58,87300,87360
66,58,87360,87580
71,60,87600,87840
64,57,87840,88060
69,60,88080,88440
71,58,88440,88560
69,58,88560,88680
67,58,88680,88800
66,58,88800,89040
65,57,89040,89280
64,55,89280,89520
62,54,89520,89880
64,54,89880,90000
66,55,90000,90120
68,55,90120,90240
69,57,90240,90360
68,56,90360,90480
69,56,90480,90600
71,56,90600,90720
68,58,90720,90840
66,55,90840,90960
68,55,90960,91080
69,55,91080,91200
71,59,91200,91440
60,53,92400,92640
62,54,92640,92880
64,55,92880,93120
65,60,93120,93480
67,58,93480,93540
65,58,93540,93600
64,58,93600,93820
69,60,93840,94080
62,56,94080,94300
67,60,94320,94680
69,57,94680,94800
67,57,94800,94920
65,57,94920,95040
64,57,95040,95260
64,56,95280,95520
66,56,95520,95760
67,60,95760,96180
66,58,96240,96480
68,58,96480,96720
69,61,96720,97200
67,57,97200,97440
69,57,97440,97680
71,57,97680,97920
72,60,97920,98280
74,58,98280,98340
72,58,98340,98400
71,58,98400,98620
76,60,98640,98880
69,58,98880,99100
74,60,99120,99480
76,57,99480,99600
74,56,99600,99720
72,55,99720,99840
71,54,99840,100060
79,65,100080,100320
73,58,100320,100560
74,58,100560,100800
76,60,100800,101020
73,56,101040,101280
74,56,101280,101520
76,56,101520,101760
69,58,101760,102000
64,52,102480,102720
66,53,102720,102960
67,55,102960,103200
69,60,103200,103560
71,58,103560,103620
69,58,103620,103680
67,58,103680,103900
72,60,103920,104160
66,55,104160,104278
71,60,104400,104760
72,57,104760,104880
71,57,104880,105000
69,56,105000,105120
67,56,105120,105240
66,55,105240,105360
64,54,105360,105480
62,54,105480,105600
64,57,105600,106080
62,58,106080,106680
69,57,106680,106800
67,57,106800,106920
65,56,106920,107040
64,56,107040,107160
67,60,107160,107280
65,56,107280,107400
69,56,107400,107520
67,58,107520,108120
69,56,108120,108240
70,56,108240,108480
72,54,108480,108960
74,60,108960,109180
67,57,109200,109440
67,60,109440,110160
65,57,110160,110640
64,57,110640,110880
62,57,110880,111360
64,56,111360,111580
69,68,111600,112080
67,56,112080,112560
65,56,112560,112800
67,57,112800,113040
69,57,113040,113280
70,60,113280,113640
72,57,113640,113700
70,57,113700,113760
69,57,113760,113980
74,60,114000,114240
67,55,114240,114460
72,60,114480,114840
74,62,114840,114960
72,62,114960,115080
70,62,115080,115200
69,61,115200,115320
70,61,115320,115440
69,61,115440,115560
67,60,115560,115680
65,60,115680,115800
67,60,115800,115920
65,59,115920,116040
64,59,116040,116160
62,59,116160,117000
67,57,117000,117120
69,60,117120,117600
77,57,117720,117840
74,57,117840,118080
76,48,118080,119040
55,50,73200,73440
57,52,73440,73680
59,55,73680,73920
60,60,73920,74280
62,57,74280,74340
60,57,74340,74400
59,57,74400,74620
64,60,74640,74880
57,56,74880,75100
62,60,75120,75480
64,58,75480,75600
62,57,75600,75720
60,56,75720,75840
59,55,75840,76060
60,60,76080,76560
58,58,76560,76800
57,56,76800,77020
62,60,77040,77280
55,56,77280,77500
60,60,77520,77760
57,55,77880,78000
59,56,78000,78120
60,58,78120,78240
62,59,78240,78720
55,60,78720,79200
55,53,79440,79680
57,54,79680,79920
59,55,79920,80160
60,60,80160,80520
62,58,80520,80580
60,58,80580,80640
59,58,80640,80860
64,60,80880,81120
57,56,81120,81340
62,60,81360,81720
64,57,81720,81840
62,56,81840,81960
60,56,81960,82080
59,55,82080,82320
64,60,82320,83040
62,60,83040,83520
59,58,83640,83760
60,60,83760,83880
57,57,83880,83970
64,58,84000,84120
62,58,84120,84240
60,57,84240,84360
59,57,84360,84480
60,60,84480,84570
57,54,84600,84720
59,56,84720,84840
60,58,84840,84960
62,60,84960,85080
60,59,85080,85200
59,58,85200,85320
57,57,85320,85440
55,56,85440,85920
52,52,88560,88800
54,54,88800,89040
56,56,89040,89280
57,60,89280,89640
59,57,89640,89700
57,57,89700,89760
56,57,89760,89980
60,60,90000,90240
54,56,90240,90460
59,60,90480,90840
60,60,90840,90960
59,59,90960,91080
57,57,91080,91200
56,56,91200,91420
57,59,91440,91920
56,57,91920,92160
57,60,92160,92640
55,52,92880,93120
57,54,93120,93360
59,56,93360,93600
60,60,93600,93960
62,57,93960,94020
60,57,94020,94080
59,57,94080,94300
64,60,94320,94560
57,55,94560,94780
62,60,94800,95280
55,57,95280,95520
62,60,95520,96000
60,57,96000,96220
57,57,96240,96480
64,60,96480,96960
62,57,96960,97200
57,51,98160,98400
59,53,98400,98640
61,55,98640,98880
62,60,98880,99240
64,58,99240,99300
62,58,99300,99360
60,58,99360,99580
65,60,99600,99840
59,54,99840,100060
64,60,100080,100440
65,61,100440,100560
64,59,100560,100680
62,58,100680,100800
61,56,100800,101040
57,53,102000,102240
59,54,102240,102480
61,55,102480,102720
62,60,102720,103080
64,57,103080,103140
62,57,103140,103200
60,57,103200,103420
66,60,103440,103680
59,54,103680,103900
64,60,103920,104280
66,63,104280,104400
64,63,104400,104520
62,62,104520,104640
60,60,104640,105720
62,60,105720,105840
60,59,105840,105960
59,58,105960,106080
57,57,106080,106200
55,56,106200,106320
57,58,106320,106410
54,54,106440,106560
55,54,106560,106780
59,57,106800,107040
60,60,107040,107280
62,63,107280,107520
64,66,107520,107880
65,60,107880,107940
64,60,107940,108000
62,60,108000,108220
67,65,108240,108480
60,58,108480,108700
65,66,108720,109080
67,62,109080,109200
65,60,109200,109320
64,58,109320,109440
62,57,109440,109920
64,60,109920,110160
62,60,110160,110640
55,58,110640,110880
55,61,110880,111580
48,51,111600,111840
50,53,111840,112080
52,55,112080,112320
53,60,112320,112680
55,56,112680,112740
53,56,112740,112800
52,57,112800,113020
57,60,113040,113280
50,55,113280,113500
55,60,113520,113880
57,58,113880,114000
55,58,114000,114120
53,57,114120,114240
52,57,114240,114330
50,56,114360,114480
52,56,114480,114600
53,56,114600,114720
55,57,114720,114840
57,59,114840,114960
58,63,114960,115050
55,60,115080,115200
57,60,115200,115290
52,63,115320,115440
53,55,115440,115560
55,57,115560,115680
57,59,115680,115800
59,60,115800,115920
60,62,115920,116010
57,58,116040,116160
59,62,116160,117120
60,60,117120,119040
48,51,76080,76320
50,53,76320,76560
52,56,76560,76800
53,60,76800,77160
55,57,77160,77220
53,57,77220,77280
52,57,77280,77500
57,60,77520,77760
50,55,77760,77980
55,60,78000,78360
57,59,78360,78480
55,58,78480,78600
53,57,78600,78720
52,56,78720,78810
53,57,78840,78960
52,56,78960,79080
50,55,79080,79200
48,54,79200,79290
50,57,79320,79440
48,56,79440,79560
47,55,79560,79680
45,54,79680,79900
50,57,79920,80160
57,60,80160,80400
54,57,80400,80640
55,58,80640,80760
57,58,80760,80880
58,60,80880,81000
55,58,81000,81120
49,56,81120,81360
50,57,81360,81600
57,58,81600,82080
52,56,82080,82560
57,56,82560,82680
59,57,82680,82800
60,58,82800,82920
62,59,82920,83040
60,60,83040,83160
59,57,83160,83280
57,56,83280,83400
55,55,83400,83520
60,60,83520,83760
43,54,85680,85920
45,55,85920,86160
47,55,86160,86400
48,60,86400,86760
50,58,86760,86820
48,58,86820,86880
47,58,86880,87100
52,60,87120,87360
45,55,87360,87580
50,60,87600,87960
52,60,87960,88080
50,58,88080,88200
48,57,88200,88320
47,55,88320,88560
50,58,89040,89280
48,58,89280,89520
53,60,89520,90000
52,58,90000,90480
50,57,90480,90960
52,57,90960,91200
53,60,91200,91440
52,55,91440,91560
50,55,91560,91680
52,58,91680,92160
45,61,92160,92640
43,52,94320,94560
45,53,94560,94800
47,55,94800,95040
48,60,95040,95400
50,57,95400,95460
48,57,95460,95520
47,57,95520,95740
52,60,95760,96000
45,56,96000,96220
50,60,96240,96600
52,61,96600,96720
50,60,96720,96840
48,59,96840,96960
47,58,96960,97180
46,57,97200,97440
45,57,97440,97680
43,56,97680,97920
45,56,97920,98100
54,60,98160,98400
55,60,98400,98640
52,57,98640,98880
50,57,98880,99340
52,56,99360,99600
53,56,99600,99840
55,60,99840,100200
57,57,100200,100260
55,57,100260,100320
53,57,100320,100540
58,60,100560,100800
52,55,100800,101020
57,60,101040,101400
58,58,101400,101520
57,58,101520,101640
55,57,101640,101760
53,58,101760,101880
52,55,101880,102000
53,58,102000,102090
50,55,102120,102240
55,59,102240,102480
57,59,102480,102720
50,56,102720,103800
52,57,103800,103920
50,57,103920,104040
48,56,104040,104160
47,56,104160,104280
45,55,104280,104400
43,55,104400,104520
42,54,104520,104640
40,54,104640,104860
52,52,104880,105120
54,54,105120,105360
55,56,105360,105840
57,60,105840,105960
55,58,105960,106080
54,60,106080,106300
50,57,106320,106560
55,59,106560,108480
57,52,108480,108960
59,57,108960,109200
60,57,109200,109440
53,58,109440,109530
57,60,109560,109680
55,59,109680,109800
53,58,109800,109920
52,57,109920,110040
50,56,110040,110160
48,56,110160,110280
47,55,110280,110400
48,51,110400,110520
50,53,110520,110640
52,56,110640,110760
53,58,110760,110880
43,57,111120,111360
48,60,111360,119040
480,62,0,0
