pitch,velocity,start,end
93,87,0,64
69,71,0,128
64,71,0,128
61,71,0,128
57,71,0,128
92,73,64,128
91,72,128,192
90,70,192,256
91,79,256,320
90,76,320,384
89,71,384,448
88,72,448,512
89,75,512,576
88,72,576,640
87,67,640,704
86,75,704,768
85,70,768,832
84,70,832,896
83,76,896,960
82,74,960,1011
81,73,1024,1088
57,66,1024,1152
55,66,1024,1152
52,66,1024,1152
45,66,1024,1152
80,70,1088,1152
79,68,1152,1216
78,69,1216,1280
79,71,1280,1344
78,75,1344,1408
77,72,1408,1472
76,69,1472,1536
77,82,1536,1600
76,75,1600,1664
75,75,1664,1728
74,71,1728,1792
73,70,1792,1856
72,70,1856,1920
71,68,1920,1984
70,71,1984,2035
69,60,2048,2112
68,57,2112,2176
67,57,2176,2240
66,57,2240,2304
67,62,2304,2368
66,57,2368,2432
65,59,2432,2496
64,55,2496,2560
69,68,2560,2624
68,54,2624,2688
67,61,2688,2752
66,53,2752,2816
67,58,2816,2880
66,58,2880,2944
65,58,2944,3008
64,56,3008,3059
57,66,3072,3135
53,66,3072,3135
50,66,3072,3135
69,67,3072,3136
68,58,3136,3200
67,54,3200,3264
66,56,3264,3328
65,62,3328,3392
70,65,3392,3456
69,57,3456,3520
68,53,3520,3584
57,70,3584,3647
53,70,3584,3647
50,70,3584,3647
69,63,3584,3648
68,55,3648,3712
67,57,3712,3776
66,61,3776,3840
59,66,3840,3903
55,66,3840,3903
50,66,3840,3903
65,56,3840,3904
66,63,3904,3968
67,67,3968,4032
68,67,4032,4083
57,67,4096,4159
53,67,4096,4159
50,67,4096,4159
69,59,4096,4160
68,57,4160,4224
67,56,4224,4288
66,55,4288,4352
65,61,4352,4416
70,67,4416,4480
69,62,4480,4544
68,56,4544,4608
57,71,4608,4671
53,71,4608,4671
50,71,4608,4671
69,67,4608,4672
68,57,4672,4736
67,60,4736,4800
66,55,4800,4864
65,57,4864,4928
59,66,4864,4992
55,66,4864,4992
50,66,4864,4992
66,70,4928,4992
67,62,4992,5056
68,64,5056,5107
69,64,5120,5184
57,67,5120,5248
53,67,5120,5248
50,67,5120,5248
68,58,5184,5248
67,55,5248,5312
66,56,5312,5376
67,65,5376,5440
58,67,5376,5504
55,67,5376,5504
50,67,5376,5504
66,63,5440,5504
65,61,5504,5568
64,55,5568,5632
65,63,5632,5696
57,70,5632,5760
53,70,5632,5760
50,70,5632,5760
66,63,5696,5760
67,65,5760,5824
68,55,5824,5888
69,66,5888,5952
57,67,5888,6016
55,67,5888,6016
52,67,5888,6016
49,67,5888,6016
70,64,5952,6016
69,56,6016,6080
68,63,6080,6131
69,59,6144,6208
57,66,6144,6272
53,66,6144,6272
50,66,6144,6272
68,60,6208,6272
67,54,6272,6336
66,59,6336,6400
67,61,6400,6464
58,63,6400,6528
55,63,6400,6528
50,63,6400,6528
66,57,6464,6528
65,56,6528,6592
64,61,6592,6656
65,58,6656,6720
57,69,6656,6784
53,69,6656,6784
50,69,6656,6784
66,65,6720,6784
67,63,6784,6848
68,62,6848,6912
69,62,6912,6976
61,66,6912,7040
57,66,6912,7040
55,66,6912,7040
52,66,6912,7040
71,63,6976,7040
72,64,7040,7104
73,64,7104,7155
74,64,7168,7232
60,72,7168,7296
54,72,7168,7296
50,72,7168,7296
73,58,7232,7296
72,59,7296,7360
71,53,7360,7424
70,52,7424,7488
58,67,7424,7552
55,67,7424,7552
50,67,7424,7552
75,68,7488,7552
74,63,7552,7616
73,58,7616,7680
74,64,7680,7744
62,67,7680,7808
58,67,7680,7808
55,67,7680,7808
73,57,7744,7808
72,57,7808,7872
71,58,7872,7936
70,54,7936,8000
64,70,7936,8064
60,70,7936,8064
55,70,7936,8064
71,62,8000,8064
72,65,8064,8128
73,63,8128,8179
74,64,8192,8256
62,70,8192,8320
58,70,8192,8320
55,70,8192,8320
73,60,8256,8320
72,54,8320,8384
71,58,8384,8448
70,57,8448,8512
75,68,8512,8576
74,57,8576,8640
73,56,8640,8704
74,64,8704,8768
62,70,8704,8832
58,70,8704,8832
55,70,8704,8832
73,60,8768,8832
72,57,8832,8896
71,62,8896,8960
70,57,8960,9024
64,67,8960,9088
60,67,8960,9088
55,67,8960,9088
71,62,9024,9088
72,66,9088,9152
73,65,9152,9203
74,61,9216,9280
62,68,9216,9344
58,68,9216,9344
55,68,9216,9344
73,59,9280,9344
72,64,9344,9408
71,57,9408,9472
72,66,9472,9536
63,70,9472,9600
60,70,9472,9600
55,70,9472,9600
71,60,9536,9600
70,56,9600,9664
69,56,9664,9728
70,61,9728,9792
62,49,9728,9856
58,49,9728,9856
55,49,9728,9856
71,62,9792,9856
72,64,9856,9920
73,64,9920,9984
74,56,9984,10048
62,56,9984,10112
60,56,9984,10112
57,56,9984,10112
75,65,10048,10112
74,58,10112,10176
73,53,10176,10227
74,64,10240,10304
62,53,10240,10368
58,53,10240,10368
55,53,10240,10368
73,58,10304,10368
72,54,10368,10432
71,57,10432,10496
72,68,10496,10560
63,48,10496,10624
60,48,10496,10624
55,48,10496,10624
71,56,10560,10624
70,58,10624,10688
69,60,10688,10752
70,63,10752,10816
62,58,10752,10880
58,58,10752,10880
55,58,10752,10880
71,59,10816,10880
72,66,10880,10944
73,63,10944,11008
74,65,11008,11072
62,49,11008,11136
60,49,11008,11136
54,49,11008,11136
75,64,11072,11136
74,56,11136,11200
73,59,11200,11251
58,53,11264,11327
55,53,11264,11327
74,84,11264,11328
62,45,11328,11379
62,58,11392,11423
62,61,11456,11487
62,63,11520,11551
62,60,11584,11615
62,61,11648,11679
62,63,11712,11743
63,51,11776,11840
61,51,11776,11840
62,57,11840,11904
63,65,11904,11968
61,65,11904,11968
75,80,11968,12032
63,46,12032,12096
61,46,12032,12096
62,54,12096,12160
63,64,12160,12224
61,64,12160,12224
75,74,12224,12288
74,53,12288,12319
62,45,12288,12352
74,58,12352,12383
74,62,12416,12447
74,60,12480,12511
74,64,12544,12575
74,58,12608,12639
74,61,12672,12703
74,64,12736,12767
75,59,12800,12831
73,59,12800,12831
74,60,12864,12895
75,65,12928,12959
73,65,12928,12959
87,77,12992,13023
75,46,13056,13087
73,46,13056,13087
74,56,13120,13151
75,57,13184,13215
73,57,13184,13215
87,78,13248,13312
74,55,13312,13376
86,59,13312,13376
75,49,13376,13440
74,54,13440,13504
73,55,13504,13568
74,68,13568,13632
75,63,13632,13696
74,59,13696,13760
73,58,13760,13824
62,55,13824,13887
74,62,13824,13888
75,71,13888,13952
63,73,13952,14015
61,73,13952,14015
74,66,13952,14016
73,73,14016,14080
64,82,14080,14143
60,82,14080,14143
74,81,14080,14144
75,86,14144,14208
65,91,14208,14271
59,91,14208,14271
74,90,14208,14272
73,92,14272,14323
66,91,14336,14400
74,85,14336,14400
62,75,14400,14464
75,85,14400,14464
66,93,14464,14528
76,91,14464,14528
62,90,14528,14592
77,100,14528,14592
66,104,14592,14656
78,102,14592,14656
62,72,14656,14720
77,76,14656,14720
66,68,14720,14784
76,62,14720,14784
62,46,14784,14848
75,45,14784,14848
66,48,14848,14912
74,42,14848,14912
62,60,14912,14976
75,64,14912,14976
66,81,14976,15040
76,81,14976,15040
62,85,15040,15104
77,101,15040,15104
66,97,15104,15168
78,101,15104,15168
62,77,15168,15232
77,74,15168,15232
66,69,15232,15296
76,63,15232,15296
75,44,15296,15347
62,43,15296,15360
58,88,14336,15360
67,50,15360,15423
62,50,15360,15423
59,50,15360,15423
74,43,15360,15424
67,38,15424,15475
67,51,15488,15519
67,62,15552,15583
67,72,15616,15647
67,79,15680,15711
67,88,15744,15775
67,98,15808,15839
68,78,15872,15936
66,78,15872,15936
67,91,15936,16000
68,101,16000,16064
66,101,16000,16064
80,109,16064,16128
68,86,16128,16192
66,86,16128,16192
67,92,16192,16256
68,97,16256,16320
66,97,16256,16320
80,123,16320,16384
67,72,16384,16448
67,0,-1,16448
79,117,16448,16479
79,100,16512,16543
79,94,16576,16607
79,97,16640,16671
79,96,16704,16735
79,95,16768,16799
79,96,16832,16863
80,88,16896,16960
78,88,16896,16960
79,91,16960,17024
80,99,17024,17088
78,99,17024,17088
92,112,17088,17152
80,87,17152,17216
78,87,17152,17216
79,93,17216,17280
80,96,17280,17344
78,96,17280,17344
92,123,17344,17408
79,73,17408,17472
91,82,17408,17472
80,72,17472,17536
79,87,17536,17600
78,88,17600,17664
79,102,17664,17728
80,102,17728,17792
79,91,17792,17856
78,90,17856,17907
79,101,17920,17984
67,118,17920,18048
80,97,17984,18048
68,90,18048,18111
79,94,18048,18112
66,93,18048,18176
78,93,18112,18176
69,96,18176,18239
79,98,18176,18240
65,95,18176,18304
80,97,18240,18304
70,97,18304,18367
79,95,18304,18368
78,91,18368,18419
64,95,18304,18432
71,89,18432,18496
79,89,18432,18496
67,76,18496,18560
80,88,18496,18560
71,94,18560,18624
81,92,18560,18624
67,89,18624,18688
82,98,18624,18688
71,99,18688,18752
83,98,18688,18752
67,67,18752,18816
82,70,18752,18816
71,53,18816,18880
81,48,18816,18880
80,51,18880,18931
67,49,18880,18944
71,51,18944,19008
79,43,18944,19008
67,62,19008,19072
80,66,19008,19072
71,81,19072,19136
81,80,19072,19136
67,90,19136,19200
82,103,19136,19200
71,105,19200,19264
83,100,19200,19264
67,75,19264,19328
82,77,19264,19328
71,67,19328,19392
81,63,19328,19392
80,45,19392,19443
67,41,19392,19456
63,78,18432,19456
72,69,19456,19520
67,69,19456,19520
63,69,19456,19520
60,69,19456,19520
79,55,19456,19520
78,53,19520,19584
77,52,19584,19648
76,62,19648,19712
75,57,19712,19776
80,69,19776,19840
79,58,19840,19904
78,61,19904,19968
72,53,19968,20031
67,53,19968,20031
63,53,19968,20031
79,61,19968,20032
78,57,20032,20096
77,55,20096,20160
76,59,20160,20224
72,57,20224,20287
68,57,20224,20287
65,57,20224,20287
75,60,20224,20288
76,62,20288,20352
77,62,20352,20416
78,64,20416,20467
79,63,20480,20544
72,50,20480,20608
67,50,20480,20608
63,50,20480,20608
78,58,20544,20608
77,58,20608,20672
76,58,20672,20736
77,58,20736,20800
68,49,20736,20864
65,49,20736,20864
59,49,20736,20864
76,58,20800,20864
75,58,20864,20928
74,56,20928,20992
75,66,20992,21056
67,52,20992,21120
63,52,20992,21120
60,52,20992,21120
76,62,21056,21120
77,65,21120,21184
78,61,21184,21248
77,59,21248,21312
62,58,21248,21376
58,58,21248,21376
78,69,21312,21376
79,67,21376,21440
80,70,21440,21491
81,67,21504,21568
67,54,21504,21632
61,54,21504,21632
57,54,21504,21632
80,58,21568,21632
79,56,21632,21696
78,54,21696,21760
79,66,21760,21824
78,55,21824,21888
77,58,21888,21952
76,56,21952,22016
77,63,22016,22080
76,54,22080,22144
75,58,22144,22208
69,77,21760,22272
74,59,22208,22272
69,59,22272,22335
73,59,22272,22336
72,56,22336,22400
71,60,22400,22464
70,51,22464,22515
69,54,22528,22591
69,0,-1,22592
70,62,22592,22656
69,61,22656,22720
68,55,22720,22784
69,54,22784,22847
69,0,-1,22848
70,64,22848,22912
65,48,22912,22975
69,59,22912,22976
68,58,22976,23040
62,52,23040,23103
69,64,23040,23104
70,63,23104,23168
58,54,23168,23231
69,56,23168,23232
68,55,23232,23296
62,66,23296,23359
69,60,23296,23360
70,62,23360,23424
65,64,23424,23487
69,57,23424,23488
68,59,23488,23539
69,72,23552,23615
69,0,-1,23616
70,65,23616,23680
69,59,23680,23744
68,57,23744,23808
69,52,23808,23871
57,52,23808,23871
69,0,-1,23872
70,66,23872,23936
65,53,23936,23999
53,53,23936,23999
69,58,23936,24000
68,58,24000,24064
62,56,24064,24127
50,56,24064,24127
69,64,24064,24128
70,64,24128,24192
58,61,24192,24255
46,61,24192,24255
69,56,24192,24256
68,59,24256,24320
62,65,24320,24383
50,65,24320,24383
69,64,24320,24384
70,65,24384,24448
65,69,24448,24511
53,69,24448,24511
69,59,24448,24512
68,56,24512,24563
69,71,24576,24639
57,71,24576,24639
69,0,-1,24640
68,59,24640,24704
67,58,24704,24768
66,55,24768,24832
67,63,24832,24896
66,60,24896,24960
65,57,24960,25024
64,58,25024,25088
65,64,25088,25152
64,58,25152,25216
63,58,25216,25280
62,58,25280,25344
61,62,25344,25408
60,56,25408,25472
59,59,25472,25536
58,58,25536,25587
57,61,25600,25664
58,60,25664,25728
57,61,25728,25792
56,58,25792,25856
57,55,25856,25919
45,55,25856,25919
57,0,-1,25920
58,62,25920,25984
53,59,25984,26047
41,59,25984,26047
57,60,25984,26048
56,62,26048,26112
50,59,26112,26175
38,59,26112,26175
57,64,26112,26176
58,62,26176,26240
46,56,26240,26303
34,56,26240,26303
57,61,26240,26304
56,61,26304,26368
50,62,26368,26431
38,62,26368,26431
57,62,26368,26432
58,65,26432,26496
53,63,26496,26559
41,63,26496,26559
57,56,26496,26560
56,59,26560,26611
57,61,26624,26688
57,0,-1,26751
45,61,26624,26751
58,61,26688,26752
57,55,26752,26816
56,58,26816,26880
69,77,26880,26943
57,61,26880,26944
58,62,26944,27008
65,54,27008,27071
57,63,27008,27072
56,60,27072,27136
62,49,27136,27199
57,62,27136,27200
58,61,27200,27264
58,55,27264,27327
57,58,27264,27328
56,59,27328,27392
62,68,27392,27455
57,62,27392,27456
58,62,27456,27520
65,66,27520,27583
57,57,27520,27584
56,58,27584,27635
57,59,27648,27712
58,62,27712,27776
59,65,27776,27840
60,60,27840,27904
61,65,27904,27968
62,67,27968,28032
63,66,28032,28096
69,70,27648,28160
64,66,28096,28160
65,63,28160,28224
66,63,28224,28288
67,64,28288,28352
68,63,28352,28416
69,68,28416,28480
70,65,28480,28544
71,64,28544,28608
72,66,28608,28659
73,60,28672,28736
74,60,28736,28800
75,59,28800,28864
81,79,28160,28928
69,0,-1,28928
76,58,28864,28928
77,57,28928,28992
78,56,28992,29056
79,55,29056,29120
69,57,28928,29184
57,57,28928,29184
80,54,29120,29184
81,53,29184,29248
82,52,29248,29312
81,51,29312,29376
80,50,29376,29440
81,50,29440,29504
82,49,29504,29568
81,48,29568,29619
57,53,29184,29696
80,47,29632,29696
57,52,29696,29759
53,52,29696,29759
50,52,29696,29759
69,45,29696,29760
68,58,29760,29824
67,52,29824,29888
66,60,29888,29952
65,57,29952,30016
70,70,30016,30080
69,54,30080,30144
68,56,30144,30208
57,57,30208,30271
53,57,30208,30271
50,57,30208,30271
69,62,30208,30272
68,64,30272,30336
67,56,30336,30400
66,55,30400,30464
59,55,30464,30527
55,55,30464,30527
50,55,30464,30527
65,58,30464,30528
66,61,30528,30592
67,58,30592,30656
68,66,30656,30707
57,54,30720,30783
53,54,30720,30783
50,54,30720,30783
69,64,30720,30784
68,61,30784,30848
67,59,30848,30912
66,62,30912,30976
65,52,30976,31040
70,65,31040,31104
69,59,31104,31168
68,57,31168,31232
57,56,31232,31295
53,56,31232,31295
50,56,31232,31295
69,66,31232,31296
68,57,31296,31360
67,63,31360,31424
66,54,31424,31488
65,59,31488,31552
59,56,31488,31616
55,56,31488,31616
50,56,31488,31616
66,61,31552,31616
67,67,31616,31680
68,69,31680,31731
69,65,31744,31808
57,55,31744,31872
53,55,31744,31872
50,55,31744,31872
68,58,31808,31872
67,56,31872,31936
66,58,31936,32000
67,63,32000,32064
58,52,32000,32128
55,52,32000,32128
50,52,32000,32128
66,54,32064,32128
65,54,32128,32192
64,56,32192,32256
65,62,32256,32320
57,55,32256,32384
53,55,32256,32384
50,55,32256,32384
66,65,32320,32384
67,64,32384,32448
68,67,32448,32512
69,62,32512,32576
57,52,32512,32640
55,52,32512,32640
52,52,32512,32640
49,52,32512,32640
70,64,32576,32640
69,59,32640,32704
68,56,32704,32755
69,64,32768,32832
57,62,32768,32896
53,62,32768,32896
50,62,32768,32896
68,56,32832,32896
67,61,32896,32960
66,56,32960,33024
67,62,33024,33088
58,57,33024,33152
55,57,33024,33152
50,57,33024,33152
66,57,33088,33152
65,56,33152,33216
64,60,33216,33280
65,64,33280,33344
57,55,33280,33408
53,55,33280,33408
50,55,33280,33408
66,60,33344,33408
67,65,33408,33472
68,61,33472,33536
69,64,33536,33600
61,57,33536,33664
57,57,33536,33664
55,57,33536,33664
52,57,33536,33664
71,65,33600,33664
72,63,33664,33728
73,64,33728,33779
74,64,33792,33856
60,55,33792,33920
54,55,33792,33920
50,55,33792,33920
73,61,33856,33920
72,57,33920,33984
71,59,33984,34048
70,55,34048,34112
58,50,34048,34176
55,50,34048,34176
50,50,34048,34176
75,74,34112,34176
74,59,34176,34240
73,55,34240,34304
74,66,34304,34368
62,54,34304,34432
58,54,34304,34432
55,54,34304,34432
73,59,34368,34432
72,53,34432,34496
71,59,34496,34560
70,56,34560,34624
64,50,34560,34688
60,50,34560,34688
55,50,34560,34688
71,60,34624,34688
72,61,34688,34752
73,66,34752,34803
74,64,34816,34880
62,55,34816,34944
58,55,34816,34944
55,55,34816,34944
73,56,34880,34944
72,54,34944,35008
71,58,35008,35072
70,54,35072,35136
75,69,35136,35200
74,62,35200,35264
73,55,35264,35328
74,63,35328,35392
62,54,35328,35456
58,54,35328,35456
55,54,35328,35456
73,55,35392,35456
72,56,35456,35520
71,55,35520,35584
70,56,35584,35648
64,51,35584,35712
60,51,35584,35712
55,51,35584,35712
71,64,35648,35712
72,62,35712,35776
73,59,35776,35827
74,60,35840,35904
62,54,35840,35968
58,54,35840,35968
55,54,35840,35968
73,58,35904,35968
72,64,35968,36032
71,58,36032,36096
72,59,36096,36160
63,54,36096,36224
60,54,36096,36224
55,54,36096,36224
71,57,36160,36224
70,54,36224,36288
69,56,36288,36352
70,60,36352,36416
62,52,36352,36480
58,52,36352,36480
55,52,36352,36480
71,59,36416,36480
72,67,36480,36544
73,64,36544,36608
74,67,36608,36672
62,55,36608,36736
60,55,36608,36736
57,55,36608,36736
75,64,36672,36736
74,57,36736,36800
73,54,36800,36851
74,62,36864,36928
62,55,36864,36992
58,55,36864,36992
55,55,36864,36992
73,52,36928,36992
72,59,36992,37056
71,56,37056,37120
72,62,37120,37184
63,51,37120,37248
60,51,37120,37248
55,51,37120,37248
71,53,37184,37248
70,56,37248,37312
69,57,37312,37376
70,60,37376,37440
62,52,37376,37504
58,52,37376,37504
55,52,37376,37504
71,64,37440,37504
72,63,37504,37568
73,65,37568,37632
74,64,37632,37696
62,54,37632,37760
60,54,37632,37760
54,54,37632,37760
75,60,37696,37760
74,59,37760,37824
73,53,37824,37875
58,55,37888,37951
55,55,37888,37951
74,85,37888,37952
62,45,37952,38003
62,53,38016,38047
62,61,38080,38111
62,62,38144,38175
62,58,38208,38239
62,58,38272,38303
62,61,38336,38367
63,52,38400,38464
61,52,38400,38464
62,60,38464,38528
63,66,38528,38592
61,66,38528,38592
75,76,38592,38656
63,47,38656,38720
61,47,38656,38720
62,53,38720,38784
63,61,38784,38848
61,61,38784,38848
75,72,38848,38912
74,53,38912,38943
62,43,38912,38976
74,60,38976,39007
74,56,39040,39071
74,58,39104,39135
74,62,39168,39199
74,63,39232,39263
74,60,39296,39327
74,64,39360,39391
75,62,39424,39455
73,62,39424,39455
74,61,39488,39519
75,60,39552,39583
73,60,39552,39583
87,75,39616,39647
75,44,39680,39711
73,44,39680,39711
74,61,39744,39775
75,66,39808,39839
73,66,39808,39839
87,74,39872,39936
74,51,39936,40000
86,63,39936,40000
75,46,40000,40064
74,54,40064,40128
73,59,40128,40192
74,63,40192,40256
75,66,40256,40320
74,57,40320,40384
73,55,40384,40448
62,58,40448,40511
74,58,40448,40512
75,68,40512,40576
63,72,40576,40639
61,72,40576,40639
74,66,40576,40640
73,74,40640,40704
64,82,40704,40767
60,82,40704,40767
74,82,40704,40768
75,85,40768,40832
65,91,40832,40895
59,91,40832,40895
74,91,40832,40896
73,91,40896,40947
66,86,40960,41024
74,88,40960,41024
62,72,41024,41088
75,87,41024,41088
66,96,41088,41152
76,92,41088,41152
62,85,41152,41216
77,105,41152,41216
66,114,41216,41280
78,99,41216,41280
62,76,41280,41344
77,76,41280,41344
66,66,41344,41408
76,63,41344,41408
62,41,41408,41472
75,46,41408,41472
66,51,41472,41536
74,46,41472,41536
62,58,41536,41600
75,69,41536,41600
66,81,41600,41664
76,81,41600,41664
62,87,41664,41728
77,104,41664,41728
66,104,41728,41792
78,104,41728,41792
62,78,41792,41856
77,76,41792,41856
66,67,41856,41920
76,62,41856,41920
75,46,41920,41971
62,40,41920,41984
58,90,40960,41984
67,52,41984,42047
62,52,41984,42047
59,52,41984,42047
74,48,41984,42048
67,35,42048,42099
67,56,42112,42143
67,61,42176,42207
67,72,42240,42271
67,79,42304,42335
67,87,42368,42399
67,91,42432,42463
68,89,42496,42560
66,89,42496,42560
67,90,42560,42624
68,97,42624,42688
66,97,42624,42688
80,112,42688,42752
68,85,42752,42816
66,85,42752,42816
67,94,42816,42880
68,97,42880,42944
66,97,42880,42944
80,126,42944,43008
67,72,43008,43072
67,0,-1,43072
79,119,43072,43103
79,99,43136,43167
79,97,43200,43231
79,94,43264,43295
79,96,43328,43359
79,100,43392,43423
79,99,43456,43487
80,89,43520,43584
78,89,43520,43584
79,90,43584,43648
80,98,43648,43712
78,98,43648,43712
92,111,43712,43776
80,89,43776,43840
78,89,43776,43840
79,93,43840,43904
80,96,43904,43968
78,96,43904,43968
92,126,43968,44032
79,75,44032,44096
91,81,44032,44096
80,71,44096,44160
79,87,44160,44224
78,90,44224,44288
79,105,44288,44352
80,94,44352,44416
79,96,44416,44480
78,93,44480,44531
79,99,44544,44608
67,116,44544,44672
80,99,44608,44672
68,84,44672,44735
79,93,44672,44736
66,94,44672,44800
78,91,44736,44800
69,97,44800,44863
79,97,44800,44864
65,95,44800,44928
80,98,44864,44928
70,97,44928,44991
79,95,44928,44992
78,95,44992,45043
64,95,44928,45056
71,85,45056,45120
79,89,45056,45120
67,75,45120,45184
80,85,45120,45184
71,93,45184,45248
81,93,45184,45248
67,91,45248,45312
82,96,45248,45312
71,100,45312,45376
83,103,45312,45376
67,66,45376,45440
82,70,45376,45440
71,47,45440,45504
81,49,45440,45504
80,47,45504,45555
67,44,45504,45568
71,49,45568,45632
79,45,45568,45632
67,58,45632,45696
80,64,45632,45696
71,81,45696,45760
81,82,45696,45760
67,85,45760,45824
82,101,45760,45824
71,103,45824,45888
83,100,45824,45888
67,74,45888,45952
82,77,45888,45952
71,66,45952,46016
81,61,45952,46016
80,46,46016,46067
67,42,46016,46080
63,76,45056,46080
72,64,46080,46144
67,64,46080,46144
63,64,46080,46144
60,64,46080,46144
79,56,46080,46144
78,60,46144,46208
77,60,46208,46272
76,61,46272,46336
75,57,46336,46400
80,68,46400,46464
79,60,46464,46528
78,60,46528,46592
72,57,46592,46655
67,57,46592,46655
63,57,46592,46655
79,59,46592,46656
78,54,46656,46720
77,56,46720,46784
76,57,46784,46848
72,56,46848,46911
68,56,46848,46911
65,56,46848,46911
75,59,46848,46912
76,59,46912,46976
77,67,46976,47040
78,65,47040,47091
79,61,47104,47168
72,56,47104,47232
67,56,47104,47232
63,56,47104,47232
78,58,47168,47232
77,58,47232,47296
76,58,47296,47360
77,63,47360,47424
68,50,47360,47488
65,50,47360,47488
59,50,47360,47488
76,56,47424,47488
75,54,47488,47552
74,55,47552,47616
75,59,47616,47680
67,54,47616,47744
63,54,47616,47744
60,54,47616,47744
76,62,47680,47744
77,59,47744,47808
78,65,47808,47872
77,55,47872,47936
62,57,47872,48000
58,57,47872,48000
78,66,47936,48000
79,67,48000,48064
80,66,48064,48115
81,61,48128,48192
67,54,48128,48256
61,54,48128,48256
57,54,48128,48256
80,59,48192,48256
79,58,48256,48320
78,55,48320,48384
79,61,48384,48448
78,57,48448,48512
77,57,48512,48576
76,55,48576,48640
77,67,48640,48704
76,56,48704,48768
75,59,48768,48832
69,78,48384,48896
74,53,48832,48896
69,61,48896,48959
73,55,48896,48960
72,59,48960,49024
71,60,49024,49088
70,54,49088,49139
69,51,49152,49215
69,0,-1,49216
70,60,49216,49280
69,56,49280,49344
68,55,49344,49408
69,52,49408,49471
69,0,-1,49472
70,64,49472,49536
65,54,49536,49599
69,56,49536,49600
68,58,49600,49664
62,49,49664,49727
69,66,49664,49728
70,61,49728,49792
58,53,49792,49855
69,55,49792,49856
68,56,49856,49920
62,67,49920,49983
69,60,49920,49984
70,65,49984,50048
65,67,50048,50111
69,59,50048,50112
68,60,50112,50163
69,68,50176,50239
69,0,-1,50240
70,68,50240,50304
69,60,50304,50368
68,60,50368,50432
69,57,50432,50495
57,57,50432,50495
69,0,-1,50496
70,60,50496,50560
65,54,50560,50623
53,54,50560,50623
69,61,50560,50624
68,53,50624,50688
62,54,50688,50751
50,54,50688,50751
69,63,50688,50752
70,64,50752,50816
58,53,50816,50879
46,53,50816,50879
69,60,50816,50880
68,58,50880,50944
62,67,50944,51007
50,67,50944,51007
69,62,50944,51008
70,63,51008,51072
65,67,51072,51135
53,67,51072,51135
69,60,51072,51136
68,59,51136,51187
69,65,51200,51263
57,65,51200,51263
69,0,-1,51264
68,55,51264,51328
67,57,51328,51392
66,57,51392,51456
67,66,51456,51520
66,60,51520,51584
65,58,51584,51648
64,55,51648,51712
65,63,51712,51776
64,58,51776,51840
63,58,51840,51904
62,60,51904,51968
61,53,51968,52032
60,55,52032,52096
59,57,52096,52160
58,60,52160,52211
57,60,52224,52288
58,58,52288,52352
57,63,52352,52416
56,58,52416,52480
57,52,52480,52543
45,52,52480,52543
57,0,-1,52544
58,63,52544,52608
53,62,52608,52671
41,62,52608,52671
57,58,52608,52672
56,54,52672,52736
50,56,52736,52799
38,56,52736,52799
57,58,52736,52800
58,65,52800,52864
46,57,52864,52927
34,57,52864,52927
57,59,52864,52928
56,55,52928,52992
50,65,52992,53055
38,65,52992,53055
57,65,52992,53056
58,62,53056,53120
53,64,53120,53183
41,64,53120,53183
57,60,53120,53184
56,58,53184,53235
57,66,53248,53312
57,0,-1,53375
45,66,53248,53375
58,57,53312,53376
57,59,53376,53440
56,57,53440,53504
69,78,53504,53567
57,61,53504,53568
58,62,53568,53632
65,54,53632,53695
57,60,53632,53696
56,54,53696,53760
62,52,53760,53823
57,60,53760,53824
58,62,53824,53888
58,55,53888,53951
57,59,53888,53952
56,64,53952,54016
62,66,54016,54079
57,65,54016,54080
58,62,54080,54144
65,65,54144,54207
57,55,54144,54208
56,57,54208,54259
57,61,54272,54336
58,66,54336,54400
59,62,54400,54464
60,71,54464,54528
61,64,54528,54592
62,66,54592,54656
63,62,54656,54720
69,67,54272,54784
64,69,54720,54784
65,59,54784,54848
66,63,54848,54912
67,62,54912,54976
68,65,54976,55040
69,61,55040,55104
70,63,55104,55168
71,67,55168,55232
72,66,55232,55283
73,60,55296,55360
74,60,55360,55424
75,59,55424,55488
81,80,54784,55552
69,0,-1,55552
76,58,55488,55552
77,57,55552,55616
78,56,55616,55680
79,55,55680,55744
69,57,55552,55808
57,57,55552,55808
80,54,55744,55808
81,53,55808,55872
82,52,55872,55936
81,51,55936,56000
80,50,56000,56064
81,50,56064,56128
82,49,56128,56192
81,47,56192,56243
57,53,55808,56320
80,46,56256,56320
81,83,56320,56384
77,83,56320,56384
74,83,56320,56384
50,74,56320,56448
38,74,56320,56448
80,75,56384,56448
79,75,56448,56512
78,80,56512,56576
77,76,56576,56640
82,99,56640,56704
81,81,56704,56768
80,85,56768,56832
81,84,56832,56896
50,74,56832,56960
38,74,56832,56960
80,81,56896,56960
79,76,56960,57024
78,79,57024,57088
77,78,57088,57152
62,73,57088,57216
59,73,57088,57216
55,73,57088,57216
78,85,57152,57216
79,88,57216,57280
80,86,57280,57331
81,93,57344,57408
77,93,57344,57408
74,93,57344,57408
50,55,57344,57472
38,55,57344,57472
80,80,57408,57472
79,77,57472,57536
78,79,57536,57600
77,77,57600,57664
82,96,57664,57728
81,79,57728,57792
80,80,57792,57856
81,84,57856,57920
50,53,57856,57984
38,53,57856,57984
80,80,57920,57984
79,83,57984,58048
78,83,58048,58112
77,80,58112,58176
62,54,58112,58240
59,54,58112,58240
55,54,58112,58240
78,89,58176,58240
79,87,58240,58304
80,89,58304,58355
81,91,58368,58432
57,54,58368,58496
53,54,58368,58496
50,54,58368,58496
80,82,58432,58496
79,80,58496,58560
78,77,58560,58624
79,90,58624,58688
55,54,58624,58752
50,54,58624,58752
46,54,58624,58752
78,79,58688,58752
77,77,58752,58816
76,72,58816,58880
77,87,58880,58944
53,52,58880,59008
50,52,58880,59008
45,52,58880,59008
78,89,58944,59008
79,89,59008,59072
80,90,59072,59136
81,88,59136,59200
57,55,59136,59264
55,55,59136,59264
52,55,59136,59264
49,55,59136,59264
82,87,59200,59264
81,80,59264,59328
80,79,59328,59379
81,85,59392,59456
57,54,59392,59520
53,54,59392,59520
50,54,59392,59520
80,83,59456,59520
79,79,59520,59584
78,80,59584,59648
79,88,59648,59712
55,55,59648,59776
50,55,59648,59776
46,55,59648,59776
78,79,59712,59776
77,80,59776,59840
76,83,59840,59904
77,91,59904,59968
53,52,59904,60032
50,52,59904,60032
45,52,59904,60032
78,88,59968,60032
79,86,60032,60096
80,90,60096,60160
81,89,60160,60224
57,52,60160,60288
55,52,60160,60288
52,52,60160,60288
49,52,60160,60288
83,91,60224,60288
84,91,60288,60352
85,84,60352,60403
86,84,60416,60480
60,56,60416,60544
54,56,60416,60544
50,56,60416,60544
85,76,60480,60544
84,75,60544,60608
83,80,60608,60672
82,78,60672,60736
62,55,60672,60800
55,55,60672,60800
87,91,60736,60800
86,82,60800,60864
85,83,60864,60928
86,88,60928,60992
62,53,60928,61056
58,53,60928,61056
55,53,60928,61056
85,78,60992,61056
84,78,61056,61120
83,74,61120,61184
82,74,61184,61248
60,57,61184,61312
55,57,61184,61312
52,57,61184,61312
83,87,61248,61312
84,87,61312,61376
85,89,61376,61427
86,87,61440,61504
62,59,61440,61568
58,59,61440,61568
55,59,61440,61568
85,80,61504,61568
84,78,61568,61632
83,76,61632,61696
82,79,61696,61760
87,91,61760,61824
86,81,61824,61888
85,81,61888,61952
86,85,61952,62016
62,58,61952,62080
58,58,61952,62080
55,58,61952,62080
85,82,62016,62080
84,81,62080,62144
83,78,62144,62208
82,80,62208,62272
60,54,62208,62336
55,54,62208,62336
52,54,62208,62336
83,85,62272,62336
84,88,62336,62400
85,89,62400,62451
86,89,62464,62528
62,54,62464,62592
58,54,62464,62592
55,54,62464,62592
85,77,62528,62592
84,80,62592,62656
83,81,62656,62720
84,86,62720,62784
60,57,62720,62848
55,57,62720,62848
51,57,62720,62848
83,79,62784,62848
82,76,62848,62912
81,79,62912,62976
82,86,62976,63040
58,53,62976,63104
55,53,62976,63104
50,53,62976,63104
83,87,63040,63104
84,88,63104,63168
85,85,63168,63232
86,87,63232,63296
57,51,63232,63360
54,51,63232,63360
50,51,63232,63360
48,51,63232,63360
87,85,63296,63360
86,81,63360,63424
85,76,63424,63475
86,88,63488,63552
55,59,63488,63616
50,59,63488,63616
46,59,63488,63616
85,83,63552,63616
84,80,63616,63680
83,79,63680,63744
82,77,63744,63808
62,51,63744,63872
58,51,63744,63872
55,51,63744,63872
83,86,63808,63872
84,86,63872,63936
85,83,63936,64000
86,64,64000,64064
62,59,64000,64128
57,59,64000,64128
53,59,64000,64128
88,88,64064,64128
89,82,64128,64192
91,87,64192,64256
93,87,64256,64320
61,59,64256,64384
55,59,64256,64384
52,59,64256,64384
94,87,64320,64384
93,84,64384,64448
92,83,64448,64499
57,79,64512,64575
53,79,64512,64575
50,79,64512,64575
93,101,64512,64576
92,93,64576,64640
62,93,64640,64703
57,93,64640,64703
53,93,64640,64703
91,91,64640,64704
90,90,64704,64768
89,91,64768,64832
94,108,64832,64896
93,92,64896,64960
92,93,64960,65024
93,102,65024,65088
57,58,65024,65152
53,58,65024,65152
50,58,65024,65152
92,89,65088,65152
91,91,65152,65216
90,91,65216,65280
89,91,65280,65344
55,58,65280,65408
50,58,65280,65408
47,58,65280,65408
90,108,65344,65408
91,106,65408,65472
92,105,65472,65523
57,113,65536,65599
53,113,65536,65599
50,113,65536,65599
93,99,65536,65600
92,88,65600,65664
62,127,65664,65727
57,127,65664,65727
53,127,65664,65727
91,92,65664,65728
90,94,65728,65792
89,89,65792,65856
94,110,65856,65920
93,95,65920,65984
92,90,65984,66048
93,103,66048,66112
57,88,66048,66176
53,88,66048,66176
50,88,66048,66176
92,95,66112,66176
91,90,66176,66240
90,91,66240,66304
89,92,66304,66368
55,88,66304,66432
50,88,66304,66432
47,88,66304,66432
90,102,66368,66432
91,107,66432,66496
92,102,66496,66560
93,107,66560,66662
57,85,66560,66688
53,85,66560,66688
50,85,66560,66688
85,66,66688,66752
86,89,66752,66816
74,89,66816,66879
87,90,66816,66880
88,92,66880,66944
70,85,66944,67007
89,88,66944,67008
90,95,67008,67072
67,87,67072,67135
91,91,67072,67136
90,77,67136,67200
64,87,67200,67263
89,79,67200,67264
88,83,67264,67328
67,98,67328,67391
89,86,67328,67392
88,82,67392,67456
70,106,67456,67519
87,80,67456,67520
86,81,67520,67571
74,113,67584,67647
85,81,67584,67648
86,88,67648,67712
87,88,67712,67776
88,87,67776,67840
89,85,67840,67904
90,85,67904,67968
91,93,67968,68032
92,87,68032,68096
69,90,68096,68159
67,90,68096,68159
61,90,68096,68159
57,90,68096,68159
93,93,68096,68160
94,86,68160,68224
93,78,68224,68288
92,78,68288,68352
93,87,68352,68416
94,82,68416,68480
93,79,68480,68544
92,77,68544,68608
105,102,68608,68710
65,87,68608,68736
62,87,68608,68736
73,60,68736,68800
74,85,68800,68864
98,88,68864,68927
75,89,68864,68928
76,86,68928,68992
94,87,68992,69055
77,86,68992,69056
78,87,69056,69120
91,85,69120,69183
79,90,69120,69184
78,79,69184,69248
88,85,69248,69311
77,81,69248,69312
76,78,69312,69376
91,105,69376,69439
77,88,69376,69440
76,79,69440,69504
94,105,69504,69567
75,78,69504,69568
74,75,69568,69619
98,108,69632,69695
73,79,69632,69696
74,86,69696,69760
75,85,69760,69824
76,88,69824,69888
77,85,69888,69952
78,94,69952,70016
79,87,70016,70080
80,91,70080,70144
69,91,70144,70207
67,91,70144,70207
61,91,70144,70207
57,91,70144,70207
81,90,70144,70208
82,89,70208,70272
81,80,70272,70336
80,77,70336,70400
81,82,70400,70464
83,91,70464,70528
84,87,70528,70592
85,88,70592,70643
86,100,70656,70720
69,89,70656,70784
65,89,70656,70784
62,89,70656,70784
85,99,70720,70784
84,95,70784,70848
83,89,70848,70912
84,99,70912,70976
74,85,70912,71040
72,85,70912,71040
66,85,70912,71040
62,85,70912,71040
83,97,70976,71040
82,89,71040,71104
81,90,71104,71168
82,101,71168,71232
70,89,71168,71296
67,89,71168,71296
62,89,71168,71296
81,89,71232,71296
80,89,71296,71360
79,91,71360,71411
78,89,71424,71488
77,94,71488,71552
76,90,71552,71616
75,88,71616,71680
74,80,71680,71744
57,72,71680,71808
53,72,71680,71808
50,72,71680,71808
73,78,71744,71808
72,78,71808,71872
71,79,71872,71936
72,87,71936,72000
57,75,71936,72064
54,75,71936,72064
50,75,71936,72064
71,80,72000,72064
70,79,72064,72128
69,85,72128,72179
70,83,72192,72256
58,72,72192,72320
55,72,72192,72320
50,72,72192,72320
69,80,72256,72320
68,77,72320,72384
67,81,72384,72448
66,77,72448,72512
65,83,72512,72576
64,77,72576,72640
63,81,72640,72704
62,81,72704,72768
57,77,72704,72832
53,77,72704,72832
50,77,72704,72832
63,85,72768,72832
62,81,72832,72896
61,81,72896,72960
63,98,72960,73024
61,98,72960,73024
62,88,73024,73088
63,95,73088,73152
61,95,73088,73152
75,123,73152,73216
62,73,73216,73280
63,96,73280,73344
62,90,73344,73408
61,90,73344,73408
64,100,73408,73472
62,94,73472,73536
60,94,73472,73536
65,99,73536,73600
62,95,73600,73664
58,95,73600,73664
67,108,73664,73728
57,84,73728,73792
53,84,73728,73792
50,84,73728,73792
69,77,73728,73792
70,88,73792,73856
69,80,73856,73920
68,83,73920,73984
70,111,73984,74048
68,111,73984,74048
81,108,74048,74112
69,108,74048,74112
70,89,74112,74176
68,89,74112,74176
82,115,74176,74240
69,77,74240,74304
81,78,74240,74304
70,98,74304,74368
69,78,74368,74432
67,78,74368,74432
83,105,74432,74496
71,105,74432,74496
69,64,74496,74560
65,64,74496,74560
84,101,74560,74624
72,101,74560,74624
69,65,74624,74688
67,65,74624,74688
64,65,74624,74688
85,107,74688,74752
73,107,74688,74752
69,84,74752,74880
65,84,74752,74880
62,84,74752,74880
86,86,74752,74880
74,86,74752,74880
57,45,75008,75072
58,47,75072,75136
59,48,75136,75200
60,55,75200,75264
61,51,75264,75328
62,49,75328,75392
63,56,75392,75456
64,51,75456,75520
65,55,75520,75584
66,52,75584,75648
67,53,75648,75712
68,53,75712,75763
69,44,75776,75840
69,0,-1,75904
65,44,75776,75904
62,44,75776,75904
70,52,75840,75904
71,57,75904,75968
72,51,75968,76032
73,48,76032,76096
74,53,76096,76160
75,52,76160,76224
76,54,76224,76288
77,51,76288,76352
81,51,76288,76416
74,51,76288,76416
69,51,76288,76416
78,57,76352,76416
79,52,76416,76480
80,53,76480,76544
81,53,76544,76608
83,54,76608,76672
84,57,76672,76736
85,57,76736,76787
69,44,76800,76928
65,44,76800,76928
86,62,76800,77312
81,62,76800,77312
77,62,76800,77312
69,43,77312,77439
65,43,77312,77439
62,43,77312,77439
98,64,77312,77824
93,64,77312,77824
89,64,77312,77824
86,64,77312,77824
50,45,77824,78080
38,45,77824,78080
74,42,77824,78080
62,42,77824,78080
256,144,0,0
