pitch,velocity,start,end
71,64,0,113
73,64,120,233
68,64,240,467
71,64,240,467
75,64,240,467
71,64,480,593
68,64,600,941
73,64,960,1187
63,64,1200,1427
66,64,1200,1427
70,64,1200,1427
66,64,1440,1553
63,64,1560,1901
70,64,1920,2147
59,64,2160,2387
64,64,2160,2387
68,64,2160,2387
66,64,2400,2513
59,64,2520,2861
66,64,2880,3107
54,64,3120,3803
59,64,3120,3803
63,64,3120,3803
61,64,3840,3953
63,64,3960,4073
56,64,4080,4535
59,64,4080,4535
64,64,4080,4535
71,64,4560,4787
70,64,4800,4913
71,64,4920,5033
59,64,5040,5495
63,64,5040,5495
66,64,5040,5495
64,64,5520,5747
63,64,5760,5873
64,64,5880,5993
56,64,6000,6455
59,64,6000,6455
65,64,6000,6455
71,64,6480,6707
70,64,6720,6833
68,64,6840,6953
58,64,6960,7643
63,64,6960,7643
67,64,6960,7643
71,64,7680,7793
73,64,7800,7913
68,64,7920,8147
71,64,7920,8147
75,64,7920,8147
71,64,8160,8273
68,64,8280,8621
73,64,8640,8867
66,64,8943,9118
70,64,9007,9118
63,64,8880,9119
66,64,9120,9233
63,64,9240,9581
70,64,9600,9827
59,64,9840,10067
64,64,9840,10067
68,64,9840,10067
66,64,10080,10193
59,64,10200,10541
66,64,10560,10787
54,64,10800,11280
59,64,10800,11483
63,64,10800,11483
61,64,11520,11633
63,64,11640,11753
56,64,11760,12215
59,64,11760,12215
64,64,11760,12215
66,64,12240,12467
64,64,12480,12593
66,64,12600,12713
54,64,12720,12947
59,64,12720,12947
63,64,12720,12947
66,64,12960,13187
71,64,13200,13427
75,64,13440,13667
68,64,13743,14038
73,64,13807,14038
64,64,13680,14039
73,64,14040,14153
73,64,14160,14501
71,64,14520,14633
63,64,14640,15551
66,64,14640,15551
71,64,14640,15551
71,64,17280,17393
73,64,17400,17513
68,64,17520,17747
71,64,17520,17747
75,64,17520,17747
71,64,17760,17873
68,64,17880,18221
73,64,18240,18467
63,64,18480,18707
66,64,18480,18707
70,64,18480,18707
66,64,18720,18833
63,64,18840,19181
70,64,19200,19427
59,64,19440,19667
64,64,19440,19667
68,64,19440,19667
66,64,19680,19793
59,64,19800,20141
66,64,20160,20387
54,64,20400,20880
59,64,20400,21083
63,64,20400,21083
61,64,21120,21233
63,64,21240,21353
56,64,21360,21815
59,64,21360,21815
64,64,21360,21815
71,64,21840,22067
70,64,22080,22193
71,64,22200,22313
59,64,22320,22775
63,64,22320,22775
66,64,22320,22775
64,64,22800,23027
63,64,23040,23153
64,64,23160,23273
56,64,23280,23735
59,64,23280,23735
65,64,23280,23735
71,64,23760,23987
70,64,24000,24113
68,64,24120,24233
58,64,24240,24923
63,64,24240,24923
67,64,24240,24923
71,64,24960,25073
73,64,25080,25193
68,64,25200,25427
71,64,25200,25427
75,64,25200,25427
71,64,25440,25553
68,64,25560,25901
73,64,25920,26147
63,64,26160,26387
66,64,26160,26387
70,64,26160,26387
66,64,26400,26513
63,64,26520,26861
70,64,26880,27107
59,64,27120,27347
64,64,27120,27347
68,64,27120,27347
66,64,27360,27473
59,64,27480,27821
66,64,27840,28067
54,64,28080,28560
59,64,28080,28763
63,64,28080,28763
61,64,28800,28913
63,64,28920,29033
56,64,29040,29495
59,64,29040,29495
64,64,29040,29495
66,64,29520,29747
64,64,29760,29873
66,64,29880,29993
54,64,30000,30227
59,64,30000,30227
63,64,30000,30227
66,64,30240,30467
71,64,30480,30707
75,64,30720,30947
63,64,30960,31073
67,64,30960,31073
73,64,30960,31073
73,64,31080,31421
63,61,31440,31781
67,61,31440,31781
73,61,31440,31781
71,58,31800,31913
63,57,31920,32831
68,57,31920,32831
71,57,31920,32831
61,49,32880,33221
64,49,32880,33221
68,49,32880,33221
70,49,33240,33353
71,49,33360,33587
70,49,33600,33713
68,49,33720,33833
59,49,33840,34067
66,49,33840,34067
75,49,34080,34307
75,49,34320,34775
66,49,34800,35141
70,49,34800,35141
73,49,34800,35141
75,49,35160,35273
76,49,35280,35507
75,49,35520,35633
73,49,35640,35753
63,49,35760,35987
66,49,35760,35987
71,49,35760,35987
73,49,36000,36227
66,49,36240,36695
61,49,36720,37061
64,49,36720,37061
66,52,37080,37193
68,54,37200,37427
66,56,37440,37553
64,58,37560,37673
59,59,37680,37907
63,59,37680,37907
71,61,37920,38147
71,64,38160,38387
71,67,38400,38627
59,69,38640,38867
64,69,38640,38867
70,69,38640,39095
61,74,39120,39347
66,74,39120,39347
68,74,39120,39347
70,77,39360,39587
63,80,39600,40055
66,80,39600,40055
71,80,39600,40055
73,80,40080,40231
75,80,40240,40315
73,80,40320,40471
71,80,40480,40555
59,80,40560,40711
64,80,40560,40711
68,80,40560,40711
71,80,40720,41023
68,80,41040,41191
71,80,41040,41191
75,80,41040,41191
78,80,41200,41503
63,80,41520,41671
66,80,41520,41671
73,80,41520,41671
71,80,41680,41983
63,80,42000,42151
66,80,42000,42151
73,80,42000,42151
75,80,42160,42235
73,80,42240,42391
71,80,42400,42475
58,80,42480,42631
61,80,42480,42631
68,80,42480,42631
71,80,42640,42943
66,80,42960,43111
70,80,42960,43111
75,80,42960,43111
78,80,43120,43423
63,80,43440,43591
68,80,43440,43591
73,80,43440,43591
71,80,43600,43903
63,80,43920,44071
68,80,43920,44071
73,80,43920,44071
75,80,44080,44155
73,80,44160,44311
71,80,44320,44395
59,80,44400,44551
64,80,44400,44551
68,80,44400,44551
71,80,44560,44863
68,80,44880,45031
71,80,44880,45031
75,80,44880,45031
78,80,45040,45343
71,80,45360,45511
75,80,45360,45511
80,80,45360,45511
78,80,45520,45823
71,80,45840,45991
75,80,45840,45991
78,80,45840,45991
83,80,46000,46303
70,80,46320,46471
73,80,46320,46471
82,80,46320,46471
78,80,46480,46783
66,80,46800,46951
70,80,46800,46951
75,80,46800,46951
78,80,46960,47263
63,80,47280,47735
67,80,47280,47735
73,80,47280,47735
63,80,47760,47911
67,80,47760,47911
73,80,47760,47911
75,80,47920,47995
73,80,48000,48151
71,80,48160,48235
59,80,48240,48391
64,80,48240,48391
68,80,48240,48391
71,80,48400,48703
68,80,48720,48871
71,80,48720,48871
75,80,48720,48871
78,80,48880,49183
63,80,49200,49351
66,80,49200,49351
73,80,49200,49351
71,80,49360,49587
71,80,49600,49675
71,80,49680,49831
71,80,49840,49915
73,80,49920,50071
75,80,50080,50155
66,80,50160,50311
70,80,50160,50311
76,80,50160,50311
75,80,50320,50623
63,80,50640,50791
67,80,50640,50791
73,80,50640,50791
70,80,50800,51103
63,80,51120,51803
68,80,51120,51803
71,80,51120,51803
71,80,51840,51991
70,80,52000,52075
61,80,52080,52307
64,80,52080,52307
68,80,52080,52307
70,80,52320,52547
71,80,52560,52787
73,80,52800,53027
63,80,53040,53267
68,80,53040,53267
71,80,53040,53267
66,80,53280,53507
59,80,53520,53671
63,80,53520,53671
66,80,53680,53983
59,80,54000,54151
64,80,54000,54151
68,80,54000,54151
73,80,54160,54463
61,80,54480,54631
66,80,54480,54631
70,80,54480,54631
71,80,54640,54943
63,80,54960,55643
68,80,54960,55643
71,80,54960,55643
71,80,55680,55831
70,80,55840,55915
61,80,55920,56147
64,80,55920,56147
68,80,55920,56147
70,80,56160,56387
71,80,56400,56627
73,80,56640,56867
63,80,56880,57107
68,80,56880,57107
71,80,56880,57107
66,80,57120,57347
63,80,57360,57511
68,80,57360,57511
71,80,57360,57511
73,80,57520,57823
64,80,57840,57991
68,80,57840,57991
75,80,57840,57991
76,80,58000,58303
66,80,58320,58471
70,80,58320,58471
73,80,58320,58471
71,80,58480,58783
63,80,58800,59255
66,80,58800,59255
71,80,58800,59255
78,64,59280,59507
71,64,59520,59747
59,64,59760,60215
63,64,59760,60215
73,64,59760,60215
78,64,60240,60467
71,64,60480,60707
58,64,60720,60947
61,64,60720,60947
71,64,60720,60947
73,64,60960,61187
78,64,61200,61427
71,64,61440,61667
56,64,61680,61907
59,64,61680,61907
66,64,61680,61907
73,64,61920,62147
78,64,62160,62387
71,64,62400,62627
59,64,62640,62867
63,64,62640,62867
71,64,62640,62867
73,64,62880,63107
75,64,63120,63347
71,64,63360,63587
56,64,63600,63827
59,64,63600,63827
66,64,63600,63827
73,64,63840,64067
78,64,64080,64307
71,64,64320,64547
59,64,64560,64787
63,64,64560,64787
71,64,64560,64787
73,64,64800,65027
75,64,65040,65267
71,64,65280,65507
53,64,65520,65760
56,64,65520,65975
59,64,65520,65975
71,64,66000,66455
63,64,66480,66935
67,64,66480,66935
73,64,66480,66935
70,64,66960,67187
71,64,67200,67313
73,64,67320,67433
68,64,67440,67667
71,64,67440,67667
75,64,67440,67667
71,64,67680,67793
68,64,67800,68141
73,64,68160,68387
63,64,68400,68627
66,64,68400,68627
70,64,68400,68627
66,64,68640,68753
63,64,68760,69101
70,64,69120,69347
59,64,69360,69587
64,64,69360,69587
68,64,69360,69587
66,64,69600,69713
59,64,69720,70061
66,64,70080,70307
54,64,70320,71003
59,64,70320,71003
63,64,70320,71003
61,64,71040,71153
63,64,71160,71273
56,64,71280,71735
59,64,71280,71735
64,64,71280,71735
71,64,71760,71987
70,64,72000,72113
71,64,72120,72233
59,64,72240,72695
63,64,72240,72695
66,64,72240,72695
64,64,72720,72947
63,64,72960,73073
64,64,73080,73193
56,64,73200,73655
59,64,73200,73655
65,64,73200,73655
71,64,73680,73907
70,64,73920,74033
68,64,74040,74153
58,64,74160,74843
63,64,74160,74843
67,64,74160,74843
71,64,74880,74993
73,64,75000,75113
68,64,75120,75347
71,64,75120,75347
75,64,75120,75347
71,64,75360,75473
68,64,75480,75821
73,64,75840,76067
63,64,76080,76307
66,64,76080,76307
70,64,76080,76307
66,64,76320,76433
63,64,76440,76781
70,64,76800,77027
59,64,77040,77267
64,64,77040,77267
68,64,77040,77267
66,64,77280,77393
59,64,77400,77741
66,64,77760,77987
54,64,78000,78683
59,64,78000,78683
63,64,78000,78683
61,64,78720,78833
63,64,78840,78953
56,64,78960,79415
59,64,78960,79415
64,64,78960,79415
66,64,79440,79667
64,64,79680,79793
66,64,79800,79913
54,64,79920,80147
59,64,79920,80147
63,64,79920,80147
66,64,80160,80387
71,64,80400,80627
75,64,80640,80867
63,64,80880,80993
67,64,80880,80993
73,64,80880,80993
73,64,81000,81341
63,64,81360,81701
67,64,81360,81701
73,64,81360,81701
71,64,81720,81833
63,64,81840,82751
68,64,81840,82751
71,64,81840,82751
61,64,82800,83141
64,64,82800,83141
68,64,82800,83141
70,64,83160,83273
71,64,83280,83507
70,64,83520,83633
68,64,83640,83753
59,64,83760,83987
66,64,83760,83987
75,64,84000,84227
75,64,84240,84695
66,64,84720,85061
70,64,84720,85061
73,64,84720,85061
75,64,85080,85193
76,64,85200,85427
75,64,85440,85553
73,64,85560,85673
63,64,85680,85907
66,64,85680,85907
71,64,85680,85907
73,64,85920,86147
66,64,86160,86615
61,64,86640,86981
64,64,86640,86981
66,64,87000,87113
68,64,87120,87347
66,64,87360,87473
64,64,87480,87593
59,64,87600,87827
63,64,87600,87827
71,64,87840,88067
71,64,88080,88307
71,64,88320,88547
59,64,88560,88787
64,64,88560,88787
70,64,88560,89015
61,64,89040,89267
66,64,89040,89267
68,64,89040,89267
70,64,89280,89507
63,64,89520,89975
66,64,89520,89975
71,64,89520,89975
73,80,90000,90151
75,80,90160,90235
73,80,90240,90391
71,80,90400,90475
59,80,90480,90631
64,80,90480,90631
68,80,90480,90631
71,80,90640,90943
68,80,90960,91111
71,80,90960,91111
75,80,90960,91111
78,80,91120,91423
63,80,91440,91591
66,80,91440,91591
73,80,91440,91591
71,80,91600,91903
63,80,91920,92071
66,80,91920,92071
73,80,91920,92071
75,80,92080,92155
73,80,92160,92311
71,80,92320,92395
58,80,92400,92551
61,80,92400,92551
68,80,92400,92551
71,80,92560,92863
66,80,92880,93031
70,80,92880,93031
75,80,92880,93031
78,80,93040,93343
63,80,93360,93511
68,80,93360,93511
73,80,93360,93511
71,80,93520,93823
63,80,93840,93991
68,80,93840,93991
73,80,93840,93991
75,80,94000,94075
73,80,94080,94231
71,80,94240,94315
59,80,94320,94471
64,80,94320,94471
68,80,94320,94471
71,80,94480,94783
68,80,94800,94951
71,80,94800,94951
75,80,94800,94951
78,80,94960,95263
71,80,95280,95431
75,80,95280,95431
80,80,95280,95431
78,80,95440,95743
71,80,95760,95911
75,80,95760,95911
78,80,95760,95911
83,80,95920,96223
70,80,96240,96391
73,80,96240,96391
82,80,96240,96391
78,80,96400,96703
66,80,96720,96871
70,80,96720,96871
75,80,96720,96871
78,80,96880,97183
63,80,97200,97655
67,80,97200,97655
73,80,97200,97655
63,80,97680,97831
67,80,97680,97831
73,80,97680,97831
75,80,97840,97915
73,80,97920,98071
71,80,98080,98155
59,80,98160,98311
64,80,98160,98311
68,80,98160,98311
71,80,98320,98623
68,80,98640,98791
71,80,98640,98791
75,80,98640,98791
78,80,98800,99103
63,80,99120,99271
66,80,99120,99271
73,80,99120,99271
71,80,99280,99507
71,80,99520,99595
71,80,99600,99751
71,80,99760,99835
73,80,99840,99991
75,80,100000,100075
66,80,100080,100231
70,80,100080,100231
76,80,100080,100231
75,80,100240,100543
63,80,100560,100711
67,80,100560,100711
73,80,100560,100711
70,80,100720,101023
63,80,101040,101723
68,80,101040,101723
71,80,101040,101723
71,80,101760,101911
70,80,101920,101995
61,80,102000,102227
64,80,102000,102227
68,80,102000,102227
70,80,102240,102467
71,80,102480,102707
73,80,102720,102947
63,80,102960,103187
68,80,102960,103187
71,80,102960,103187
66,80,103200,103427
59,80,103440,103591
63,80,103440,103591
66,80,103600,103827
66,80,103840,103915
59,80,103920,104071
64,80,103920,104071
68,80,103920,104071
73,80,104080,104383
61,80,104400,104551
66,80,104400,104551
70,80,104400,104551
71,80,104560,104863
63,80,104880,105563
68,80,104880,105563
71,80,104880,105563
71,80,105600,105751
70,80,105760,105835
61,80,105840,106067
64,80,105840,106067
68,80,105840,106067
70,80,106080,106307
71,80,106320,106547
73,80,106560,106787
63,80,106800,107027
68,80,106800,107027
71,80,106800,107027
66,80,107040,107267
63,80,107280,107431
68,80,107280,107431
71,80,107280,107431
73,80,107440,107743
64,80,107760,107911
68,80,107760,107911
75,80,107760,107911
76,80,107920,108223
66,80,108240,108391
70,80,108240,108391
73,80,108240,108391
71,80,108400,108703
63,80,108720,109631
66,80,108720,109631
71,80,108720,109631
63,49,109680,110135
66,49,109680,110135
71,49,109680,110135
66,52,110160,110615
71,52,110160,110615
75,52,110160,110615
71,56,110640,111095
75,56,110640,111095
83,56,110640,111095
75,60,111120,111575
79,60,111120,111575
87,60,111120,111575
68,64,111600,112055
72,64,111600,112055
75,64,112080,112535
65,64,112560,113015
68,64,112560,113015
77,64,112560,113015
75,64,113040,113495
67,64,113520,113975
70,64,113520,113975
73,64,114000,114227
72,64,114240,114467
68,64,114480,115391
72,64,114480,115391
65,64,115440,115895
68,64,115440,115895
72,64,115920,116375
68,64,116400,116855
73,64,116400,116855
72,64,116880,117335
67,64,117360,117815
70,64,117360,117815
67,64,117840,118295
68,64,118320,119231
65,64,119280,119735
68,64,119280,119735
75,64,119760,120215
65,64,120240,120695
68,64,120240,120695
77,64,120240,120695
75,64,120720,121175
67,64,121200,121655
70,64,121200,121655
73,64,121680,121907
72,64,121920,122147
68,64,122160,123071
72,64,122160,123071
65,64,123120,123575
68,64,123120,123575
72,64,123600,124055
68,64,124080,124535
73,64,124080,124535
72,64,124560,125015
67,64,125040,125495
70,64,125040,125495
67,64,125520,125975
68,64,126000,126455
65,64,126600,126713
67,64,126720,126833
68,64,126840,126953
65,64,126960,127415
68,64,126960,127415
75,64,127440,127895
65,64,127920,128375
68,64,127920,128375
77,64,127920,128375
75,64,128400,128627
70,64,128640,128867
67,64,128880,129335
70,64,128880,129335
73,64,129360,129587
72,64,129600,129827
68,64,129840,130751
72,64,129840,130751
65,64,130800,131255
68,64,130800,131255
72,64,131280,131735
68,64,131760,132215
73,64,131760,132215
72,64,132240,132695
67,64,132720,133175
70,64,132720,133175
67,64,133200,133655
68,64,133680,134135
65,64,134400,134513
67,64,134520,134633
65,64,134640,135095
68,64,134640,135095
75,64,135120,135575
65,64,135600,136055
68,64,135600,136055
77,64,135600,136055
75,64,136080,136535
70,64,136560,137015
75,64,136560,137015
79,64,136560,137015
79,64,137040,137267
80,64,137280,137507
72,64,137520,138431
75,64,137520,138431
80,64,137520,138431
72,64,138480,138935
77,64,138480,138935
80,64,138480,138935
75,64,138960,139415
63,64,139440,139895
68,64,139440,139895
73,64,139440,139895
72,64,139920,140375
70,64,140400,140855
71,64,140880,141335
70,64,141360,141815
68,64,141840,142295
77,64,142320,143231
80,64,142320,143231
85,64,142320,143231
77,80,143280,143507
80,80,143280,143507
85,80,143280,143507
79,84,143520,143747
87,84,143520,143747
80,88,143760,143987
88,88,143760,143987
82,92,144000,144227
90,92,144000,144227
88,96,144240,145607
95,96,144240,145607
61,96,145680,145831
73,96,145680,145831
63,96,145840,145915
75,96,145840,145915
61,96,145920,146071
73,96,145920,146071
59,96,146080,146155
71,96,146080,146155
59,96,146160,146311
64,96,146160,146311
68,96,146160,146311
59,96,146320,146623
71,96,146320,146623
68,96,146640,146791
71,96,146640,146791
75,96,146640,146791
66,96,146800,147103
78,96,146800,147103
63,96,147120,147271
66,96,147120,147271
73,96,147120,147271
59,96,147280,147583
71,96,147280,147583
63,96,147600,147751
66,96,147600,147751
73,96,147600,147751
63,96,147760,147835
75,96,147760,147835
61,96,147840,147991
73,96,147840,147991
59,96,148000,148075
71,96,148000,148075
58,96,148080,148231
61,96,148080,148231
68,96,148080,148231
59,96,148240,148543
71,96,148240,148543
66,96,148560,148711
70,96,148560,148711
75,96,148560,148711
66,96,148720,149023
78,96,148720,149023
63,96,149040,149191
68,96,149040,149191
73,96,149040,149191
59,96,149200,149503
71,96,149200,149503
63,96,149520,149671
68,96,149520,149671
73,96,149520,149671
63,96,149680,149755
75,96,149680,149755
61,96,149760,149911
73,96,149760,149911
59,96,149920,149995
71,96,149920,149995
59,96,150000,150151
64,96,150000,150151
68,96,150000,150151
59,96,150160,150463
71,96,150160,150463
68,96,150480,150631
71,96,150480,150631
75,96,150480,150631
66,96,150640,150943
78,96,150640,150943
71,96,150960,151111
75,96,150960,151111
80,96,150960,151111
66,96,151120,151423
78,96,151120,151423
71,96,151440,151591
75,96,151440,151591
78,96,151440,151591
71,96,151600,151903
83,96,151600,151903
70,96,151920,152071
73,96,151920,152071
82,96,151920,152071
66,96,152080,152383
78,96,152080,152383
66,96,152400,152551
70,96,152400,152551
75,96,152400,152551
66,96,152560,152863
78,96,152560,152863
63,96,152880,153335
67,96,152880,153335
73,96,152880,153335
63,96,153360,153511
67,96,153360,153511
73,96,153360,153511
63,96,153520,153595
75,96,153520,153595
61,96,153600,153751
73,96,153600,153751
59,96,153760,153835
71,96,153760,153835
59,96,153840,153991
64,96,153840,153991
68,96,153840,153991
59,96,154000,154303
71,96,154000,154303
68,96,154320,154471
71,96,154320,154471
75,96,154320,154471
66,96,154480,154783
78,96,154480,154783
63,96,154800,154951
66,96,154800,154951
73,96,154800,154951
59,96,154960,155187
71,96,154960,155187
59,96,155200,155275
71,96,155200,155275
59,96,155280,155431
71,96,155280,155431
59,96,155440,155515
71,96,155440,155515
61,96,155520,155671
73,96,155520,155671
63,96,155680,155755
75,96,155680,155755
66,96,155760,155911
70,96,155760,155911
76,96,155760,155911
63,96,155920,156223
75,96,155920,156223
63,96,156240,156391
67,96,156240,156391
73,96,156240,156391
58,96,156400,156703
70,96,156400,156703
63,96,156720,157403
68,96,156720,157403
71,96,156720,157403
59,96,157440,157591
71,96,157440,157591
58,96,157600,157675
70,96,157600,157675
61,96,157680,157907
64,96,157680,157907
68,96,157680,157907
58,96,157920,158147
70,96,157920,158147
59,96,158160,158387
71,96,158160,158387
61,96,158400,158627
73,96,158400,158627
63,96,158640,158867
68,96,158640,158867
71,96,158640,158867
54,96,158880,159107
66,96,158880,159107
59,96,159120,159271
63,96,159120,159271
54,96,159280,159507
66,96,159280,159507
54,96,159520,159595
66,96,159520,159595
59,96,159600,159751
64,96,159600,159751
68,96,159600,159751
61,96,159760,160063
73,96,159760,160063
61,96,160080,160231
66,96,160080,160231
70,96,160080,160231
59,96,160240,160543
71,96,160240,160543
63,96,160560,161243
68,96,160560,161243
71,96,160560,161243
59,96,161280,161431
71,96,161280,161431
58,96,161440,161515
70,96,161440,161515
56,96,161520,161747
61,96,161520,161747
64,96,161520,161747
68,96,161520,161747
58,96,161760,161987
70,96,161760,161987
59,96,162000,162227
71,96,162000,162227
61,96,162240,162467
73,96,162240,162467
63,96,162480,162707
68,96,162480,162707
71,96,162480,162707
54,96,162720,162947
66,96,162720,162947
51,96,162960,163111
59,96,162960,163111
63,96,162960,163111
51,96,163120,163423
59,96,163120,163423
63,96,163120,163423
56,96,163440,163591
59,96,163440,163591
66,96,163440,163591
59,96,163600,163903
71,96,163600,163903
58,96,163920,164071
66,96,163920,164071
71,96,163920,164071
66,96,164080,164383
78,96,164080,164383
66,96,164400,165083
71,96,164400,165083
75,96,164400,165083
63,96,165120,165271
75,96,165120,165271
61,96,165280,165355
73,96,165280,165355
61,96,165360,165587
64,96,165360,165587
71,96,165360,165587
61,96,165600,165827
73,96,165600,165827
63,96,165840,166067
75,96,165840,166067
64,96,166080,166307
76,96,166080,166307
68,96,166320,166547
71,96,166320,166547
75,96,166320,166547
71,96,166560,166787
66,96,166800,166951
59,96,166960,167263
71,96,166960,167263
64,96,167280,167431
68,96,167280,167431
73,96,167280,167431
63,96,167440,167743
75,96,167440,167743
66,96,167760,167911
70,96,167760,167911
73,96,167760,167911
59,96,167920,168223
71,96,167920,168223
64,96,168240,168695
66,96,168240,168695
71,96,168240,168695
71,49,168720,168871
73,49,168880,169183
78,49,168880,169183
71,49,169200,169351
73,49,169360,169663
78,49,169360,169663
71,49,169680,169831
73,49,169840,170143
78,49,169840,170143
71,49,170160,170311
73,49,170320,170623
78,49,170320,170623
71,49,170640,170791
73,49,170800,171103
78,49,170800,171103
44,64,240,1151
51,64,240,1151
42,64,1200,2111
51,64,1200,2111
40,64,2160,3071
47,64,2160,3071
42,64,3120,4031
47,64,3120,4031
40,64,4080,4991
35,64,5040,5951
47,64,5040,5951
38,64,6000,6911
50,64,6000,6911
39,64,6960,7415
51,64,6960,7415
41,64,7440,7895
44,64,7920,8147
56,64,7920,8147
51,64,8160,8387
56,64,8400,8627
51,64,8640,8867
42,64,8880,9107
54,64,8880,9107
51,64,9120,9347
54,64,9360,9587
51,64,9600,9827
40,64,9840,10067
52,64,9840,10067
47,64,10080,10307
56,64,10320,10547
52,64,10560,10787
35,64,10800,11027
47,64,10800,11027
47,64,11040,11267
54,64,11280,11507
51,64,11520,11747
40,64,11760,11987
52,64,11760,11987
47,64,12000,12227
56,64,12240,12467
52,64,12480,12707
35,64,12720,12947
47,64,12720,12947
47,64,12960,13187
54,64,13200,13427
51,64,13440,13667
42,64,13680,13907
54,64,13680,13907
49,64,13920,14147
54,64,14160,14387
49,64,14400,14627
35,64,14640,14867
47,64,14640,14867
49,64,14880,15107
54,64,15120,15347
47,64,15360,15587
44,64,17520,17747
56,64,17520,17747
51,64,17760,17987
56,64,18000,18227
51,64,18240,18467
42,64,18480,18707
54,64,18480,18707
51,64,18720,18947
54,64,18960,19187
51,64,19200,19427
40,64,19440,19667
52,64,19440,19667
47,64,19680,19907
56,64,19920,20147
52,64,20160,20387
35,64,20400,20627
47,64,20400,20627
47,64,20640,20867
54,64,20880,21107
51,64,21120,21347
40,64,21360,21587
52,64,21360,21587
47,64,21600,21827
56,64,21840,22067
52,64,22080,22307
35,64,22320,22547
47,64,22320,22547
47,64,22560,22787
54,64,22800,23027
51,64,23040,23267
38,64,23280,23507
50,64,23280,23507
50,64,23520,23747
53,64,23760,23987
50,64,24000,24227
39,64,24240,24467
51,64,24480,24707
39,64,24720,25175
44,64,25200,25427
56,64,25200,25427
51,64,25440,25667
56,64,25680,25907
51,64,25920,26147
42,64,26160,26387
54,64,26160,26387
51,64,26400,26627
54,64,26640,26867
51,64,26880,27107
40,64,27120,27347
52,64,27120,27347
47,64,27360,27587
56,64,27600,27827
52,64,27840,28067
35,64,28080,28307
47,64,28080,28307
47,64,28320,28547
54,64,28560,28787
51,64,28800,29027
40,64,29040,29267
52,64,29040,29267
47,64,29280,29507
56,64,29520,29747
52,64,29760,29987
35,64,30000,30227
47,64,30000,30227
47,64,30240,30467
54,64,30480,30707
51,64,30720,30947
43,64,30960,31415
55,64,30960,31415
46,61,31503,31918
55,61,31567,31918
39,61,31440,31919
44,57,31920,32375
51,57,31920,32375
56,57,31920,32375
51,53,32400,32627
56,51,32640,32867
49,49,32880,33791
56,49,32880,33791
44,49,33840,34751
51,49,33840,34751
42,49,34800,35711
49,49,34800,35711
35,49,35760,36671
47,49,35760,36671
49,49,36720,37631
56,49,36720,37631
44,59,37680,38591
51,59,37680,38591
40,69,38640,39095
47,69,38640,39095
42,74,39120,39575
49,74,39120,39575
35,80,39600,39751
47,80,39600,39751
35,80,39760,40063
47,80,39760,40063
40,80,40560,40939
52,80,40560,40939
40,80,40960,41035
52,80,40960,41035
52,80,41040,41267
40,80,41280,41431
52,80,41440,41515
35,80,41520,41671
47,80,41680,41755
35,80,41760,41987
47,80,42000,42227
35,80,42240,42391
47,80,42400,42475
42,80,42480,42859
54,80,42480,42859
42,80,42880,42955
54,80,42880,42955
54,80,42960,43187
42,80,43200,43351
54,80,43360,43435
32,80,43440,43591
44,80,43600,43675
32,80,43680,43907
44,80,43920,44147
32,80,44160,44311
44,80,44320,44395
40,80,44400,44779
52,80,44400,44779
40,80,44800,44875
52,80,44800,44875
52,80,44880,45107
40,80,45120,45271
52,80,45280,45355
35,80,45360,45511
47,80,45520,45595
35,80,45600,45827
47,80,45840,46067
35,80,46080,46231
47,80,46240,46315
42,80,46320,46699
54,80,46320,46699
42,80,46720,46795
54,80,46720,46795
54,80,46800,47027
42,80,47040,47191
54,80,47200,47275
39,80,47280,47431
51,80,47440,47515
39,80,47520,47747
51,80,47760,47987
39,80,48000,48227
40,80,48240,48619
52,80,48240,48619
40,80,48640,48715
52,80,48640,48715
52,80,48720,48947
40,80,48960,49111
52,80,49120,49195
35,80,49200,49351
47,80,49360,49435
35,80,49440,49667
47,80,49680,49907
35,80,49920,50071
47,80,50080,50155
34,80,50160,50615
46,80,50160,50615
39,80,50640,51095
51,80,50640,51095
32,80,51120,51347
32,80,51360,51511
32,80,51520,51595
44,80,51600,51827
32,80,51840,52067
37,80,52080,52307
37,80,52320,52547
49,80,52560,52787
37,80,52800,53027
32,80,53040,53267
32,80,53280,53507
44,80,53520,53747
32,80,53760,53987
40,80,54000,54455
52,80,54000,54455
42,80,54480,54935
54,80,54480,54935
41,80,54960,55187
44,80,55200,55351
49,80,55360,55435
53,80,55440,55667
41,80,55680,55907
37,80,55920,56147
37,80,56160,56387
49,80,56400,56627
37,80,56640,56867
32,80,56880,57107
32,80,57120,57347
44,80,57360,57587
32,80,57600,57827
40,80,57840,58295
52,80,57840,58295
42,80,58320,58775
54,80,58320,58775
35,80,58800,59255
47,80,58800,59255
44,64,59760,59987
56,64,59760,59987
54,64,60000,60227
63,64,60240,60467
54,64,60480,60707
42,64,60720,60947
54,64,60720,60947
54,64,60960,61187
61,64,61200,61427
54,64,61440,61667
40,64,61680,61907
52,64,61680,61907
54,64,61920,62147
61,64,62160,62387
54,64,62400,62627
35,64,62640,62867
47,64,62640,62867
54,64,62880,63107
63,64,63120,63347
59,64,63360,63587
40,64,63600,63827
52,64,63600,63827
54,64,63840,64067
61,64,64080,64307
54,64,64320,64547
35,64,64560,64787
47,64,64560,64787
54,64,64800,65027
63,64,65040,65267
59,64,65280,65507
38,64,65520,65747
50,64,65520,65747
53,64,65760,65987
59,64,66000,66227
56,64,66240,66467
39,64,66480,66707
51,64,66480,66707
58,64,66720,66947
62,64,66960,67187
58,64,67200,67427
44,64,67440,67667
51,64,67440,67667
44,64,67680,68363
42,64,68400,68627
49,64,68400,68627
42,64,68640,69323
40,64,69360,69587
47,64,69360,69587
40,64,69600,70283
35,64,70320,70547
42,64,70320,70547
35,64,70560,71243
40,64,71280,71507
47,64,71280,71507
40,64,71520,72203
35,64,72240,72467
42,64,72240,72467
35,64,72480,73163
38,64,73200,73427
46,64,73200,73427
38,64,73440,73667
39,64,73680,73721
41,64,73722,74136
51,64,74160,74615
39,64,74640,75095
44,64,75120,75347
51,64,75120,75347
44,64,75360,76043
42,64,76080,76307
49,64,76080,76307
42,64,76320,77003
40,64,77040,77267
47,64,77040,77267
40,64,77280,77963
35,64,78000,78227
42,64,78000,78227
35,64,78240,78923
40,64,78960,79187
47,64,78960,79187
40,64,79200,79883
35,64,79920,80147
42,64,79920,80147
35,64,80160,80843
39,64,80880,81335
51,64,80880,81335
43,64,81360,81815
55,64,81360,81815
32,64,81840,82067
37,64,82080,82193
39,64,82200,82313
44,64,82320,82775
49,64,82800,83711
56,64,82800,83711
44,64,83760,84671
51,64,83760,84671
42,64,84720,85631
49,64,84720,85631
35,64,85680,86591
47,64,85680,86591
49,64,86640,87551
56,64,86640,87551
44,64,87600,88511
51,64,87600,88511
40,64,88560,89015
47,64,88560,89015
42,64,89040,89495
49,64,89040,89495
35,64,89520,89671
47,64,89520,89671
35,64,89680,89755
47,64,89680,89983
40,80,90480,90859
52,80,90480,90859
40,80,90880,90955
52,80,90880,90955
52,80,90960,91187
40,80,91200,91351
52,80,91360,91435
35,80,91440,91591
47,80,91600,91675
35,80,91680,91907
47,80,91920,92147
35,80,92160,92311
47,80,92320,92395
42,80,92400,92779
54,80,92400,92779
42,80,92800,92875
54,80,92800,92875
54,80,92880,93107
42,80,93120,93271
54,80,93280,93355
32,80,93360,93511
44,80,93520,93595
32,80,93600,93827
44,80,93840,94067
32,80,94080,94231
44,80,94240,94315
40,80,94320,94699
52,80,94320,94699
40,80,94720,94795
52,80,94720,94795
52,80,94800,95027
40,80,95040,95191
52,80,95200,95275
35,80,95280,95431
47,80,95440,95515
35,80,95520,95747
47,80,95760,95987
35,80,96000,96151
47,80,96160,96235
42,80,96240,96619
54,80,96240,96619
42,80,96640,96715
54,80,96640,96715
54,80,96720,96947
42,80,96960,97111
54,80,97120,97195
39,80,97200,97351
51,80,97360,97435
39,80,97440,97667
51,80,97680,97907
39,80,97920,98147
40,80,98160,98539
52,80,98160,98539
40,80,98560,98635
52,80,98560,98635
52,80,98640,98867
40,80,98880,99031
52,80,99040,99115
35,80,99120,99271
47,80,99280,99355
35,80,99360,99587
47,80,99600,99827
35,80,99840,99991
47,80,100000,100075
34,80,100080,100535
46,80,100080,100535
39,80,100560,101015
51,80,100560,101015
32,80,101040,101267
32,80,101280,101431
32,80,101440,101515
44,80,101520,101747
32,80,101760,101987
37,80,102000,102227
37,80,102240,102467
49,80,102480,102707
37,80,102720,102947
32,80,102960,103187
32,80,103200,103427
44,80,103440,103667
32,80,103680,103907
40,80,103920,104375
52,80,103920,104375
42,80,104400,104855
54,80,104400,104855
41,80,104880,105107
44,80,105120,105271
49,80,105280,105355
53,80,105360,105587
41,80,105600,105827
37,80,105840,106067
37,80,106080,106307
49,80,106320,106547
37,80,106560,106787
32,80,106800,107027
35,80,107040,107267
37,80,107280,107507
39,80,107520,107747
40,80,107760,108215
52,80,107760,108215
42,80,108240,108695
54,80,108240,108695
35,80,108720,108947
35,80,108960,109111
35,80,109120,109195
47,80,109200,109427
35,80,109440,109667
47,49,109680,110135
59,49,109680,110135
42,52,110160,110615
54,52,110160,110615
35,56,110640,111095
47,56,110640,111095
39,60,111120,111575
51,60,111120,111575
41,64,111600,112055
48,64,111600,112055
53,64,111600,112055
48,64,112080,112535
37,64,112560,113015
44,64,112560,113015
49,64,112560,113015
44,64,113040,113495
39,64,113520,113975
46,64,113520,113975
51,64,113520,113975
46,64,114000,114455
44,64,114480,114935
51,64,114480,114935
56,64,114480,114935
51,64,114960,115415
37,64,115440,115895
44,64,115440,115895
49,64,115440,115895
44,64,115920,116375
44,64,116400,116855
51,64,116400,116855
56,64,116400,116855
51,64,116880,117335
39,64,117360,117815
46,64,117360,117815
51,64,117360,117815
46,64,117840,118295
44,64,118320,118775
51,64,118320,118775
56,64,118320,118775
51,64,118800,119255
41,64,119280,119735
48,64,119280,119735
53,64,119280,119735
48,64,119760,120215
37,64,120240,120695
44,64,120240,120695
49,64,120240,120695
44,64,120720,121175
39,64,121200,121655
46,64,121200,121655
51,64,121200,121655
46,64,121680,122135
44,64,122160,122615
51,64,122160,122615
56,64,122160,122615
51,64,122640,123095
37,64,123120,123575
44,64,123120,123575
49,64,123120,123575
44,64,123600,124055
44,64,124080,124535
51,64,124080,124535
56,64,124080,124535
51,64,124560,125015
39,64,125040,125495
46,64,125040,125495
51,64,125040,125495
46,64,125520,125975
44,64,126000,126455
51,64,126000,126455
56,64,126000,126455
51,64,126480,126935
41,64,126960,127871
48,64,126960,127871
53,64,126960,127871
37,64,127920,128831
44,64,127920,128831
49,64,127920,128831
39,64,128880,129791
46,64,128880,129791
51,64,128880,129791
44,64,129840,130751
51,64,129840,130751
56,64,129840,130751
37,64,130800,131711
44,64,130800,131711
49,64,130800,131711
44,64,131760,132671
51,64,131760,132671
56,64,131760,132671
39,64,132720,133631
46,64,132720,133631
51,64,132720,133631
44,64,133680,134591
51,64,133680,134591
56,64,133680,134591
41,64,134640,135551
48,64,134640,135551
53,64,134640,135551
37,64,135600,136511
44,64,135600,136511
49,64,135600,136511
39,64,136560,137471
46,64,136560,137471
51,64,136560,137471
44,64,137520,138431
51,64,137520,138431
56,64,137520,138431
41,64,138480,139391
48,64,138480,139391
53,64,138480,139391
44,64,139440,140351
51,64,139440,140351
56,64,139440,140351
42,64,140400,141767
49,64,140400,141767
54,64,140400,141767
82,64,141840,142067
84,64,142080,142307
65,64,142320,142547
73,64,142320,142547
63,68,142560,142787
65,72,142800,143027
67,76,143040,143267
68,80,143280,143507
59,84,143520,143747
61,88,143760,143987
63,92,144000,144227
64,96,144240,144695
68,96,144240,144695
64,96,144720,144833
68,96,144720,144833
66,96,144840,144953
70,96,144840,144953
68,96,144960,145073
71,96,144960,145073
70,96,145080,145193
73,96,145080,145193
71,96,145200,146080
76,96,145200,146111
40,96,146160,146615
47,96,146160,146615
52,96,146160,146615
52,96,146640,146867
40,96,146880,147031
52,96,147040,147115
35,96,147120,147271
47,96,147280,147355
35,96,147360,147587
47,96,147600,147827
35,96,147840,147991
47,96,148000,148075
42,96,148080,148459
54,96,148080,148459
42,96,148480,148555
54,96,148480,148555
54,96,148560,148787
42,96,148800,148951
54,96,148960,149035
32,96,149040,149191
44,96,149200,149275
32,96,149280,149507
44,96,149520,149747
32,96,149760,149911
44,96,149920,149995
40,96,150000,150379
52,96,150000,150379
40,96,150400,150475
52,96,150400,150475
52,96,150480,150707
40,96,150720,150871
52,96,150880,150955
35,96,150960,151111
47,96,151120,151195
35,96,151200,151427
47,96,151440,151667
35,96,151680,151831
47,96,151840,151915
42,96,151920,152299
54,96,151920,152299
42,96,152320,152395
54,96,152320,152395
54,96,152400,152627
42,96,152640,152791
54,96,152800,152875
39,96,152880,153031
51,96,153040,153115
39,96,153120,153347
51,96,153360,153587
39,96,153600,153827
40,96,153840,154219
52,96,153840,154219
40,96,154240,154315
52,96,154240,154315
52,96,154320,154547
40,96,154560,154711
52,96,154720,154795
35,96,154800,154951
47,96,154960,155035
35,96,155040,155267
47,96,155280,155507
35,96,155520,155671
47,96,155680,155755
34,96,155760,156215
46,96,155760,156215
39,96,156240,156695
51,96,156240,156695
32,96,156720,156947
32,96,156960,157111
32,96,157120,157195
44,96,157200,157427
32,96,157440,157667
37,96,157680,157907
37,96,157920,158147
49,96,158160,158387
37,96,158400,158627
32,96,158640,158867
32,96,158880,159107
44,96,159120,159347
32,96,159360,159587
40,96,159600,160055
52,96,159600,160055
42,96,160080,160535
54,96,160080,160535
41,96,160560,160787
44,96,160800,160951
49,96,160960,161035
53,96,161040,161267
41,96,161280,161507
37,96,161520,161747
37,96,161760,161987
49,96,162000,162227
37,96,162240,162467
32,96,162480,162707
32,96,162720,162947
44,96,162960,163187
32,96,163200,163427
40,96,163440,163895
52,96,163440,163895
42,96,163920,164375
54,96,163920,164375
35,96,164400,164551
47,96,164560,164635
35,96,164640,164867
47,96,164880,165107
35,96,165120,165271
47,96,165280,165355
37,96,165360,165587
37,96,165600,165827
49,96,165840,166067
37,96,166080,166307
32,96,166320,166547
32,96,166560,166787
44,96,166800,167027
32,96,167040,167267
40,96,167280,167735
52,96,167280,167735
42,96,167760,168215
54,96,167760,168215
28,96,168240,170975
40,96,168240,170975
480,82,0,0
