pitch,velocity,start,end
63,61,480,720
75,61,480,720
63,61,960,1200
75,61,960,1200
63,61,1440,1680
75,61,1440,1680
87,61,1920,2160
99,61,1920,2160
87,61,2400,2640
99,61,2400,2640
87,65,2880,3120
99,65,2880,3120
63,61,3360,3600
75,61,3360,3600
63,61,3840,4080
75,61,3840,4080
63,61,4320,4560
75,61,4320,4560
87,61,4800,5040
99,61,4800,5040
87,59,5280,5520
99,59,5280,5520
87,60,5760,6000
99,60,5760,6000
63,54,6240,6480
75,54,6240,6480
87,52,6720,6960
99,52,6720,6960
87,50,7200,7440
99,50,7200,7440
63,47,7680,7920
75,47,7680,7920
87,45,8160,8400
99,45,8160,8400
87,46,8640,8880
99,46,8640,8880
87,39,10080,10200
75,57,9840,10320
99,39,10560,10680
87,60,10320,10800
99,39,11040,11160
87,61,10800,11280
99,39,11520,11640
85,59,11280,11760
56,65,11760,12000
63,65,11839,12000
71,65,11918,12000
99,40,12000,12120
83,61,11760,12240
99,40,12480,12600
83,59,12240,12720
99,40,12960,13080
82,58,12720,13200
59,61,13200,13440
68,61,13279,13440
75,61,13358,13440
99,40,13440,13560
80,55,13200,13680
99,40,13920,14040
79,55,13680,14160
99,40,14400,14520
80,59,14160,14640
63,65,14640,14880
70,65,14719,14880
79,65,14798,14880
99,40,14880,15000
82,67,14640,15120
87,40,15360,15480
75,53,15120,15600
87,40,15840,15960
75,54,15600,16080
67,61,16080,16320
70,61,16200,16320
87,40,16320,16440
76,57,16080,16560
87,40,16800,16920
75,57,16560,17040
87,40,17280,17400
73,55,17040,17520
68,65,17520,17760
87,40,17760,17880
71,57,17520,18000
87,40,18240,18360
71,56,18000,18480
87,40,18720,18840
70,56,18480,18960
59,60,18960,19200
62,60,19039,19200
65,60,19118,19200
87,40,19200,19320
68,54,18960,19440
87,40,19680,19800
67,55,19440,19920
87,40,20160,20280
68,58,19920,20400
63,65,20400,20640
67,65,20400,20640
87,40,20640,20760
70,67,20400,20880
75,40,21120,21240
63,53,20880,21360
75,40,21360,21480
87,40,21600,21720
99,40,22080,22200
87,70,21840,22320
99,40,22560,22680
87,69,22320,22800
99,40,23040,23160
85,67,22800,23280
99,40,23520,23640
83,66,23280,23760
56,65,23280,23760
63,65,23415,23760
71,65,23550,23760
99,40,24000,24120
83,61,23760,24240
99,40,24480,24600
82,59,24240,24720
99,40,24960,25080
80,56,24720,25200
59,62,24720,25200
68,62,24855,25200
75,62,24990,25200
99,40,25440,25560
79,55,25200,25680
99,40,25920,26040
80,58,25680,26160
63,66,26160,26400
70,66,26239,26400
79,66,26318,26400
99,40,26400,26520
82,67,26160,26640
99,40,26880,27000
75,53,26640,27120
87,40,27360,27480
75,54,27120,27600
67,61,27600,27840
70,61,27720,27840
87,40,27840,27960
76,57,27600,28080
87,40,28320,28440
75,57,28080,28560
73,40,28560,28680
87,40,28800,28920
75,58,28560,29040
87,40,29280,29400
75,63,29040,29520
68,65,29040,29520
71,65,29040,29520
80,40,29520,29640
83,40,29760,29880
99,40,30240,30360
87,84,30000,30480
87,40,30720,30840
75,55,30480,30960
63,62,30480,30960
67,62,30480,30960
73,62,30480,30960
79,40,30960,31080
82,40,31200,31320
99,40,31680,31800
87,82,31440,31920
56,60,31920,32040
63,58,32160,32280
71,61,32400,32520
80,63,32640,32760
75,56,32880,33120
87,68,33120,33360
99,70,33360,33600
87,61,33600,33840
99,70,33840,34080
87,55,34080,34320
99,70,34320,34560
85,52,34560,34714
85,52,34714,34800
44,65,34800,35040
83,55,34800,35280
99,40,35040,35280
51,66,35280,35520
59,66,35280,35520
83,52,35280,35760
99,40,35520,35760
82,52,35760,36154
99,39,36000,36240
82,52,36154,36240
47,59,36240,36480
80,52,36240,36720
99,39,36480,36720
56,69,36720,36960
63,69,36720,36960
79,53,36720,37200
99,39,36960,37200
80,56,37200,37680
99,39,37440,37680
79,60,37680,37800
82,35,37680,37920
80,58,37800,37920
82,62,37920,38160
99,43,37920,38160
51,61,37680,38160
75,52,38160,38640
99,42,38400,38640
58,69,38160,38640
67,69,38160,38640
75,33,38880,39034
75,0,-1,39120
78,57,39034,39120
76,57,39120,39574
87,35,39360,39600
67,68,39120,39600
70,68,39120,39600
75,57,39600,40080
87,36,39840,40080
67,66,39600,40080
70,66,39600,40080
73,55,40080,40474
87,37,40320,40560
73,54,40474,40560
68,65,40560,40800
71,57,40560,41040
87,38,40800,41040
68,61,41040,41280
71,56,41040,41520
87,39,41280,41520
70,56,41520,41914
87,39,41760,42000
70,54,41914,42000
59,58,42000,42240
62,58,42000,42240
65,58,42000,42240
68,54,42000,42480
87,39,42240,42480
59,59,42480,42720
62,59,42480,42720
65,59,42480,42720
67,55,42480,42960
87,40,42720,42960
68,58,42960,43440
87,39,43200,43440
87,70,43680,43800
70,67,43440,43920
51,66,43440,43920
67,66,43440,43920
63,53,43920,44160
75,70,44160,44400
75,70,44400,44640
87,70,44640,44880
99,44,45120,45240
87,70,44880,45360
99,42,45600,45720
87,70,45360,45840
99,41,46080,46200
85,69,45840,46234
85,64,46234,46320
44,64,46320,46560
83,68,46320,46774
99,40,46560,46800
51,66,46800,47040
59,66,46800,47040
83,63,46800,47280
99,40,47040,47280
82,60,47280,47674
99,40,47520,47760
82,56,47674,47760
47,59,47760,48000
80,56,47760,48214
99,40,48000,48240
56,68,48240,48480
63,68,48240,48480
79,55,48240,48720
99,39,48480,48720
80,58,48720,49200
99,39,48960,49200
79,61,49200,49313
82,35,49200,49425
80,60,49320,49440
51,61,49200,49440
82,63,49440,49680
99,43,49440,49680
58,69,49680,49920
67,69,49680,49920
75,53,49680,50160
99,42,49920,50160
75,54,50160,50554
87,33,50400,50640
78,57,50554,50640
76,57,50640,51094
92,37,50880,51120
61,68,50640,51120
68,68,50640,51120
70,68,50640,51120
75,57,51120,51600
92,38,51360,51600
63,66,51120,51600
68,66,51120,51600
70,66,51120,51600
73,55,51600,52080
92,38,51840,52080
64,64,51600,52080
68,64,51600,52080
70,64,51600,52080
87,34,52320,52440
75,64,52080,52560
63,68,52080,52560
68,68,52080,52560
71,68,52080,52560
80,33,52560,52680
83,34,52800,52920
99,43,53280,53400
87,84,53040,53520
87,38,53760,53880
75,56,53520,54000
51,59,53520,54000
61,59,53520,54000
67,59,53520,54000
79,36,54000,54120
82,37,54240,54360
99,41,54720,54840
87,82,54480,54960
44,57,54960,55080
59,52,55200,55320
63,53,55440,55560
68,54,55680,55800
71,56,55920,56040
80,60,56160,56280
83,62,56400,56520
87,62,56640,56760
92,62,56880,57000
71,61,58800,58920
67,59,59040,59160
70,59,59040,59160
71,56,59280,59400
66,53,59520,59640
69,53,59520,59640
71,51,59760,59880
65,48,60000,60120
68,48,60000,60120
71,45,60240,60360
64,43,60480,60600
67,43,60480,60600
73,65,60720,60840
71,62,60840,60960
70,62,60960,61080
71,62,61080,61193
66,62,61200,61320
59,61,61200,61440
63,61,61200,61440
90,62,61440,61560
71,62,61680,61800
54,62,61680,61920
63,62,61680,61920
66,62,61680,61920
90,62,61920,62040
75,62,62160,62280
73,62,62280,62400
72,62,62400,62520
73,62,62520,62633
66,62,62640,62760
58,61,62640,62880
64,61,62640,62880
90,62,62880,63000
73,62,63120,63240
54,63,63120,63360
64,63,63120,63360
66,63,63120,63360
90,62,63360,63480
76,66,63600,63720
75,62,63720,63840
74,63,63840,63960
75,63,63960,64073
71,63,64080,64200
59,59,64080,64320
63,59,64080,64320
90,63,64320,64440
75,63,64560,64680
71,63,64800,64920
74,63,64800,64920
75,63,65040,65160
70,63,65280,65400
73,63,65280,65400
75,63,65520,65640
69,63,65760,65880
72,63,65760,65880
75,63,66000,66120
68,63,66240,66360
71,63,66240,66360
77,66,66480,66600
75,63,66600,66720
74,63,66720,66840
75,63,66840,66953
70,63,66960,67080
63,61,66960,67200
66,61,66960,67200
94,63,67200,67320
75,63,67440,67560
58,63,67440,67680
66,63,67440,67680
70,63,67440,67680
94,63,67680,67800
78,62,67920,68040
77,63,68040,68160
76,63,68160,68280
77,63,68280,68393
70,63,68400,68520
62,61,68400,68640
68,61,68400,68640
94,63,68640,68760
77,63,68880,69000
58,63,68880,69120
68,63,68880,69120
70,63,68880,69120
94,63,69120,69240
80,66,69360,69480
78,63,69480,69600
77,63,69600,69720
78,63,69720,69833
75,63,69840,69960
63,58,69840,70080
66,58,69840,70080
94,63,70080,70200
78,63,70320,70440
74,63,70560,70680
77,63,70560,70680
78,63,70800,70920
73,63,71040,71160
76,63,71040,71160
78,63,71280,71400
72,63,71520,71640
75,63,71520,71640
78,63,71760,71880
71,63,72000,72120
74,63,72000,72120
80,91,72240,72360
78,86,72360,72480
77,86,72480,72600
78,86,72600,72713
73,86,72720,72840
66,84,72720,72960
70,84,72720,72960
97,86,72960,73080
78,86,73200,73320
61,86,73200,73440
70,86,73200,73440
73,86,73200,73440
97,86,73440,73560
82,86,73680,73800
80,86,73800,73920
79,86,73920,74040
80,86,74040,74153
73,86,74160,74280
65,83,74160,74400
71,83,74160,74400
97,86,74400,74520
80,86,74640,74760
61,86,74640,74880
71,86,74640,74880
73,86,74640,74880
97,86,74880,75000
70,22,75120,75240
78,98,75120,75240
71,20,75360,75480
80,94,75360,75480
73,86,75600,76080
82,93,75840,76080
85,93,75840,76080
82,0,-1,76080
66,39,75600,76080
71,20,76080,76200
80,90,76080,76200
70,20,76320,76440
78,86,76320,76440
68,20,76560,76680
71,78,76560,76680
70,20,76800,76920
73,81,76800,76920
71,79,77040,77520
75,94,77280,77520
83,94,77280,77520
75,0,-1,77520
59,38,77040,77520
70,20,77520,77640
73,81,77520,77640
68,20,77760,77880
71,79,77760,77880
66,22,78000,78120
70,84,78000,78120
68,21,78240,78360
71,81,78240,78360
70,76,78480,78960
73,94,78720,78960
82,94,78720,78960
73,0,-1,78960
61,47,78480,78960
68,21,78960,79080
71,81,78960,79080
66,21,79200,79320
70,81,79200,79320
65,21,79440,79560
68,80,79440,79560
66,21,79680,79800
70,82,79680,79800
68,75,79920,80400
71,94,80160,80400
80,94,80160,80400
71,0,-1,80400
61,47,79920,80400
63,21,80400,80520
66,79,80400,80520
65,21,80640,80760
68,81,80640,80760
66,78,80880,81120
70,89,80880,81120
54,39,80880,81120
70,94,81120,81240
78,94,81120,81240
66,79,81360,81480
78,97,81600,81720
67,90,81840,81960
79,107,82080,82200
68,28,82320,82560
80,22,82560,82800
64,98,82800,83040
68,98,82800,83040
80,89,82800,83280
68,19,83040,83280
63,98,83280,83520
68,98,83280,83520
80,88,83280,83760
66,18,83520,83760
61,43,83760,84000
68,43,83760,84000
64,18,84000,84120
80,91,83760,84240
75,107,84240,84480
68,20,84480,84600
90,96,84240,84720
73,101,84720,84960
68,20,84960,85080
88,93,84720,85200
72,98,85200,85440
68,20,85440,85560
87,88,85200,85680
56,37,85200,85680
70,94,85680,85920
68,20,85920,86040
85,83,85680,86160
72,99,86160,86400
68,20,86400,86520
87,87,86160,86640
88,94,86640,86880
73,107,86640,86880
68,20,86880,87120
61,42,86640,87120
85,80,87120,87360
76,108,87120,87360
68,20,87360,87600
67,102,87600,87720
79,109,87840,87960
66,27,88080,88320
78,23,88320,88560
78,75,88560,88800
63,88,88560,88800
66,88,88560,88800
66,18,88800,89040
78,77,89040,89280
61,91,89040,89280
66,91,89040,89280
64,18,89280,89520
78,84,89520,89760
59,42,89520,89760
66,42,89520,89760
63,18,89760,90000
88,96,90000,90240
73,105,90000,90240
66,20,90240,90480
87,93,90480,90720
71,100,90480,90720
66,20,90720,90960
85,87,90960,91200
70,97,90960,91200
66,20,91200,91440
54,37,90960,91440
83,82,91440,91680
68,93,91440,91680
66,20,91680,91920
85,87,91920,92160
70,99,91920,92160
66,20,92160,92400
71,107,92400,92640
66,20,92640,92760
87,96,92400,92880
59,42,92400,92880
75,109,92880,93120
66,20,93120,93240
83,79,92880,93360
62,100,93360,93480
74,104,93600,93720
63,96,93840,93960
75,73,94080,94200
87,87,94320,94440
75,75,94560,94680
55,87,94320,94800
63,87,94320,94800
87,86,94800,94920
74,77,95040,95160
56,93,94800,95280
65,93,94800,95280
87,91,95280,95400
58,105,95280,95520
67,105,95280,95520
73,80,95520,95640
87,85,95760,95880
58,99,95760,96000
67,99,95760,96000
73,82,96000,96120
87,85,96240,96360
59,101,96240,96480
68,101,96240,96480
71,83,96480,96600
88,85,96720,96840
76,20,96720,96840
61,106,96720,96960
70,106,96720,96960
87,85,96960,97080
82,20,96960,97080
85,85,97200,97320
73,20,97200,97320
83,85,97440,97560
76,20,97440,97560
82,85,97680,97800
71,20,97680,97800
62,93,97680,97920
65,93,97680,97920
80,85,97920,98040
77,20,97920,98040
79,90,98160,98280
70,22,98160,98280
63,104,98160,98400
67,104,98160,98400
82,85,98400,98520
75,20,98400,98520
83,85,98640,98760
79,20,98640,98760
82,86,98880,99000
75,21,98880,99000
74,127,99120,99240
86,111,99360,99480
75,115,99600,99720
87,85,99840,99960
99,85,100080,100200
67,104,100080,100320
75,104,100080,100320
87,85,100320,100440
99,85,100560,100680
68,105,100560,100800
77,105,100560,100800
86,85,100800,100920
99,91,101040,101280
70,112,101040,101280
79,112,101040,101280
85,79,101280,101520
99,97,101520,101760
70,108,101520,101760
79,108,101520,101760
85,78,101760,102000
99,105,102000,102240
71,114,102000,102240
80,114,102000,102240
83,81,102240,102480
100,112,102480,102600
88,20,102480,102720
73,120,102480,102720
81,120,102480,102720
99,112,102720,102840
93,21,102720,102960
97,111,102960,103080
85,19,102960,103200
95,108,103200,103320
88,20,103200,103440
93,103,103440,103560
83,18,103440,103680
92,101,103680,103800
89,22,103680,103920
74,108,103440,103920
77,108,103440,103920
82,105,103920,104040
91,105,103920,104040
75,121,103920,104160
79,121,103920,104160
87,103,104160,104280
94,103,104160,104280
74,121,104400,104520
86,127,104640,104760
75,114,104880,105000
87,127,105120,105240
99,102,105360,105480
87,117,105600,105720
75,127,105840,105960
87,127,106080,106200
76,126,106320,106440
88,127,106560,106680
99,105,106800,106920
87,119,107040,107160
76,127,107280,107400
88,127,107520,107640
77,127,107760,107880
89,127,108000,108120
99,101,108240,108360
87,121,108480,108600
78,127,108720,108840
90,127,108960,109080
99,103,109200,109320
87,123,109440,109560
79,127,109680,109800
91,127,109920,110040
99,124,110160,110280
87,105,110400,110520
80,127,110640,110760
92,127,110880,111000
99,106,111120,111240
81,106,111360,111480
99,107,111600,111720
82,107,111840,111960
99,108,112080,112200
83,108,112320,112440
99,116,112560,112680
84,109,112800,112920
99,109,113040,113160
85,110,113280,113400
99,110,113520,113640
86,111,113760,113880
99,112,114000,114120
87,112,114240,114360
99,113,114480,114600
87,113,114720,114840
99,114,114960,115080
87,114,115200,115320
99,122,115440,115680
87,104,115680,115920
99,125,115920,116160
87,98,116160,116400
99,127,116400,116640
87,96,116640,116880
99,121,116880,117120
87,83,117120,117360
75,77,117360,117600
87,74,117600,117840
99,87,117840,118080
87,59,118080,118320
75,55,118320,118560
87,59,118560,118800
99,70,118800,119040
87,54,119040,119280
75,52,119280,119520
63,61,119280,119520
87,62,119520,119760
99,45,119760,120000
75,43,119760,120000
87,36,120000,120240
75,33,120240,120720
87,41,120480,120720
99,45,120720,120960
73,41,120720,120960
87,37,120960,121200
75,35,121200,121440
71,42,121200,121440
87,41,121440,121680
56,42,121200,121680
99,45,121680,121920
71,39,121680,121920
87,37,121920,122160
75,33,122160,122400
70,38,122160,122400
87,41,122400,122640
99,45,122640,122880
68,37,122640,122880
87,37,122880,123120
59,40,122640,123120
75,33,123120,123360
67,36,123120,123360
87,41,123360,123600
99,45,123600,123840
68,38,123600,123840
87,37,123840,124080
75,35,124080,124320
70,43,124080,124320
87,41,124320,124560
67,44,124080,124560
99,45,124560,124800
63,34,124560,124800
87,37,124800,125040
75,33,125040,125280
63,35,125040,125280
87,41,125280,125520
99,45,125520,125760
64,37,125520,125760
87,37,125760,126000
55,37,125520,126000
75,33,126000,126240
63,37,126000,126240
87,42,126240,126480
99,45,126480,126720
61,36,126480,126720
87,37,126720,126960
75,35,126960,127200
59,37,126960,127200
87,42,127200,127440
56,41,126960,127440
99,45,127440,127680
59,36,127440,127680
87,37,127680,127920
75,33,127920,128160
58,36,127920,128160
87,41,128160,128400
99,45,128400,128640
56,35,128400,128640
87,37,128640,128880
52,38,128400,128880
75,33,128880,129120
55,35,128880,129120
87,41,129120,129360
99,45,129360,129600
56,38,129360,129600
87,37,129600,129840
75,35,129840,130080
87,41,130080,130320
58,43,129840,130328
51,35,130320,130433
99,45,130320,130560
55,42,129840,130751
87,37,130560,130800
75,33,130800,131040
87,41,131040,131280
63,43,131160,131280
75,45,131280,131505
99,45,131280,131520
87,37,131520,131760
75,33,131760,132240
87,41,132000,132240
73,43,132000,132240
99,45,132240,132480
87,37,132480,132720
75,35,132720,132960
71,42,132720,132960
87,41,132960,133200
56,42,132720,133200
99,45,133200,133440
71,40,133200,133440
87,37,133440,133680
75,33,133680,133920
70,38,133680,133920
87,41,133920,134160
99,45,134160,134400
68,37,134160,134400
87,37,134400,134640
59,40,134160,134640
75,33,134640,134880
67,36,134640,134880
87,42,134880,135120
99,45,135120,135360
68,38,135120,135360
87,37,135360,135600
75,35,135600,135840
70,43,135600,135840
67,44,135600,135840
87,42,135840,136080
99,45,136080,136320
63,34,136080,136320
87,37,136320,136560
75,33,136560,137040
87,44,136800,137040
76,33,137040,137520
87,45,137280,137520
61,42,137040,137520
68,42,137040,137520
70,42,137040,137520
75,33,137520,138000
87,45,137760,138000
63,41,137520,138000
68,41,137520,138000
70,41,137520,138000
73,33,138000,138480
87,45,138240,138480
64,41,138000,138480
68,41,138000,138480
70,41,138000,138480
75,35,138480,138960
87,45,138720,138960
63,44,138480,138960
68,44,138480,138960
71,44,138480,138960
80,35,138960,139080
83,42,139200,139320
87,45,139440,139920
99,45,139680,139920
75,33,139920,140400
87,44,140160,140400
63,41,139920,140400
67,41,139920,140400
73,41,139920,140400
79,33,140400,140520
82,36,140640,140760
87,43,140880,141360
99,45,141120,141360
56,38,141360,141480
63,38,141600,141720
71,40,141840,141960
80,42,142080,142200
75,33,142320,142478
87,40,142478,142639
87,62,142639,142800
87,62,142800,142958
87,61,142958,143119
99,70,143119,143280
87,58,143280,143438
87,59,143438,143599
99,70,143599,143760
85,54,143760,143918
85,54,143918,144079
97,70,144079,144240
83,55,144240,144398
83,52,144398,144559
95,70,144559,144720
44,42,144240,144720
83,52,144720,144878
83,52,144878,145039
95,70,145039,145200
51,61,144720,145200
59,61,144720,145200
82,52,145200,145358
82,52,145358,145519
94,70,145519,145680
51,61,145200,145680
59,61,145200,145680
80,52,145680,145838
80,52,145838,145999
92,70,145999,146160
47,40,145680,146160
79,52,146160,146318
79,52,146318,146479
91,70,146479,146640
56,63,146160,146640
63,63,146160,146640
80,52,146640,146798
80,52,146798,146959
92,70,146959,147120
56,63,146640,147120
63,63,146640,147120
82,57,147120,147278
82,54,147278,147439
94,70,147439,147600
51,43,147120,147600
75,52,147600,147758
75,52,147758,147919
87,69,147919,148080
58,65,147600,148080
67,65,147600,148080
75,52,148080,148238
75,52,148238,148399
87,70,148399,148560
58,64,148080,148560
67,64,148080,148560
76,52,148560,148718
76,52,148718,148879
88,70,148879,149040
55,41,148560,149040
75,52,149040,149198
75,52,149198,149359
87,70,149359,149520
63,65,149040,149520
70,65,149040,149520
73,52,149520,149678
73,52,149678,149839
85,70,149839,150000
63,63,149520,150000
70,63,149520,150000
71,55,150000,150158
71,52,150158,150319
83,70,150319,150480
56,42,150000,150480
71,52,150480,150638
71,52,150638,150799
83,70,150799,150960
63,60,150480,150960
68,60,150480,150960
70,52,150960,151118
70,52,151118,151279
82,70,151279,151440
63,60,150960,151440
68,60,150960,151440
68,52,151440,151598
68,52,151598,151759
80,70,151759,151920
59,40,151440,151920
67,52,151920,152078
67,52,152078,152239
79,70,152239,152400
62,58,151920,152400
65,58,151920,152400
68,52,152400,152558
68,52,152558,152719
80,70,152719,152880
62,59,152400,152880
65,59,152400,152880
70,57,152880,153038
70,54,153038,153199
82,70,153199,153360
51,55,152880,153360
63,52,153360,153518
63,52,153518,153679
75,69,153679,153840
58,67,153360,153840
67,67,153360,153840
75,68,153840,153998
75,68,153998,154159
75,68,154159,154320
87,70,154320,154478
87,70,154478,154639
99,70,154639,154800
87,70,154800,154958
87,70,154958,155119
99,70,155119,155280
85,66,155280,155438
85,65,155438,155599
97,70,155599,155760
83,60,155760,155918
83,57,155918,156079
95,70,156079,156240
44,42,155760,156240
83,54,156240,156398
83,54,156398,156559
95,70,156559,156720
51,61,156240,156720
59,61,156240,156720
82,52,156720,156878
82,53,156878,157039
94,70,157039,157200
51,61,156720,157200
59,61,156720,157200
80,52,157200,157358
80,52,157358,157519
92,70,157519,157680
47,40,157200,157680
79,52,157680,157838
79,52,157838,157999
91,70,157999,158160
56,63,157680,158160
63,63,157680,158160
80,52,158160,158318
80,52,158318,158479
92,70,158479,158640
56,63,158160,158640
63,63,158160,158640
82,57,158640,158798
82,54,158798,158959
94,70,158959,159120
51,56,158640,159120
75,52,159120,159278
58,69,159120,159360
67,69,159120,159360
75,52,159278,159439
87,69,159439,159600
75,52,159600,159758
67,75,159600,159840
70,75,159600,159840
75,52,159758,159919
87,70,159919,160080
76,52,160080,160238
68,80,160080,160320
71,80,160080,160320
76,52,160238,160399
88,70,160399,160560
75,52,160560,160718
66,73,160560,160800
70,73,160560,160800
75,52,160718,160879
87,70,160879,161040
73,52,161040,161198
64,65,161040,161280
68,65,161040,161280
73,52,161198,161359
85,70,161359,161520
75,55,161520,161678
75,53,161678,161839
87,70,161839,162000
63,68,161520,162000
68,68,161644,162000
71,68,161768,162000
76,54,162000,162158
76,54,162158,162319
87,70,162319,162480
77,55,162480,162638
77,55,162638,162799
87,71,162799,162960
78,58,162960,163118
78,59,163118,163279
87,75,163279,163440
79,62,163440,163598
79,63,163598,163759
87,77,163759,163920
80,66,163920,164078
80,67,164078,164239
87,80,164239,164400
81,74,164400,164558
81,70,164558,164719
87,83,164719,164880
51,88,164400,164880
61,88,164400,164880
67,88,164400,164880
82,73,164880,165038
82,73,165038,165199
87,85,165199,165360
83,76,165360,165518
83,76,165518,165679
87,87,165679,165840
84,79,165840,165998
84,79,165998,166159
87,88,166159,166320
85,83,166320,166478
85,82,166478,166639
87,89,166639,166800
86,86,166800,166958
86,85,166958,167119
87,89,167119,167280
87,96,167280,167438
87,89,167438,167599
99,96,167599,167760
44,104,167280,167760
51,104,167280,167760
59,104,167280,167760
68,104,167280,167760
88,87,167760,167918
88,84,167918,168079
99,88,168079,168240
89,75,168240,168398
89,70,168398,168559
99,77,168559,168720
90,63,168720,168878
90,59,168878,169039
99,64,169039,169200
91,51,169200,169358
91,48,169358,169519
99,52,169519,169680
92,41,169680,169838
92,39,169838,169999
99,45,169999,170160
68,42,171120,171364
67,39,171360,171585
70,39,171360,171600
71,35,171120,171720
69,39,171600,171720
66,38,171600,171720
71,35,171840,171960
68,39,171840,171960
65,38,171840,171960
71,35,172080,172200
67,38,172080,172200
64,38,172080,172200
71,36,172320,172440
66,38,172320,172440
63,37,172320,172440
71,37,172560,172680
65,38,172560,172680
62,37,172560,172680
71,38,172800,172920
64,38,172800,172920
61,37,172800,172920
73,64,173040,173160
71,59,173160,173280
70,59,173280,173400
71,60,173400,173513
66,57,173520,173760
78,69,173640,173760
59,60,173520,173760
63,60,173520,173760
78,69,173760,173880
78,69,173880,174000
71,61,174000,174240
83,70,174120,174240
54,63,174000,174240
63,63,174000,174240
66,63,174000,174240
83,70,174240,174360
83,70,174360,174480
73,61,174480,174720
85,70,174600,174720
85,70,174720,174840
85,70,174840,174960
78,67,174960,175200
90,70,175080,175200
58,60,174960,175200
64,60,174960,175200
90,70,175200,175320
90,70,175320,175440
85,70,175440,175680
54,63,175440,175680
58,63,175440,175680
66,63,175440,175680
90,70,175598,175759
97,70,175598,175759
90,70,175759,175920
97,70,175759,175920
47,57,175920,176160
90,70,176078,176239
99,70,176078,176239
90,70,176239,176400
99,70,176239,176400
87,72,175920,176408
83,61,176400,176625
54,65,176400,176640
63,65,176400,176640
74,56,177120,177360
71,70,176880,177368
70,68,177360,177473
75,70,176880,177480
73,52,177360,177480
75,45,177600,177720
72,49,177600,177720
69,66,177600,177720
75,44,177840,177960
71,47,177840,177960
68,64,177840,177960
75,42,178080,178200
70,44,178080,178200
67,62,178080,178200
75,40,178320,178440
69,42,178320,178440
66,61,178320,178440
75,39,178560,178680
68,40,178560,178680
65,60,178560,178680
77,40,178800,178920
75,37,178920,179040
74,37,179040,179160
75,38,179160,179273
70,36,179280,179520
82,45,179400,179520
63,61,179280,179520
66,61,179280,179520
82,44,179520,179640
82,44,179640,179760
75,39,179760,180000
87,45,179880,180000
58,64,179760,180000
66,64,179760,180000
70,64,179760,180000
87,45,180000,180120
87,45,180120,180240
77,39,180240,180480
89,45,180360,180480
89,45,180480,180600
89,45,180600,180720
82,43,180720,180960
94,45,180840,180960
62,61,180720,180960
68,61,180720,180960
94,45,180960,181080
94,45,181080,181200
89,45,181200,181440
58,63,181200,181440
62,63,181200,181440
70,63,181200,181440
94,45,181358,181519
101,45,181358,181519
94,45,181519,181680
101,45,181519,181680
51,55,181680,181920
94,45,181838,181999
102,45,181838,181999
94,45,181999,182160
102,45,181999,182160
90,46,181680,182168
58,64,182160,182280
66,64,182160,182280
87,39,182160,182385
75,68,182640,182884
74,67,182880,183105
78,33,182640,183120
77,37,182880,183120
78,33,183120,183240
76,37,183120,183240
73,65,183120,183240
78,34,183360,183480
75,36,183360,183480
72,63,183360,183480
78,34,183600,183720
74,36,183600,183720
71,61,183600,183720
78,35,183840,183960
73,36,183840,183960
70,60,183840,183960
78,35,184080,184200
72,36,184080,184200
69,59,184080,184200
78,36,184320,184440
70,36,184320,184440
68,58,184320,184440
80,40,184560,184680
78,37,184680,184800
77,37,184800,184920
78,38,184920,185033
85,45,185160,185280
66,60,185040,185280
70,60,185040,185280
85,44,185280,185400
73,36,185040,185520
85,44,185400,185520
90,45,185640,185760
61,63,185520,185760
70,63,185520,185760
73,63,185520,185760
90,45,185760,185880
78,39,185520,186000
90,45,185880,186000
92,45,186120,186240
92,45,186240,186360
80,39,186000,186480
92,45,186360,186480
65,61,186480,186720
71,61,186480,186720
92,45,186638,186799
97,45,186638,186799
85,43,186480,186960
92,45,186799,186960
97,45,186799,186960
92,45,186960,187118
97,45,186960,187118
61,63,186960,187200
65,63,186960,187200
73,63,186960,187200
92,45,187118,187279
97,45,187118,187279
92,45,187279,187440
97,45,187279,187440
97,48,187440,187560
94,42,187440,187680
99,45,187560,187680
97,45,187680,187800
93,39,187680,187920
99,45,187800,187920
66,58,187440,187920
97,45,187920,188040
78,70,187920,188040
82,70,187920,188040
92,39,187920,188160
99,45,188040,188160
97,44,188160,188280
80,76,188160,188280
83,76,188160,188280
91,38,188160,188400
99,45,188280,188400
97,43,188400,188520
99,44,188520,188640
82,81,188400,188640
85,81,188400,188640
97,42,188640,188760
90,37,188400,188880
99,44,188760,188880
95,39,188880,189000
92,40,188880,189120
97,41,189000,189120
95,39,189120,189240
91,38,189120,189360
97,41,189240,189360
59,60,188880,189360
95,39,189360,189480
71,79,189360,189480
80,79,189360,189480
90,37,189360,189600
97,40,189480,189600
95,38,189600,189720
73,86,189600,189720
82,86,189600,189720
89,36,189600,189840
97,40,189720,189840
95,38,189840,189960
97,40,189960,190080
75,93,189840,190080
83,93,189840,190080
95,38,190080,190200
87,34,189840,190320
97,40,190200,190320
94,39,190320,190440
90,42,190320,190440
95,38,190440,190560
94,37,190560,190680
89,38,190560,190680
95,38,190680,190800
61,77,190320,190800
94,38,190800,190920
87,36,190800,190920
70,91,190800,190920
78,91,190800,190920
95,39,190920,191040
94,38,191040,191160
86,35,191040,191160
71,99,191040,191160
80,99,191040,191160
95,39,191160,191280
94,38,191280,191400
85,35,191280,191520
95,39,191400,191520
73,108,191280,191520
82,108,191280,191520
94,38,191520,191640
95,39,191640,191760
92,37,191760,191880
89,40,191760,191880
94,39,191880,192000
92,37,192000,192120
87,39,192000,192120
94,39,192120,192240
61,85,191760,192240
92,37,192240,192360
86,38,192240,192360
68,106,192240,192360
77,106,192240,192360
94,39,192360,192480
92,38,192480,192600
85,38,192480,192600
70,115,192480,192600
78,115,192480,192600
94,39,192600,192720
92,38,192720,192840
83,37,192720,192960
87,35,192840,192960
71,123,192720,192960
80,123,192720,192960
88,35,192960,193080
89,36,193080,193200
90,40,193200,193294
92,39,193294,193391
66,127,193200,193440
73,127,193200,193440
82,127,193200,193440
90,38,193391,193485
92,39,193485,193583
90,38,193583,193680
78,37,193680,193920
90,42,193800,193920
92,43,193920,194040
90,42,194040,194160
79,38,194160,194400
91,45,194280,194400
92,45,194400,194520
91,45,194520,194640
80,38,194640,194880
92,45,194760,194880
93,45,194880,195000
92,45,195000,195030
93,45,195030,195120
92,39,195120,195229
64,113,195120,195263
80,114,195191,195263
93,41,195251,195356
92,44,195379,195480
93,47,195499,195593
92,49,195611,195701
63,118,195600,195743
78,120,195671,195743
93,52,195728,195818
92,55,195851,195949
93,45,195983,196013
91,70,196013,196080
92,90,196080,196200
61,89,196080,196223
76,89,196080,196223
93,85,196200,196320
92,84,196320,196440
93,84,196440,196560
92,84,196560,196680
93,84,196680,196800
87,127,196560,196800
92,84,196800,196920
102,68,196560,197040
93,84,196920,197040
92,83,197040,197160
93,84,197160,197280
85,126,197040,197280
92,83,197280,197400
100,65,197040,197520
93,84,197400,197520
92,83,197520,197640
93,84,197640,197760
84,124,197520,197760
92,83,197760,197880
99,62,197520,198000
93,85,197880,198000
68,83,197520,198000
92,83,198000,198120
93,85,198120,198240
82,120,198000,198240
92,83,198240,198360
97,59,198000,198480
93,85,198360,198480
92,83,198480,198600
93,85,198600,198720
84,127,198480,198720
92,83,198720,198840
99,61,198480,198960
93,85,198840,198960
92,88,198960,199080
93,85,199080,199200
85,127,198960,199200
92,83,199200,199320
93,85,199320,199440
73,91,198960,199440
100,66,198960,199448
88,127,199440,199560
97,62,199440,199665
92,83,199440,199894
91,57,200040,200160
93,60,200160,200280
79,52,199920,200400
91,58,200280,200400
90,54,200520,200640
92,56,200640,200760
90,54,200760,200801
78,52,200400,200880
92,63,200801,200880
90,63,200880,200989
63,120,200880,201023
78,120,200951,201023
92,62,201011,201116
90,63,201139,201240
92,65,201259,201353
90,66,201371,201461
61,122,201360,201503
76,122,201431,201503
92,67,201488,201578
90,68,201611,201709
92,63,201743,201773
89,74,201773,201840
90,88,201840,201960
59,89,201840,201983
75,89,201911,201983
92,84,201960,202080
90,83,202080,202200
92,84,202200,202320
90,83,202320,202440
92,85,202440,202560
85,127,202320,202560
90,83,202560,202680
100,78,202320,202800
92,85,202680,202800
90,83,202800,202920
92,85,202920,203040
83,125,202800,203040
90,83,203040,203160
99,75,202800,203280
92,85,203160,203280
90,83,203280,203400
92,85,203400,203520
82,124,203280,203520
90,82,203520,203640
97,71,203280,203760
92,85,203640,203760
66,84,203280,203760
90,82,203760,203880
92,85,203880,204000
80,120,203760,204000
90,82,204000,204120
95,68,203760,204240
92,85,204120,204240
90,82,204240,204360
92,85,204360,204480
82,127,204240,204480
90,82,204480,204600
97,71,204240,204720
92,86,204600,204720
90,87,204720,204840
92,86,204840,204960
83,127,204720,204960
90,82,204960,205080
92,86,205080,205200
71,91,204720,205200
99,79,204720,205208
87,127,205200,205320
95,67,205200,205425
90,82,205200,205425
74,82,205680,205920
86,63,205800,205920
87,64,205920,206040
86,64,206040,206160
75,73,206160,206400
87,73,206280,206400
88,75,206400,206520
87,74,206520,206640
88,75,206640,206760
87,74,206760,206880
63,119,206640,206880
67,119,206640,206880
75,119,206640,206880
88,76,206880,207000
87,74,207000,207120
88,76,207120,207240
87,74,207240,207360
65,120,207120,207360
68,120,207120,207360
74,120,207120,207360
88,76,207360,207480
87,74,207480,207600
88,80,207600,207690
87,74,207690,207780
67,127,207600,207840
70,127,207679,207840
73,127,207758,207840
86,73,207780,207870
87,74,207870,207960
88,75,207960,208050
89,76,208050,208140
90,77,208140,208230
91,78,208230,208320
92,79,208320,208410
93,81,208410,208500
94,83,208500,208590
95,84,208590,208680
96,86,208680,208770
97,88,208770,208860
98,89,208860,208950
99,90,208950,209040
100,93,209040,209134
102,93,209134,209231
68,127,209040,209280
71,127,209119,209280
76,127,209198,209280
100,92,209231,209325
99,91,209325,209423
98,91,209423,209520
97,90,209520,209614
96,89,209614,209711
95,89,209711,209805
94,88,209805,209903
93,88,209903,210000
92,87,210000,210094
91,87,210094,210191
90,87,210191,210285
89,87,210285,210383
88,86,210383,210480
87,92,210480,210960
63,127,210480,210960
79,127,210604,210960
70,79,210960,211200
82,92,211080,211200
83,92,211200,211320
82,91,211320,211440
74,80,211440,211680
86,96,211560,211680
87,96,211680,211800
86,96,211800,211920
75,79,211920,212160
87,96,212040,212160
88,96,212160,212280
87,96,212280,212400
88,96,212400,212520
87,96,212520,212640
63,126,212400,212640
67,126,212400,212640
75,126,212400,212640
88,96,212640,212760
87,96,212760,212880
88,96,212880,213000
87,95,213000,213120
65,125,212880,213120
68,125,212880,213120
74,125,212880,213120
88,96,213120,213240
87,94,213240,213360
88,100,213360,213450
87,93,213450,213540
67,127,213360,213600
70,127,213439,213600
73,127,213518,213600
86,92,213540,213630
87,93,213630,213720
88,93,213720,213810
89,95,213810,213900
90,96,213900,213990
91,97,213990,214080
92,98,214080,214170
93,101,214170,214260
94,102,214260,214350
95,103,214350,214440
96,104,214440,214530
97,105,214530,214620
98,107,214620,214710
99,109,214710,214800
100,109,214800,214894
102,108,214894,214991
68,127,214800,215040
71,127,214879,215040
76,127,214958,215040
100,108,214991,215085
99,107,215085,215183
98,106,215183,215280
97,105,215280,215374
96,104,215374,215471
95,103,215471,215565
94,103,215565,215663
93,102,215663,215760
92,102,215760,215854
91,101,215854,215951
90,101,215951,216045
89,101,216045,216143
88,101,216143,216240
87,107,216240,216323
88,101,216323,216409
87,101,216409,216491
86,101,216491,216578
87,101,216578,216660
63,127,216251,216731
70,127,216375,216731
79,127,216499,216731
88,101,216660,216746
89,101,216746,216833
90,102,216833,216915
91,102,216915,217001
92,102,217001,217084
93,102,217084,217170
94,102,217170,217256
95,102,217256,217339
96,102,217339,217425
97,102,217425,217508
98,102,217508,217594
99,102,217594,217680
100,102,217691,217785
102,103,217785,217883
100,103,217883,217976
99,103,217976,218074
98,103,218074,218171
56,123,217691,218171
71,123,217815,218171
97,103,218171,218265
96,103,218265,218363
95,103,218363,218456
94,103,218456,218554
93,103,218554,218651
92,103,218651,218745
91,103,218745,218843
90,103,218843,218936
89,103,218936,219034
88,103,219034,219131
87,109,219131,219214
88,103,219214,219300
87,104,219300,219383
86,105,219383,219469
87,106,219469,219551
51,126,219131,219611
88,107,219551,219638
89,108,219638,219724
90,109,219724,219806
91,110,219806,219893
92,111,219893,219975
93,112,219975,220061
94,113,220061,220148
95,114,220148,220230
96,115,220230,220316
97,117,220316,220399
98,118,220399,220485
99,119,220485,220571
100,88,220583,220643
102,88,220643,220703
100,88,220703,220763
99,88,220763,220823
98,88,220823,220883
99,88,220883,220943
98,88,220943,221003
44,127,220571,221051
59,84,220695,221051
97,88,221003,221063
96,88,221063,221123
97,88,221123,221183
96,89,221183,221243
95,89,221243,221303
94,89,221303,221363
95,89,221363,221423
94,89,221423,221483
93,89,221483,221543
92,89,221543,221603
93,89,221603,221663
92,89,221663,221723
91,89,221723,221783
90,89,221783,221843
91,89,221843,221903
90,89,221903,221963
89,89,221963,222023
88,94,222023,222083
90,89,222083,222143
88,89,222143,222203
87,89,222203,222263
86,89,222263,222323
87,89,222323,222383
86,89,222383,222443
85,89,222443,222503
84,89,222503,222563
85,89,222563,222623
84,89,222623,222683
71,89,222683,222743
82,89,222743,222803
83,89,222803,222863
82,89,222863,222923
81,89,222923,222983
80,89,222983,223043
81,89,223043,223103
80,89,223103,223163
79,89,223163,223223
78,89,223223,223283
79,89,223283,223343
78,90,223343,223403
77,90,223403,223463
76,90,223463,223523
78,90,223523,223583
76,90,223583,223643
75,90,223643,223703
74,90,223703,223763
75,90,223763,223823
74,90,223823,223883
73,90,223883,223943
72,90,223943,224003
73,90,224003,224063
72,90,224063,224123
71,90,224123,224183
70,90,224183,224243
71,90,224243,224303
70,90,224303,224363
69,90,224363,224423
68,90,224423,224483
69,90,224483,224543
68,90,224543,224603
67,90,224603,224663
66,90,224663,224723
67,90,224723,224783
66,90,224783,224843
65,90,224843,224903
64,70,224903,224963
62,66,224963,225023
64,66,225023,225083
63,66,225083,225143
65,66,225143,225203
64,66,225203,225263
66,66,225263,225323
65,66,225323,225383
43,65,224903,225383
58,65,225026,225383
61,65,225150,225383
67,66,225383,225443
66,66,225443,225503
68,66,225503,225563
67,66,225563,225623
69,66,225623,225683
68,66,225683,225743
70,66,225743,225803
69,66,225803,225863
71,66,225863,225923
70,66,225923,225983
72,66,225983,226043
71,66,226043,226103
73,66,226103,226163
72,66,226163,226223
74,66,226223,226283
73,66,226283,226343
75,70,226343,226403
74,61,226403,226463
76,66,226463,226523
75,61,226523,226583
77,66,226583,226643
76,61,226643,226703
78,66,226703,226763
77,61,226763,226823
79,65,226823,226883
78,61,226883,226943
80,65,226943,227003
79,61,227003,227063
81,65,227063,227183
80,61,227123,227243
82,65,227183,227303
81,61,227243,227363
83,65,227303,227423
82,62,227363,227483
84,66,227423,227543
83,62,227483,227603
85,66,227543,227663
84,62,227603,227723
86,66,227663,227783
85,63,227723,227843
87,70,227843,227903
86,63,227903,227963
88,67,227963,228023
87,63,228023,228083
89,67,228083,228143
88,64,228143,228203
90,67,228203,228263
89,64,228263,228323
91,67,228323,228383
90,64,228383,228443
92,67,228443,228503
91,65,228503,228563
93,67,228563,228683
92,65,228623,228743
94,67,228683,228803
93,65,228743,228863
95,67,228803,228923
94,65,228863,228983
96,67,228923,229043
95,65,228983,229103
97,67,229043,229163
96,66,229103,229223
98,67,229163,229283
97,66,229223,229343
99,67,229283,229343
98,66,229343,229403
100,67,229403,229463
98,66,229463,229523
99,67,229523,229583
98,65,229583,229643
100,67,229643,229703
98,65,229703,229763
99,66,229763,229823
98,65,229823,229883
100,66,229883,229943
98,65,229943,230003
99,66,230003,230123
98,65,230063,230183
100,66,230123,230243
98,64,230183,230303
99,65,230243,230363
98,64,230303,230423
100,65,230363,230483
98,64,230423,230543
99,64,230483,230603
98,64,230543,230663
100,65,230603,230723
98,64,230663,230783
99,91,230783,230891
100,91,230918,231023
99,91,231049,231154
100,91,231176,231278
99,91,231296,231390
100,91,231413,231503
99,91,231525,231615
100,91,231641,231731
99,91,231761,231855
100,91,231885,231983
99,91,232013,232114
100,91,232148,232219
99,83,232223,232331
100,83,232358,232463
99,83,232489,232594
100,83,232616,232718
99,83,232736,232830
100,83,232853,232943
99,83,232965,233055
100,83,233081,233171
99,83,233201,233295
100,83,233325,233423
99,83,233453,233554
100,83,233588,233659
99,88,233663,233771
100,59,233798,233903
99,58,233929,234034
100,56,234056,234158
99,54,234176,234270
100,52,234293,234383
99,50,234405,234495
100,49,234521,234611
99,47,234641,234735
100,45,234765,234863
75,61,234623,234863
99,43,234893,234994
100,41,235028,235099
99,39,235103,235223
100,40,235223,235343
87,66,235103,235343
99,39,235343,235463
100,40,235463,235583
99,39,235583,235703
87,61,235583,235823
100,40,235703,235823
99,39,235823,235943
100,40,235943,236063
99,39,236063,236183
87,61,236063,236303
100,40,236183,236303
85,63,236063,236303
99,39,236303,236423
100,40,236423,236543
99,64,236543,236663
87,65,236543,236783
100,62,236663,236783
83,64,236543,236783
99,61,236783,236903
100,62,236903,237023
68,65,236543,237023
99,60,237023,237143
87,61,237023,237263
100,62,237143,237263
83,61,237023,237263
99,60,237263,237383
100,62,237383,237503
99,60,237503,237623
87,61,237503,237743
100,62,237623,237743
82,59,237503,237743
99,60,237743,237863
100,62,237863,237983
99,60,237983,238103
87,61,237983,238223
100,62,238103,238223
80,57,237983,238223
99,60,238223,238343
100,62,238343,238463
71,62,237983,238463
99,60,238463,238583
87,61,238463,238703
100,62,238583,238703
79,57,238463,238703
99,60,238703,238823
100,62,238823,238943
99,60,238943,239063
87,61,238943,239183
100,62,239063,239183
80,59,238943,239183
99,60,239183,239303
100,62,239303,239423
99,64,239423,239543
87,65,239423,239663
100,62,239543,239663
99,60,239663,239783
100,62,239783,239903
82,67,239423,239910
79,68,239423,239910
99,60,239903,240023
87,61,239903,240143
100,62,240023,240143
99,60,240143,240263
75,53,239903,240356
100,62,240263,240383
99,60,240383,240503
87,61,240383,240623
100,62,240503,240623
75,55,240383,240623
99,60,240623,240743
100,62,240743,240863
99,60,240863,240983
87,61,240863,241103
100,62,240983,241103
76,58,240863,241103
99,60,241103,241223
100,62,241223,241343
67,59,240863,241343
70,59,240863,241343
99,60,241343,241463
87,61,241343,241583
100,62,241463,241583
75,58,241343,241583
99,60,241583,241703
100,62,241703,241823
99,60,241823,241943
87,61,241823,242063
100,62,241943,242063
73,56,241823,242063
99,60,242063,242183
100,62,242183,242303
99,64,242303,242423
87,65,242303,242543
100,62,242423,242543
68,58,242303,242543
71,58,242303,242543
99,60,242543,242663
100,62,242663,242783
99,60,242783,242903
87,61,242783,243023
100,62,242903,243023
68,57,242783,243023
71,57,242783,243023
99,60,243023,243143
100,62,243143,243263
99,60,243263,243383
87,61,243263,243503
100,62,243383,243503
66,57,243263,243503
70,57,243263,243503
99,60,243503,243623
100,62,243623,243743
99,60,243743,243863
87,61,243743,243983
100,62,243863,243983
68,55,243743,243983
99,60,243983,244103
100,62,244103,244223
64,60,243743,244223
99,60,244223,244343
87,61,244223,244463
100,62,244343,244463
67,56,244223,244463
99,60,244463,244583
100,62,244583,244703
99,60,244703,244823
87,61,244703,244943
100,62,244823,244943
68,59,244703,244943
99,60,244943,245063
100,62,245063,245183
99,64,245183,245303
87,65,245183,245423
100,62,245303,245423
99,60,245423,245543
100,62,245543,245663
70,67,245183,245670
67,65,245183,245670
99,60,245663,245783
87,61,245663,245903
100,62,245783,245903
99,60,245903,246023
63,53,245663,246116
100,62,246023,246143
99,60,246143,246263
87,61,246143,246383
100,62,246263,246383
99,60,246383,246503
100,62,246503,246623
63,56,246383,246626
99,60,246623,246743
75,70,246623,246848
87,61,246623,246863
100,62,246743,246863
99,60,246863,246983
100,62,246983,247103
99,60,247103,247223
87,61,247103,247343
100,62,247223,247343
75,69,247103,247343
99,60,247343,247463
100,62,247463,247583
99,60,247583,247703
87,61,247583,247823
100,62,247703,247823
73,66,247583,247823
99,60,247823,247943
100,62,247943,248063
99,64,248063,248183
100,62,248183,248303
71,64,248063,248303
99,60,248303,248423
87,52,248423,248543
56,64,248063,248543
87,52,248543,248663
88,52,248663,248783
71,60,248543,248783
87,52,248783,248903
75,52,248903,249023
87,53,249023,249180
70,59,249023,249263
88,54,249180,249341
87,54,249341,249503
99,70,249503,249623
100,70,249623,249743
68,56,249503,249743
99,69,249743,249863
87,54,249863,249983
59,62,249503,249983
87,54,249983,250103
88,56,250103,250223
67,56,249983,250223
87,55,250223,250343
75,52,250343,250463
87,57,250463,250620
68,59,250463,250703
88,59,250620,250781
87,58,250781,250943
99,74,250943,251063
100,70,251063,251183
99,70,251183,251303
87,56,251303,251423
70,67,250943,251430
67,68,250943,251430
87,56,251423,251543
88,58,251543,251663
87,57,251663,251783
63,53,251423,251876
75,52,251783,251903
87,59,251903,252060
63,55,251903,252143
88,61,252060,252221
87,59,252221,252383
99,70,252383,252503
100,70,252503,252623
68,64,252383,252623
99,70,252623,252743
87,56,252743,252863
59,59,252383,252863
87,57,252863,252983
88,58,252983,253103
66,61,252863,253103
87,57,253103,253223
75,52,253223,253343
60,60,252863,253343
87,59,253343,253500
64,58,253343,253583
88,61,253500,253661
87,59,253661,253823
61,61,253343,253823
63,61,253823,253894
99,74,253823,253943
100,70,253943,254063
99,70,254063,254183
87,56,254183,254303
71,70,254303,254423
80,70,254303,254423
75,70,254543,254663
83,70,254543,254663
68,67,254783,255023
75,67,254783,255023
99,68,255263,255383
100,68,255383,255503
99,67,255503,255623
87,56,255623,255743
63,54,255263,255743
70,69,255743,255863
79,69,255743,255863
73,69,255983,256103
82,69,255983,256103
67,65,256223,256463
75,65,256223,256463
56,55,256703,257190
63,57,257183,257243
71,65,257243,257303
80,69,257303,257415
75,59,257663,257805
87,61,257783,257903
88,61,257903,258023
87,61,258023,258143
87,62,258143,258285
99,64,258263,258383
100,64,258383,258503
99,64,258503,258623
87,62,258623,258765
99,63,258743,258863
100,64,258863,258983
99,63,258983,259103
85,61,259103,259245
97,61,259223,259343
99,63,259343,259463
97,61,259463,259583
83,64,259583,259725
32,64,259583,259725
44,64,259583,259725
95,60,259703,259823
97,61,259823,259943
95,60,259943,260063
83,60,260063,260205
51,63,260063,260205
59,63,260063,260205
63,63,260063,260205
95,60,260183,260303
97,61,260303,260423
95,60,260423,260543
82,60,260543,260685
56,63,260543,260685
59,63,260543,260685
63,63,260543,260685
94,59,260663,260783
95,60,260783,260903
94,59,260903,261023
80,59,261023,261165
35,59,261023,261165
47,59,261023,261165
92,58,261143,261263
94,60,261263,261383
92,58,261383,261503
79,59,261503,261645
51,64,261503,261645
59,64,261503,261645
63,64,261503,261645
91,57,261623,261743
92,59,261743,261863
91,58,261863,261983
80,60,261983,262125
56,63,261983,262125
59,63,261983,262125
63,63,261983,262125
92,59,262103,262223
94,61,262223,262343
92,59,262343,262463
39,61,262463,262605
51,61,262463,262605
94,62,262583,262703
95,63,262703,262823
82,65,262463,262943
94,62,262823,262943
55,65,262943,263085
63,65,262943,263085
67,65,262943,263085
87,55,263063,263183
88,56,263183,263303
75,56,262943,263423
87,56,263303,263423
58,64,263423,263565
63,64,263423,263565
67,64,263423,263565
87,57,263543,263663
88,58,263663,263783
75,57,263423,263903
87,57,263783,263903
43,58,263903,264045
88,59,264023,264143
90,61,264143,264263
76,59,263903,264383
88,59,264263,264383
61,65,264383,264525
63,65,264383,264525
70,65,264383,264525
87,59,264503,264623
88,60,264623,264743
75,59,264383,264863
87,59,264743,264863
58,64,264863,265005
63,64,264863,265005
70,64,264863,265005
85,57,264983,265103
87,60,265103,265223
73,57,264863,265343
85,58,265223,265343
44,62,265343,265485
83,57,265463,265583
85,59,265583,265703
71,58,265343,265823
83,57,265703,265823
63,64,265823,265965
68,64,265823,265965
83,58,265943,266063
85,60,266063,266183
71,57,265823,266303
83,58,266183,266303
59,61,266303,266445
63,61,266303,266445
82,58,266423,266543
83,59,266543,266663
70,57,266303,266783
82,58,266663,266783
40,58,266783,266925
80,57,266903,267023
82,59,267023,267143
68,55,266783,267263
80,57,267143,267263
59,63,267263,267405
62,63,267263,267405
79,57,267383,267503
80,58,267503,267623
67,56,267263,267743
79,58,267623,267743
58,62,267743,267885
62,62,267743,267885
80,59,267863,267983
82,61,267983,268103
68,59,267743,268223
80,59,268103,268223
39,62,268223,268294
70,67,268223,268463
82,62,268343,268463
83,63,268463,268583
82,62,268583,268703
55,61,268703,268774
58,61,268703,268774
63,53,268703,268943
75,55,268823,268943
76,56,268943,269063
75,56,269063,269183
67,63,269183,269254
70,63,269183,269254
75,70,269183,269423
87,67,269303,269423
88,68,269423,269543
87,67,269543,269663
79,63,269663,269734
82,63,269663,269734
87,70,269663,269903
99,70,269783,269903
100,69,269903,270023
99,69,270023,270143
87,70,270143,270383
99,68,270263,270383
100,68,270383,270503
99,67,270503,270623
85,67,270623,270863
97,65,270743,270863
99,66,270863,270983
97,64,270983,271103
84,68,271103,271343
96,62,271223,271343
44,65,271103,271343
97,63,271343,271463
96,62,271463,271583
84,62,271583,271823
96,62,271703,271823
57,67,271583,271823
63,67,271583,271823
66,67,271583,271823
97,62,271823,271943
96,61,271943,272063
81,57,272063,272303
93,58,272183,272303
60,65,272063,272303
63,65,272063,272303
66,65,272063,272303
95,60,272303,272423
93,58,272423,272543
80,56,272543,272783
92,58,272663,272783
48,55,272543,272783
93,59,272783,272903
92,58,272903,273023
80,57,273023,273263
92,58,273143,273263
57,68,273023,273263
63,68,273023,273263
66,68,273023,273263
93,60,273263,273383
92,59,273383,273503
78,56,273503,273743
90,57,273623,273743
60,67,273503,273743
63,67,273503,273743
66,67,273503,273743
92,59,273743,273863
90,58,273863,273983
88,56,274103,274223
90,59,274223,274343
76,58,273983,274463
88,57,274343,274463
49,56,273983,274463
85,55,274583,274703
87,57,274703,274823
73,53,274463,274943
85,56,274823,274943
64,69,274463,274943
69,69,274463,274943
87,59,275063,275183
88,60,275183,275303
75,61,274943,275423
87,59,275303,275423
60,71,274943,275423
69,71,274943,275423
88,60,275543,275663
90,62,275663,275783
76,68,275423,275903
88,60,275783,275903
61,74,275423,275903
69,74,275423,275903
87,60,276023,276143
88,61,276143,276263
75,70,275903,276383
87,60,276263,276383
66,75,275903,276383
69,75,275903,276383
85,58,276503,276623
87,60,276623,276743
73,62,276383,276863
85,58,276743,276863
64,68,276383,276863
69,68,276383,276863
75,65,276863,276923
87,70,276923,276983
76,63,276983,277043
77,64,277043,277103
78,66,277103,277163
79,67,277163,277223
80,67,277223,277283
81,68,277283,277343
63,69,276863,277343
68,69,276863,277343
71,69,276863,277343
82,68,277343,277403
83,69,277403,277463
84,69,277463,277523
85,69,277523,277583
86,69,277583,277643
87,69,277643,277703
88,69,277703,277763
89,69,277763,277823
90,69,277823,277883
91,69,277883,277943
92,69,277943,278003
93,68,278003,278063
94,68,278063,278123
95,68,278123,278183
96,68,278183,278243
97,68,278243,278303
97,68,278303,278366
99,67,278366,278430
102,67,278430,278498
100,67,278498,278561
97,67,278561,278629
94,67,278629,278693
91,67,278693,278760
51,59,278303,278783
61,59,278303,278783
67,59,278303,278783
86,66,278760,278824
87,66,278824,278891
90,66,278891,278955
89,66,278955,279023
85,65,279023,279086
70,62,279086,279150
79,64,279150,279218
77,64,279218,279281
73,63,279281,279349
70,63,279349,279413
67,63,279413,279480
65,63,279480,279544
61,62,279544,279611
58,63,279611,279675
54,63,279675,279743
44,42,279743,279821
51,41,279821,279900
56,41,279900,279983
59,41,279983,280061
63,41,280061,280140
68,41,280140,280223
71,41,280223,280301
75,41,280301,280380
80,42,280380,280463
83,42,280463,280541
87,42,280541,280620
95,42,280620,280703
92,42,280703,281423
71,84,281663,281783
83,84,281663,281783
68,84,281663,281783
71,87,281903,282023
83,87,281903,282023
67,86,281903,282023
70,86,281903,282023
71,90,282143,282263
83,90,282143,282263
66,89,282143,282263
69,89,282143,282263
71,93,282383,282503
83,93,282383,282503
65,92,282383,282503
68,92,282383,282503
71,95,282623,282743
83,95,282623,282743
64,94,282623,282743
67,94,282623,282743
83,105,282863,283103
47,104,282863,283103
66,61,283103,283343
63,61,283103,283343
78,95,283343,283463
71,95,283343,283583
59,107,283343,283583
54,57,283343,283583
66,61,283583,283823
63,65,283583,283823
83,100,283823,284063
47,92,283823,284063
66,61,284063,284303
63,65,284063,284303
85,102,284303,284543
42,92,284303,284543
66,61,284543,284783
64,65,284543,284783
78,89,284783,285023
73,69,284783,285023
58,112,284783,285023
54,52,284783,285023
66,57,285023,285263
64,68,285023,285263
85,105,285263,285503
42,90,285263,285503
66,58,285503,285743
64,67,285503,285743
87,74,285743,285863
47,55,285743,285863
66,83,285983,286103
63,112,285983,286103
75,86,286223,286343
54,108,286223,286343
83,99,286463,286583
47,97,286463,286583
87,104,286703,286823
42,95,286703,286823
95,109,286943,287063
35,93,286943,287063
75,102,287423,287543
87,102,287423,287543
75,104,287663,287783
87,104,287663,287783
71,108,287423,287903
74,111,287663,287903
75,108,287903,288023
87,108,287903,288023
70,112,287903,288023
73,112,287903,288023
75,111,288143,288263
87,111,288143,288263
69,113,288143,288263
72,113,288143,288263
75,115,288383,288503
87,115,288383,288503
68,115,288383,288503
71,115,288383,288503
87,122,288623,288863
51,108,288623,288863
70,61,288863,289103
66,62,288863,289103
82,110,289103,289343
75,64,289103,289343
63,115,289103,289343
58,57,289103,289343
70,59,289343,289583
66,65,289343,289583
87,118,289583,289823
51,100,289583,289823
70,59,289823,290063
66,64,289823,290063
89,122,290063,290303
46,101,290063,290303
70,59,290303,290543
68,66,290303,290543
82,103,290543,290783
77,69,290543,290783
62,127,290543,290783
58,52,290543,290783
70,56,290783,291023
68,69,290783,291023
89,124,291023,291263
46,101,291023,291263
70,57,291263,291503
68,68,291263,291503
90,74,291503,291743
51,55,291503,291743
70,96,291743,291863
66,127,291743,291863
78,99,291983,292103
58,125,291983,292103
87,115,292223,292343
51,111,292223,292343
90,120,292463,292583
46,109,292463,292583
99,126,292703,292823
39,107,292703,292823
78,117,293183,293303
90,117,293183,293303
75,124,293183,293303
78,119,293423,293543
90,119,293423,293543
74,126,293423,293543
77,126,293423,293543
78,122,293663,293783
90,122,293663,293783
73,127,293663,293783
76,127,293663,293783
78,126,293903,294023
90,126,293903,294023
72,127,293903,294023
75,127,293903,294023
78,127,294143,294263
90,127,294143,294263
71,127,294143,294263
74,127,294143,294263
90,127,294383,294623
54,127,294383,294623
73,60,294623,294863
70,63,294623,294863
85,123,294863,295103
78,63,294863,295103
66,127,294863,295103
61,57,294863,295103
73,58,295103,295343
70,66,295103,295343
90,127,295343,295583
54,118,295343,295583
73,59,295583,295823
70,65,295583,295823
92,127,295823,296063
49,115,295823,296063
73,59,296063,296303
71,65,296063,296303
85,116,296303,296543
80,69,296303,296543
65,127,296303,296543
61,52,296303,296543
73,56,296543,296783
71,68,296543,296783
92,127,296783,297023
49,113,296783,297023
73,57,297023,297263
71,67,297023,297263
54,127,297263,297405
85,127,297263,297503
90,127,297263,297503
94,127,297263,297503
85,127,297503,297743
92,127,297503,297743
95,127,297503,297743
61,127,297743,297863
85,127,297743,297983
94,127,297743,297983
97,127,297743,297983
70,127,297983,298103
85,127,297983,298223
94,127,297983,298223
97,127,297983,298223
78,127,298223,298343
85,127,298223,298463
92,127,298223,298463
95,127,298223,298463
82,127,298463,298583
85,127,298463,298703
90,127,298463,298703
94,127,298463,298703
47,122,298703,298845
83,114,298703,298943
87,114,298703,298943
92,114,298703,298943
85,127,298943,299183
87,127,298943,299183
94,127,298943,299183
59,127,299183,299303
87,127,299183,299423
95,127,299183,299423
68,127,299423,299543
87,127,299423,299663
95,127,299423,299663
75,127,299663,299783
85,125,299663,299903
87,125,299663,299903
94,125,299663,299903
80,127,299903,300023
83,112,299903,300143
87,112,299903,300143
92,112,299903,300143
49,127,300143,300285
82,114,300143,300383
85,114,300143,300383
90,114,300143,300383
83,116,300383,300623
85,116,300383,300623
92,116,300383,300623
85,127,300623,300863
94,127,300623,300863
58,127,300623,300863
85,127,300863,301103
94,127,300863,301103
66,127,300863,301103
83,117,301103,301343
85,117,301103,301343
92,117,301103,301343
73,127,301103,301343
82,109,301343,301583
85,109,301343,301583
90,109,301343,301583
78,127,301343,301583
61,110,301583,301725
80,108,301583,301823
85,108,301583,301823
89,108,301583,301823
82,112,301823,302063
85,112,301823,302063
90,112,301823,302063
83,127,302063,302303
85,127,302063,302303
92,127,302063,302303
77,127,302063,302303
83,127,302303,302543
85,127,302303,302543
92,127,302303,302543
68,117,302303,302543
78,108,302543,302783
85,108,302543,302783
87,108,302543,302783
61,108,302543,302783
80,113,302783,303023
85,113,302783,303023
89,113,302783,303023
71,127,302783,303023
78,127,303023,303094
85,127,303023,303094
90,127,303023,303094
66,127,303023,303165
70,127,303023,303165
42,108,303503,303743
54,108,303503,303743
42,108,303743,303983
54,108,303743,303983
43,108,303983,304223
55,108,303983,304223
43,108,304223,304463
55,108,304223,304463
44,111,304463,304703
56,111,304463,304703
44,113,304703,304943
56,113,304703,304943
56,127,304943,305183
68,127,304943,305183
56,127,305183,305423
68,127,305183,305423
68,127,305423,305663
80,127,305423,305663
68,127,305663,305903
80,127,305663,305903
80,127,305903,306143
92,127,305903,306143
90,67,306383,306623
102,67,306383,306623
80,70,306383,306623
75,61,306383,306623
90,66,306623,306863
102,66,306623,306863
80,70,306623,306863
88,63,306863,307103
100,63,306863,307103
80,70,306863,307103
73,60,306863,307103
88,62,307103,307343
100,62,307103,307343
80,70,307103,307343
87,60,307343,307583
99,60,307343,307583
80,69,307343,307583
72,59,307343,307583
87,60,307583,307823
99,60,307583,307823
80,68,307583,307823
85,55,307823,308063
97,55,307823,308063
80,67,307823,308063
70,58,307823,308063
85,56,308063,308303
97,56,308063,308303
80,66,308063,308303
87,62,308303,308543
99,62,308303,308543
80,64,308303,308543
87,62,308543,308783
99,62,308543,308783
72,61,308303,308783
80,63,308543,308783
73,66,308783,309023
88,69,308783,309263
100,69,308783,309263
80,66,308783,309263
44,52,309263,309503
56,52,309263,309503
44,52,309503,309743
56,52,309503,309743
43,52,309743,309983
55,52,309743,309983
43,52,309983,310223
55,52,309983,310223
42,52,310223,310463
54,52,310223,310463
42,54,310463,310703
54,54,310463,310703
54,75,310703,310943
66,75,310703,310943
54,77,310943,311183
66,77,310943,311183
66,79,311183,311423
78,79,311183,311423
66,82,311423,311663
78,82,311423,311663
78,96,311663,312143
90,96,311663,312143
88,66,312143,312383
100,66,312143,312383
78,70,312143,312383
73,61,312143,312383
88,65,312383,312623
100,65,312383,312623
78,70,312383,312623
87,63,312623,312863
99,63,312623,312863
78,70,312623,312863
71,60,312623,312863
87,63,312863,313103
99,63,312863,313103
78,70,312863,313103
85,59,313103,313343
97,59,313103,313343
78,69,313103,313343
70,59,313103,313343
85,59,313343,313583
97,59,313343,313583
78,68,313343,313583
83,54,313583,313823
95,54,313583,313823
78,67,313583,313823
68,58,313583,313823
83,55,313823,314063
95,55,313823,314063
78,66,313823,314063
85,61,314063,314303
97,61,314063,314303
78,64,314063,314303
70,61,314063,314303
85,61,314303,314543
97,61,314303,314543
78,63,314303,314543
87,71,314543,315023
99,71,314543,315023
78,66,314543,315023
71,66,314543,315023
41,52,315023,315263
53,52,315023,315263
41,52,315263,315503
53,52,315263,315503
40,52,315503,315743
52,52,315503,315743
40,52,315743,315983
52,52,315743,315983
39,52,315983,316223
51,52,315983,316223
39,53,316223,316463
51,53,316223,316463
51,74,316463,316703
63,74,316463,316703
51,76,316703,316943
63,76,316703,316943
63,77,316943,317183
75,77,316943,317183
63,79,317183,317423
75,79,317183,317423
75,95,317423,317903
87,95,317423,317903
75,69,317903,318143
87,69,317903,318143
63,79,317903,318143
67,79,317903,318143
75,72,318143,318383
87,72,318143,318383
63,81,318143,318383
67,81,318143,318383
75,76,318383,318623
87,76,318383,318623
65,85,318383,318623
68,85,318383,318623
75,79,318623,318863
87,79,318623,318863
65,88,318623,318863
68,88,318623,318863
76,86,318863,319103
88,86,318863,319103
66,93,318863,319103
69,93,318863,319103
75,83,319103,319343
87,83,319103,319343
66,92,319103,319343
69,92,319103,319343
73,76,319343,319583
85,76,319343,319583
64,82,319343,319583
67,82,319343,319583
71,72,319583,319823
83,72,319583,319823
64,82,319583,319823
67,82,319583,319823
70,71,319823,320063
82,71,319823,320063
62,74,319823,320063
65,74,319823,320063
68,71,320063,320303
80,71,320063,320303
62,74,320063,320303
65,74,320063,320303
67,76,320303,320783
79,76,320303,320783
63,76,320303,320783
34,71,320783,321023
46,71,320783,321023
34,71,321023,321263
46,71,321023,321263
38,71,321263,321503
50,71,321263,321503
38,71,321503,321743
50,71,321503,321743
39,72,321743,321983
51,72,321743,321983
39,75,321983,322223
51,75,321983,322223
51,102,322223,322463
63,102,322223,322463
51,106,322463,322703
63,106,322463,322703
63,108,322703,322943
75,108,322703,322943
63,112,322943,323183
75,112,322943,323183
75,127,323183,323663
87,127,323183,323663
87,109,323663,323903
99,109,323663,323903
67,112,323663,323903
75,112,323663,323903
87,111,323903,324143
99,111,323903,324143
67,116,323903,324143
75,116,323903,324143
87,114,324143,324383
99,114,324143,324383
68,121,324143,324383
77,121,324143,324383
87,117,324383,324623
99,117,324383,324623
68,125,324383,324623
77,125,324383,324623
88,123,324623,324863
100,123,324623,324863
69,127,324623,324863
78,127,324623,324863
87,118,324863,325103
99,118,324863,325103
69,127,324863,325103
78,127,324863,325103
85,108,325103,325343
97,108,325103,325343
70,127,325103,325343
79,127,325103,325343
83,100,325343,325583
95,100,325343,325583
70,127,325343,325583
79,127,325343,325583
82,98,325583,325823
94,98,325583,325823
74,117,325583,325823
77,117,325583,325823
80,96,325823,326063
92,96,325823,326063
74,115,325823,326063
77,115,325823,326063
79,102,326063,326303
91,102,326063,326303
70,108,326063,326303
75,108,326063,326303
78,96,326303,326543
90,96,326303,326543
70,102,326303,326543
75,102,326303,326543
77,96,326543,326783
89,96,326543,326783
68,96,326543,326783
71,96,326543,326783
76,96,326783,327023
88,96,326783,327023
68,96,326783,327023
71,96,326783,327023
74,96,327023,327263
86,96,327023,327263
66,96,327023,327263
69,96,327023,327263
75,96,327263,327503
87,96,327263,327503
66,96,327263,327503
69,96,327263,327503
76,127,327503,327743
88,127,327503,327743
67,106,327503,327743
70,106,327503,327743
75,106,327743,327983
87,106,327743,327983
67,107,327743,327983
70,107,327743,327983
73,106,327983,328223
85,106,327983,328223
64,106,327983,328223
67,106,327983,328223
71,106,328223,328463
83,106,328223,328463
64,106,328223,328463
67,106,328223,328463
70,106,328463,328703
82,106,328463,328703
62,106,328463,328703
65,106,328463,328703
68,106,328703,328943
80,106,328703,328943
62,106,328703,328943
65,106,328703,328943
67,112,328943,329183
79,112,328943,329183
58,112,328943,329183
63,112,328943,329183
66,106,329183,329423
78,106,329183,329423
58,106,329183,329423
63,106,329183,329423
65,106,329423,329663
77,106,329423,329663
56,106,329423,329663
59,106,329423,329663
64,106,329663,329903
76,106,329663,329903
56,106,329663,329903
59,106,329663,329903
62,106,329903,330143
74,106,329903,330143
54,106,329903,330143
57,106,329903,330143
63,106,330143,330383
75,106,330143,330383
54,106,330143,330383
57,106,330143,330383
64,106,330383,330623
76,106,330383,330623
55,106,330383,330623
58,106,330383,330623
63,106,330623,330863
75,106,330623,330863
55,106,330623,330863
58,106,330623,330863
61,106,330863,331103
73,106,330863,331103
52,106,330863,331103
55,106,330863,331103
59,106,331103,331343
71,106,331103,331343
52,106,331103,331343
55,106,331103,331343
58,107,331343,331583
70,107,331343,331583
50,107,331343,331583
53,107,331343,331583
56,107,331583,331823
68,107,331583,331823
50,107,331583,331823
53,107,331583,331823
67,113,331823,332063
55,116,331823,332063
46,96,331823,332063
51,96,331823,332063
66,107,332063,332303
54,109,332063,332303
46,92,332063,332303
51,92,332063,332303
65,107,332303,332543
53,108,332303,332543
44,89,332303,332543
47,89,332303,332543
64,107,332543,332783
52,107,332543,332783
44,90,332543,332783
47,90,332543,332783
62,107,332783,333023
50,107,332783,333023
42,89,332783,333023
45,89,332783,333023
63,107,333023,333263
51,109,333023,333263
42,89,333023,333263
45,89,333023,333263
64,107,333263,333503
52,113,333263,333503
43,92,333263,333503
46,92,333263,333503
63,107,333503,333743
52,115,333503,333743
43,92,333503,333743
46,92,333503,333743
61,107,333743,333983
52,117,333743,333983
43,93,333743,333983
46,93,333743,333983
52,127,333983,334223
59,127,333983,334223
52,0,-1,334223
59,0,-1,334223
43,93,333983,334223
46,93,333983,334223
53,127,334223,334463
58,127,334223,334463
53,0,-1,334463
58,0,-1,334463
38,97,334223,334463
47,97,334223,334463
53,127,334463,334703
56,127,334463,334703
53,0,-1,334703
56,0,-1,334703
38,97,334463,334703
47,97,334463,334703
55,127,334703,335183
39,102,334703,335183
46,102,334703,335183
62,123,335183,335423
50,111,335183,335423
50,107,335423,335663
63,127,335663,335903
51,115,335663,335903
51,108,335903,336143
69,127,336143,336383
57,127,336143,336383
57,112,336383,336623
70,127,336623,336863
58,127,336623,336863
58,112,336863,337103
74,127,337103,337343
62,127,337103,337343
50,112,337343,337583
62,112,337343,337583
63,127,337583,337823
75,127,337583,337823
51,111,337823,338063
63,111,337823,338063
69,127,338063,338303
81,127,338063,338303
57,123,338303,338543
69,123,338303,338543
70,127,338543,338783
82,127,338543,338783
58,117,338783,339023
70,117,338783,339023
74,127,339023,339263
86,127,339023,339263
62,126,339263,339503
74,126,339263,339503
75,127,339503,339743
87,127,339503,339743
63,121,339743,339983
75,121,339743,339983
81,127,339983,340223
93,127,339983,340223
69,127,340223,340463
81,127,340223,340463
82,127,340463,340703
94,127,340463,340703
70,127,340703,340943
82,127,340703,340943
86,127,340943,341183
98,127,340943,341183
74,127,341183,341423
86,127,341183,341423
87,127,341423,341663
99,127,341423,341663
75,127,341663,341903
87,127,341663,341903
86,127,341903,342143
98,127,341903,342143
74,114,342143,342383
86,114,342143,342383
87,127,342383,342623
99,127,342383,342623
75,112,342623,342863
87,112,342623,342863
86,127,342863,343103
98,127,342863,343103
74,108,343103,343343
86,108,343103,343343
87,127,343343,343583
99,127,343343,343583
73,108,343583,343823
85,108,343583,343823
87,127,343823,344063
99,127,343823,344063
70,108,344063,344303
82,108,344063,344303
87,127,344303,344543
99,127,344303,344543
67,108,344543,344783
79,108,344543,344783
87,127,344783,345023
99,127,344783,345023
63,108,345023,345263
75,108,345023,345263
87,127,345263,345503
99,127,345263,345503
61,108,345503,345743
73,108,345503,345743
87,127,345743,345983
99,127,345743,345983
58,108,345983,346223
70,108,345983,346223
87,127,346223,346463
99,127,346223,346463
55,108,346463,346703
67,108,346463,346703
87,127,346703,346943
99,127,346703,346943
51,108,346943,347183
63,108,346943,347183
87,127,347183,347423
99,127,347183,347423
49,108,347423,347663
61,108,347423,347663
87,127,347663,347903
99,127,347663,347903
46,108,347903,348143
58,108,347903,348143
87,127,348143,348383
99,127,348143,348383
43,108,348383,348623
55,108,348383,348623
87,127,348623,348863
99,127,348623,348863
39,108,348863,349103
51,108,348863,349103
87,127,349103,349294
99,127,349103,349294
87,127,349343,349534
99,127,349343,349534
87,126,349583,349774
99,126,349583,349774
87,125,349823,350014
99,125,349823,350014
87,125,350063,350254
99,125,350063,350254
87,124,350303,350494
99,124,350303,350494
87,123,350543,350734
99,123,350543,350734
87,122,350783,350974
99,122,350783,350974
87,122,351023,351214
99,122,351023,351214
87,121,351263,351454
99,121,351263,351454
87,120,351503,351694
99,120,351503,351694
87,119,351743,351934
99,119,351743,351934
87,127,351983,352223
99,127,351983,352223
87,120,352223,352463
99,120,352223,352463
87,118,352463,352703
99,118,352463,352703
87,118,352703,352943
99,118,352703,352943
63,116,352943,353085
87,116,352943,353183
99,116,352943,353183
87,115,353183,353423
99,115,353183,353423
75,116,353423,353565
87,113,353423,353663
99,113,353423,353663
87,113,353663,353903
99,113,353663,353903
87,113,353903,354143
99,113,353903,354143
87,113,354143,354383
99,113,354143,354383
85,102,354383,354623
97,102,354383,354623
85,103,354623,354863
97,103,354623,354863
83,103,354863,355103
95,103,354863,355103
83,99,355103,355343
95,99,355103,355343
32,102,354863,355343
44,102,354863,355343
83,100,355343,355583
95,100,355343,355583
51,105,355343,355583
59,105,355343,355583
63,105,355343,355583
83,101,355583,355823
95,101,355583,355823
51,104,355583,355823
59,104,355583,355823
63,104,355583,355823
82,99,355823,356063
94,99,355823,356063
82,100,356063,356303
94,100,356063,356303
56,104,355823,356303
59,104,355823,356303
63,104,355823,356303
80,96,356303,356543
92,96,356303,356543
80,97,356543,356783
92,97,356543,356783
35,85,356303,356783
47,85,356303,356783
79,96,356783,357023
91,96,356783,357023
51,109,356783,357023
59,109,356783,357023
63,109,356783,357023
79,98,357023,357263
91,98,357023,357263
51,108,357023,357263
59,108,357023,357263
63,108,357023,357263
80,104,357263,357503
92,104,357263,357503
80,106,357503,357743
92,106,357503,357743
56,107,357263,357743
59,107,357263,357743
63,107,357263,357743
82,127,357743,357983
94,127,357743,357983
82,120,357983,358223
94,120,357983,358223
39,88,357743,358223
51,88,357743,358223
75,96,358223,358463
87,96,358223,358463
55,112,358223,358463
63,112,358223,358463
67,112,358223,358463
75,96,358463,358703
87,96,358463,358703
55,112,358463,358703
63,112,358463,358703
67,112,358463,358703
75,96,358703,358943
87,96,358703,358943
75,96,358943,359183
87,96,358943,359183
58,110,358703,359183
63,110,358703,359183
67,110,358703,359183
76,101,359183,359423
88,101,359183,359423
76,104,359423,359663
88,104,359423,359663
43,83,359183,359663
55,83,359183,359663
75,101,359663,359903
87,101,359663,359903
61,112,359663,359903
63,112,359663,359903
70,112,359663,359903
75,102,359903,360143
87,102,359903,360143
61,112,359903,360143
63,112,359903,360143
70,112,359903,360143
73,97,360143,360383
85,97,360143,360383
73,99,360383,360623
85,99,360383,360623
61,110,360143,360623
63,110,360143,360623
70,110,360143,360623
71,102,360623,360863
83,102,360623,360863
71,96,360863,361103
83,96,360863,361103
44,88,360623,361103
56,88,360623,361103
71,98,361103,361343
83,98,361103,361343
59,108,361103,361343
63,108,361103,361343
68,108,361103,361343
71,100,361343,361583
83,100,361343,361583
59,107,361343,361583
63,107,361343,361583
68,107,361343,361583
70,98,361583,361823
82,98,361583,361823
70,100,361823,362063
82,100,361823,362063
59,88,361583,362063
63,88,361583,362063
68,96,362063,362303
80,96,362063,362303
68,97,362303,362543
80,97,362303,362543
40,83,362063,362543
67,96,362543,362783
79,96,362543,362783
58,98,362543,362783
62,98,362543,362783
67,98,362783,363023
79,98,362783,363023
58,99,362783,363023
62,99,362783,363023
68,104,363023,363263
80,104,363023,363263
68,106,363263,363503
80,106,363263,363503
58,99,363023,363503
62,99,363023,363503
70,127,363503,363743
82,127,363503,363743
70,120,363743,363983
82,120,363743,363983
39,89,363503,363983
63,96,363983,364223
75,96,363983,364223
55,99,363983,364223
58,99,363983,364223
63,96,364223,364463
75,96,364223,364463
55,100,364223,364463
58,100,364223,364463
75,127,364463,364703
87,127,364463,364703
75,127,364703,364943
87,127,364703,364943
55,111,364463,364943
58,111,364463,364943
63,111,364463,364943
87,127,364943,365183
99,127,364943,365183
87,127,365183,365423
99,127,365183,365423
67,112,364943,365423
70,112,364943,365423
75,112,364943,365423
87,127,365423,365663
99,127,365423,365663
87,127,365663,365903
99,127,365663,365903
85,127,365903,366143
97,127,365903,366143
85,127,366143,366383
97,127,366143,366383
84,127,366383,366623
96,127,366383,366623
84,123,366623,366863
96,123,366623,366863
32,94,366383,366863
44,94,366383,366863
84,120,366863,367103
96,120,366863,367103
54,105,366863,367103
57,105,366863,367103
63,105,366863,367103
84,117,367103,367343
96,117,367103,367343
54,104,367103,367343
57,104,367103,367343
63,104,367103,367343
81,100,367343,367583
93,100,367343,367583
81,100,367583,367823
93,100,367583,367823
54,103,367343,367823
57,103,367343,367823
63,103,367343,367823
80,98,367823,368063
92,98,367823,368063
80,99,368063,368303
92,99,368063,368303
36,84,367823,368303
48,84,367823,368303
80,100,368303,368543
92,100,368303,368543
57,112,368303,368543
63,112,368303,368543
69,112,368303,368543
80,101,368543,368783
92,101,368543,368783
57,112,368543,368783
63,112,368543,368783
69,112,368543,368783
78,96,368783,369023
90,96,368783,369023
78,98,369023,369263
90,98,369023,369263
57,111,368783,369263
63,111,368783,369263
69,111,368783,369263
76,102,369263,369743
88,102,369263,369743
37,88,369263,369743
49,88,369263,369743
64,96,369743,369983
69,96,369743,369983
73,96,369743,369983
52,98,369743,369983
57,98,369743,369983
61,98,369743,369983
64,97,369983,370223
69,97,369983,370223
73,97,369983,370223
52,99,369983,370223
57,99,369983,370223
61,99,369983,370223
64,98,370223,370463
69,98,370223,370463
75,98,370223,370463
51,101,370223,370463
57,101,370223,370463
61,101,370223,370463
64,99,370463,370703
69,99,370463,370703
75,99,370463,370703
51,102,370463,370703
57,102,370463,370703
61,102,370463,370703
64,100,370703,370943
69,100,370703,370943
76,100,370703,370943
49,104,370703,370943
57,104,370703,370943
61,104,370703,370943
64,103,370943,371183
69,103,370943,371183
76,103,370943,371183
49,105,370943,371183
57,105,370943,371183
61,105,370943,371183
64,104,371183,371423
69,104,371183,371423
75,104,371183,371423
51,107,371183,371423
57,107,371183,371423
61,107,371183,371423
64,108,371423,371663
69,108,371423,371663
75,108,371423,371663
51,108,371423,371663
57,108,371423,371663
61,108,371423,371663
64,105,371663,371903
69,105,371663,371903
73,105,371663,371903
52,110,371663,371903
57,110,371663,371903
61,110,371663,371903
64,108,371903,372143
69,108,371903,372143
73,108,371903,372143
52,111,371903,372143
57,111,371903,372143
61,111,371903,372143
63,114,372143,372383
68,114,372143,372383
71,114,372143,372383
75,114,372143,372383
51,108,372143,372383
56,108,372143,372383
59,108,372143,372383
64,127,372383,372623
76,127,372383,372623
50,121,372383,372623
62,121,372383,372623
65,127,372623,372863
77,127,372623,372863
49,115,372623,372863
61,115,372623,372863
66,127,372863,373103
78,127,372863,373103
48,109,372863,373103
60,109,372863,373103
67,127,373103,373343
79,127,373103,373343
47,104,373103,373343
59,104,373103,373343
68,127,373343,373583
80,127,373343,373583
46,102,373343,373583
58,102,373343,373583
69,127,373583,373823
81,127,373583,373823
45,100,373583,373823
57,100,373583,373823
70,127,373823,374063
82,127,373823,374063
44,99,373823,374063
56,99,373823,374063
71,127,374063,374303
83,127,374063,374303
43,99,374063,374303
55,99,374063,374303
72,127,374303,374543
84,127,374303,374543
42,99,374303,374543
54,99,374303,374543
73,127,374543,374783
85,127,374543,374783
41,100,374543,374783
53,100,374543,374783
74,127,374783,375023
86,127,374783,375023
40,100,374783,375023
52,100,374783,375023
75,127,375023,375263
79,127,375023,375263
82,127,375023,375263
87,127,375023,375263
39,107,375023,375263
43,107,375023,375263
46,107,375023,375263
51,107,375023,375263
76,127,375263,375503
88,127,375263,375503
38,102,375263,375503
50,102,375263,375503
77,127,375503,375743
89,127,375503,375743
37,102,375503,375743
49,102,375503,375743
78,127,375743,375983
90,127,375743,375983
36,103,375743,375983
48,103,375743,375983
79,127,375983,376223
91,127,375983,376223
35,103,375983,376223
47,103,375983,376223
80,127,376223,376463
92,127,376223,376463
34,105,376223,376463
46,105,376223,376463
81,127,376463,376703
93,127,376463,376703
33,106,376463,376703
45,106,376463,376703
82,127,376703,376943
94,127,376703,376943
32,107,376703,376943
44,107,376703,376943
83,127,376943,377183
95,127,376943,377183
31,108,376943,377183
43,108,376943,377183
85,127,377183,377423
97,127,377183,377423
30,109,377183,377423
42,109,377183,377423
86,127,377423,377663
98,127,377423,377663
28,107,377423,377663
40,107,377423,377663
87,127,377663,377903
99,127,377663,377903
27,108,377663,377903
39,108,377663,377903
59,102,377903,378383
63,102,377903,378383
68,102,377903,378383
32,119,377903,378383
44,119,377903,378383
39,127,378383,378623
51,127,378383,378623
44,127,378623,378863
56,127,378623,378863
71,96,378863,379343
75,96,378863,379343
83,96,378863,379343
51,127,378863,379343
63,127,378863,379343
70,96,379343,379583
75,96,379343,379583
82,96,379343,379583
71,99,379583,379823
83,99,379583,379823
32,103,379343,379823
44,103,379343,379823
39,124,379823,380063
51,124,379823,380063
73,105,379823,380303
85,105,379823,380303
44,127,380063,380303
56,127,380063,380303
71,103,380303,380543
75,103,380303,380543
83,103,380303,380543
70,102,380543,380783
82,102,380543,380783
51,127,380303,380783
63,127,380303,380783
71,114,380783,381023
75,114,380783,381023
83,114,380783,381023
73,117,381023,381263
85,117,381023,381263
32,105,380783,381263
44,105,380783,381263
39,111,381263,381503
51,111,381263,381503
75,126,381263,381743
87,126,381263,381743
44,127,381503,381743
56,127,381503,381743
73,116,381743,381983
85,116,381743,381983
71,107,381983,382223
83,107,381983,382223
51,127,381743,382223
63,127,381743,382223
70,103,382223,382463
75,103,382223,382463
82,103,382223,382463
71,109,382463,382703
83,109,382463,382703
32,97,382223,382703
44,97,382223,382703
39,107,382703,382943
51,107,382703,382943
73,120,382703,383183
85,120,382703,383183
44,127,382943,383183
56,127,382943,383183
71,109,383183,383423
75,109,383183,383423
83,109,383183,383423
70,104,383423,383663
82,104,383423,383663
51,127,383183,383663
63,127,383183,383663
71,117,383663,383903
75,117,383663,383903
83,117,383663,383903
70,105,383903,384143
82,105,383903,384143
32,103,383663,384143
44,103,383663,384143
39,107,384143,384383
51,107,384143,384383
68,98,384143,384623
80,98,384143,384623
44,127,384383,384623
56,127,384383,384623
83,127,384623,385103
87,127,384623,385103
95,127,384623,385103
51,127,384623,385103
63,127,384623,385103
82,127,385103,385343
87,127,385103,385343
94,127,385103,385343
83,127,385343,385583
95,127,385343,385583
32,97,385103,385583
44,97,385103,385583
39,107,385583,385823
51,107,385583,385823
85,127,385583,386063
97,127,385583,386063
44,127,385823,386063
56,127,385823,386063
83,127,386063,386303
87,127,386063,386303
95,127,386063,386303
82,126,386303,386543
94,126,386303,386543
51,127,386063,386543
63,127,386063,386543
83,127,386543,386783
87,127,386543,386783
95,127,386543,386783
85,127,386783,387023
97,127,386783,387023
32,103,386543,387023
44,103,386543,387023
39,107,387023,387263
51,107,387023,387263
87,127,387023,387503
99,127,387023,387503
44,127,387263,387503
56,127,387263,387503
85,124,387503,387743
97,124,387503,387743
83,112,387743,387983
95,112,387743,387983
51,127,387503,387983
63,127,387503,387983
82,106,387983,388223
87,106,387983,388223
94,106,387983,388223
83,112,388223,388463
95,112,388223,388463
32,97,387983,388463
44,97,387983,388463
39,107,388463,388703
51,107,388463,388703
85,122,388463,388943
97,122,388463,388943
44,127,388703,388943
56,127,388703,388943
83,109,388943,389183
87,109,388943,389183
95,109,388943,389183
82,104,389183,389423
94,104,389183,389423
51,127,388943,389423
63,127,388943,389423
83,117,389423,389663
87,117,389423,389663
95,117,389423,389663
82,105,389663,389903
94,105,389663,389903
32,103,389423,389903
44,103,389423,389903
39,107,389903,390143
51,107,389903,390143
80,98,389903,390383
92,98,389903,390383
44,127,390143,390383
56,127,390143,390383
63,96,390383,390863
71,96,390383,390863
75,96,390383,390863
47,127,390383,390863
51,127,390383,390863
59,127,390383,390863
63,96,390863,391103
70,96,390863,391103
75,96,390863,391103
46,126,390863,391103
51,126,390863,391103
58,126,390863,391103
63,99,391103,391343
71,99,391103,391343
75,99,391103,391343
47,127,391103,391343
51,127,391103,391343
59,127,391103,391343
63,101,391343,391823
73,101,391343,391823
75,101,391343,391823
49,127,391343,391823
51,127,391343,391823
61,127,391343,391823
63,108,391823,392063
71,108,391823,392063
75,108,391823,392063
47,127,391823,392063
51,127,391823,392063
59,127,391823,392063
63,109,392063,392303
70,109,392063,392303
75,109,392063,392303
46,127,392063,392303
51,127,392063,392303
58,127,392063,392303
63,118,392303,392543
71,118,392303,392543
75,118,392303,392543
47,127,392303,392543
51,127,392303,392543
59,127,392303,392543
63,113,392543,392783
70,113,392543,392783
75,113,392543,392783
46,127,392543,392783
51,127,392543,392783
58,127,392543,392783
63,115,392783,393263
68,115,392783,393263
75,115,392783,393263
44,116,392783,393263
51,116,392783,393263
56,116,392783,393263
75,127,393263,393405
80,127,393263,393405
87,127,393263,393405
32,108,393263,393405
39,108,393263,393405
44,108,393263,393405
63,108,393743,393983
70,108,393743,393983
75,108,393743,393983
46,115,393743,393983
51,115,393743,393983
58,115,393743,393983
63,112,393983,394223
71,112,393983,394223
75,112,393983,394223
47,122,393983,394223
51,122,393983,394223
59,122,393983,394223
63,116,394223,394703
73,116,394223,394703
75,116,394223,394703
49,127,394223,394703
51,127,394223,394703
61,127,394223,394703
63,125,394703,394943
71,125,394703,394943
75,125,394703,394943
47,127,394703,394943
51,127,394703,394943
59,127,394703,394943
63,126,394943,395183
70,126,394943,395183
75,126,394943,395183
46,124,394943,395183
51,124,394943,395183
58,124,394943,395183
63,127,395183,395423
71,127,395183,395423
75,127,395183,395423
47,127,395183,395423
51,127,395183,395423
59,127,395183,395423
63,126,395423,395663
70,126,395423,395663
75,126,395423,395663
46,124,395423,395663
51,124,395423,395663
58,124,395423,395663
63,126,395663,396143
68,126,395663,396143
75,126,395663,396143
44,114,395663,396143
51,114,395663,396143
56,114,395663,396143
75,127,396143,396285
80,127,396143,396285
87,127,396143,396285
32,108,396143,396285
39,108,396143,396285
44,108,396143,396285
63,111,396623,396863
71,111,396623,396863
75,111,396623,396863
47,118,396623,396863
51,118,396623,396863
59,118,396623,396863
63,111,396863,397103
70,111,396863,397103
75,111,396863,397103
46,113,396863,397103
51,113,396863,397103
58,113,396863,397103
63,112,397103,397583
68,112,397103,397583
75,112,397103,397583
44,105,397103,397583
51,105,397103,397583
56,105,397103,397583
80,127,397583,397725
87,127,397583,397725
92,127,397583,397725
32,96,397583,397725
39,96,397583,397725
44,96,397583,397725
63,101,398063,398303
71,101,398063,398303
75,101,398063,398303
47,109,398063,398303
51,109,398063,398303
59,109,398063,398303
63,96,398303,398543
70,96,398303,398543
75,96,398303,398543
46,100,398303,398543
51,100,398303,398543
58,100,398303,398543
63,96,398543,399023
68,96,398543,399023
75,96,398543,399023
44,93,398543,399023
51,93,398543,399023
56,93,398543,399023
83,127,399023,399165
87,127,399023,399165
95,127,399023,399165
32,83,399023,399165
39,83,399023,399165
44,83,399023,399165
63,95,399503,399743
71,95,399503,399743
75,95,399503,399743
47,104,399503,399743
51,104,399503,399743
59,104,399503,399743
63,96,399743,399983
70,96,399743,399983
75,96,399743,399983
46,100,399743,399983
51,100,399743,399983
58,100,399743,399983
63,96,399983,400463
68,96,399983,400463
75,96,399983,400463
44,94,399983,400463
51,94,399983,400463
56,94,399983,400463
87,127,400463,401423
92,127,400463,401423
99,127,400463,401423
32,112,400463,401423
39,112,400463,401423
44,112,400463,401423
87,127,401423,401903
92,127,401423,401903
99,127,401423,401903
44,127,401423,401903
51,127,401423,401903
56,127,401423,401903
87,127,401903,402383
92,127,401903,402383
99,127,401903,402383
56,127,401903,402383
63,127,401903,402383
68,127,401903,402383
87,127,402383,402863
92,127,402383,402863
99,127,402383,402863
68,127,402383,402863
75,127,402383,402863
80,127,402383,402863
87,127,402863,403343
92,127,402863,403343
99,127,402863,403343
56,127,402863,403343
63,127,402863,403343
68,127,402863,403343
87,127,403343,403823
92,127,403343,403823
99,127,403343,403823
44,127,403343,403823
51,127,403343,403823
56,127,403343,403823
87,127,403823,404303
92,127,403823,404303
99,127,403823,404303
32,127,403823,404303
39,127,403823,404303
44,127,403823,404303
59,127,405263,405743
63,127,405263,405743
68,127,405263,405743
44,127,405263,405743
51,127,405263,405743
56,127,405263,405743
80,127,406703,409583
83,127,406703,409583
87,127,406703,409583
92,127,406703,409583
59,127,406703,409583
63,127,406703,409583
68,127,406703,409583
71,127,406703,409583
960,120,0,0
