pitch,velocity,start,end
73,100,0,48
73,100,96,144
70,100,192,240
68,100,240,288
66,100,336,432
63,100,720,768
66,100,768,816
66,100,864,912
66,100,960,1008
70,100,1008,1056
68,100,1104,1152
73,100,1536,1584
73,100,1632,1680
68,100,1728,1776
70,100,1776,1824
66,100,1872,1968
61,100,2256,2304
63,100,2304,2352
63,100,2400,2448
63,100,2496,2544
66,100,2544,2592
68,100,2640,2688
73,100,3072,3120
73,100,3168,3216
70,100,3264,3312
68,100,3312,3360
66,100,3408,3504
63,100,3792,3840
66,100,3840,3888
66,100,3936,3984
66,100,4032,4080
70,100,4080,4128
68,100,4176,4224
73,100,4608,4656
73,100,4704,4752
68,100,4800,4848
70,100,4848,4896
66,100,4944,5040
61,100,5328,5376
63,100,5376,5424
63,100,5472,5520
63,100,5568,5616
66,100,5616,5664
68,100,5712,5760
35,100,0,384
42,100,384,768
39,100,768,1152
37,100,1152,1536
35,100,1536,1920
42,100,1920,2304
39,100,2304,2688
37,100,2688,3072
35,100,3072,3456
42,100,3456,3840
39,100,3840,4224
37,100,4224,4608
35,100,4608,4992
42,100,4992,5376
39,100,5376,5760
37,100,5760,6144
42,100,0,12
42,100,48,60
36,100,0,96
42,100,96,108
42,100,144,156
36,100,144,192
42,100,192,204
42,100,204,216
42,100,216,228
42,100,228,240
40,100,192,240
42,100,240,252
42,100,288,300
42,100,300,312
42,100,312,324
42,100,324,336
42,100,336,348
42,100,384,396
42,100,432,444
36,100,432,480
42,100,480,492
42,100,528,540
42,100,576,588
42,100,588,600
42,100,600,612
42,100,612,624
40,100,576,624
42,100,624,636
42,100,672,684
42,100,684,696
42,100,696,708
42,100,708,720
42,100,720,732
42,100,768,780
42,100,816,828
36,100,768,864
42,100,864,876
42,100,912,924
36,100,912,960
42,100,960,972
42,100,972,984
42,100,984,996
40,100,960,1008
42,100,996,1008
42,100,1008,1020
42,100,1056,1068
42,100,1068,1080
42,100,1080,1092
42,100,1092,1104
42,100,1104,1116
42,100,1152,1164
42,100,1200,1212
36,100,1200,1248
42,100,1248,1260
42,100,1296,1308
42,100,1344,1356
42,100,1356,1368
42,100,1368,1380
42,100,1380,1392
40,100,1344,1392
42,100,1392,1404
42,100,1440,1452
42,100,1452,1464
42,100,1464,1476
42,100,1476,1488
42,100,1488,1500
42,100,1536,1548
42,100,1584,1596
36,100,1536,1632
42,100,1632,1644
42,100,1680,1692
36,100,1680,1728
42,100,1728,1740
42,100,1740,1752
42,100,1752,1764
40,100,1728,1776
42,100,1764,1776
42,100,1776,1788
42,100,1824,1836
42,100,1836,1848
42,100,1848,1860
42,100,1860,1872
42,100,1872,1884
42,100,1920,1932
42,100,1968,1980
36,100,1968,2016
42,100,2016,2028
42,100,2064,2076
42,100,2112,2124
42,100,2124,2136
42,100,2136,2148
42,100,2148,2160
40,100,2112,2160
42,100,2160,2172
42,100,2208,2220
42,100,2220,2232
42,100,2232,2244
42,100,2244,2256
42,100,2256,2268
42,100,2304,2316
42,100,2352,2364
36,100,2304,2400
42,100,2400,2412
42,100,2448,2460
36,100,2448,2496
42,100,2496,2508
42,100,2508,2520
42,100,2520,2532
40,100,2496,2544
42,100,2532,2544
42,100,2544,2556
42,100,2592,2604
42,100,2604,2616
42,100,2616,2628
42,100,2628,2640
42,100,2640,2652
42,100,2688,2700
42,100,2736,2748
36,100,2736,2784
42,100,2784,2796
36,100,2784,2832
42,100,2832,2844
42,100,2880,2892
42,100,2892,2904
42,100,2904,2916
42,100,2916,2928
40,100,2880,2928
42,100,2928,2940
36,100,2928,2976
42,100,2976,2988
42,100,2988,3000
42,100,3000,3012
42,100,3012,3024
42,100,3024,3036
42,100,3072,3084
42,100,3120,3132
36,100,3072,3168
42,100,3168,3180
42,100,3216,3228
36,100,3216,3264
42,100,3264,3276
42,100,3276,3288
42,100,3288,3300
40,100,3264,3312
42,100,3300,3312
42,100,3312,3324
42,100,3360,3372
42,100,3372,3384
42,100,3384,3396
42,100,3396,3408
42,100,3408,3420
42,100,3456,3468
42,100,3504,3516
36,100,3504,3552
42,100,3552,3564
42,100,3600,3612
42,100,3648,3660
42,100,3660,3672
42,100,3672,3684
42,100,3684,3696
40,100,3648,3696
42,100,3696,3708
42,100,3744,3756
42,100,3756,3768
42,100,3768,3780
42,100,3780,3792
42,100,3792,3804
42,100,3840,3852
42,100,3888,3900
36,100,3840,3936
42,100,3936,3948
42,100,3984,3996
36,100,3984,4032
42,100,4032,4044
42,100,4044,4056
42,100,4056,4068
40,100,4032,4080
42,100,4068,4080
42,100,4080,4092
42,100,4128,4140
42,100,4140,4152
42,100,4152,4164
42,100,4164,4176
42,100,4176,4188
42,100,4224,4236
42,100,4272,4284
36,100,4272,4320
42,100,4320,4332
42,100,4368,4380
42,100,4416,4428
42,100,4428,4440
42,100,4440,4452
42,100,4452,4464
40,100,4416,4464
42,100,4464,4476
42,100,4512,4524
42,100,4524,4536
42,100,4536,4548
42,100,4548,4560
42,100,4560,4572
42,100,4608,4620
42,100,4656,4668
36,100,4608,4704
42,100,4704,4716
42,100,4752,4764
36,100,4752,4800
42,100,4800,4812
42,100,4812,4824
42,100,4824,4836
40,100,4800,4848
42,100,4836,4848
42,100,4848,4860
42,100,4896,4908
42,100,4908,4920
42,100,4920,4932
42,100,4932,4944
42,100,4944,4956
42,100,4992,5004
42,100,5040,5052
36,100,5040,5088
42,100,5088,5100
42,100,5136,5148
42,100,5184,5196
42,100,5196,5208
42,100,5208,5220
42,100,5220,5232
40,100,5184,5232
42,100,5232,5244
42,100,5280,5292
42,100,5292,5304
42,100,5304,5316
42,100,5316,5328
42,100,5328,5340
42,100,5376,5388
42,100,5424,5436
36,100,5376,5472
42,100,5472,5484
42,100,5520,5532
36,100,5520,5568
42,100,5568,5580
42,100,5580,5592
42,100,5592,5604
40,100,5568,5616
42,100,5604,5616
42,100,5616,5628
42,100,5664,5676
42,100,5676,5688
42,100,5688,5700
42,100,5700,5712
42,100,5712,5724
42,100,5760,5772
42,100,5808,5820
36,100,5808,5856
42,100,5856,5868
36,100,5856,5904
42,100,5904,5916
42,100,5952,5964
42,100,5964,5976
42,100,5976,5988
42,100,5988,6000
40,100,5952,6000
42,100,6000,6012
36,100,6000,6048
42,100,6048,6060
42,100,6060,6072
42,100,6072,6084
42,100,6084,6096
42,100,6096,6108
36,100,6144,6192
49,100,6144,6192
96,142,0,0
